<?xml version="1.0" encoding="utf-8" standalone="no"?>
<!DOCTYPE svg PUBLIC "-//W3C//DTD SVG 1.1//EN"
  "http://www.w3.org/Graphics/SVG/1.1/DTD/svg11.dtd">
<!-- Created with matplotlib (https://matplotlib.org/) -->
<svg height="360pt" version="1.1" viewBox="0 0 720 360" width="720pt" xmlns="http://www.w3.org/2000/svg" xmlns:xlink="http://www.w3.org/1999/xlink">
 <defs>
  <style type="text/css">
*{stroke-linecap:butt;stroke-linejoin:round;}
  </style>
 </defs>
 <g id="figure_1">
  <g id="patch_1">
   <path d="M 0 360 
L 720 360 
L 720 0 
L 0 0 
z
" style="fill:#ffffff;"/>
  </g>
  <g id="axes_1">
   <g id="patch_2">
    <path d="M 90 315 
L 648 315 
L 648 43.2 
L 90 43.2 
z
" style="fill:#ffffff;"/>
   </g>
   <g id="matplotlib.axis_1">
    <g id="xtick_1">
     <g id="line2d_1">
      <defs>
       <path d="M 0 0 
L 0 3.5 
" id="m67cf7deb2b" style="stroke:#000000;stroke-width:0.8;"/>
      </defs>
      <g>
       <use style="stroke:#000000;stroke-width:0.8;" x="109.70632" xlink:href="#m67cf7deb2b" y="315"/>
      </g>
     </g>
     <g id="text_1">
      <!-- 0 -->
      <defs>
       <path d="M 31.78125 66.40625 
Q 24.171875 66.40625 20.328125 58.90625 
Q 16.5 51.421875 16.5 36.375 
Q 16.5 21.390625 20.328125 13.890625 
Q 24.171875 6.390625 31.78125 6.390625 
Q 39.453125 6.390625 43.28125 13.890625 
Q 47.125 21.390625 47.125 36.375 
Q 47.125 51.421875 43.28125 58.90625 
Q 39.453125 66.40625 31.78125 66.40625 
z
M 31.78125 74.21875 
Q 44.046875 74.21875 50.515625 64.515625 
Q 56.984375 54.828125 56.984375 36.375 
Q 56.984375 17.96875 50.515625 8.265625 
Q 44.046875 -1.421875 31.78125 -1.421875 
Q 19.53125 -1.421875 13.0625 8.265625 
Q 6.59375 17.96875 6.59375 36.375 
Q 6.59375 54.828125 13.0625 64.515625 
Q 19.53125 74.21875 31.78125 74.21875 
z
" id="DejaVuSans-48"/>
      </defs>
      <g transform="translate(106.52507 329.598437)scale(0.1 -0.1)">
       <use xlink:href="#DejaVuSans-48"/>
      </g>
     </g>
    </g>
    <g id="xtick_2">
     <g id="line2d_2">
      <g>
       <use style="stroke:#000000;stroke-width:0.8;" x="203.994931" xlink:href="#m67cf7deb2b" y="315"/>
      </g>
     </g>
     <g id="text_2">
      <!-- 10 -->
      <defs>
       <path d="M 12.40625 8.296875 
L 28.515625 8.296875 
L 28.515625 63.921875 
L 10.984375 60.40625 
L 10.984375 69.390625 
L 28.421875 72.90625 
L 38.28125 72.90625 
L 38.28125 8.296875 
L 54.390625 8.296875 
L 54.390625 0 
L 12.40625 0 
z
" id="DejaVuSans-49"/>
      </defs>
      <g transform="translate(197.632431 329.598437)scale(0.1 -0.1)">
       <use xlink:href="#DejaVuSans-49"/>
       <use x="63.623047" xlink:href="#DejaVuSans-48"/>
      </g>
     </g>
    </g>
    <g id="xtick_3">
     <g id="line2d_3">
      <g>
       <use style="stroke:#000000;stroke-width:0.8;" x="298.283542" xlink:href="#m67cf7deb2b" y="315"/>
      </g>
     </g>
     <g id="text_3">
      <!-- 20 -->
      <defs>
       <path d="M 19.1875 8.296875 
L 53.609375 8.296875 
L 53.609375 0 
L 7.328125 0 
L 7.328125 8.296875 
Q 12.9375 14.109375 22.625 23.890625 
Q 32.328125 33.6875 34.8125 36.53125 
Q 39.546875 41.84375 41.421875 45.53125 
Q 43.3125 49.21875 43.3125 52.78125 
Q 43.3125 58.59375 39.234375 62.25 
Q 35.15625 65.921875 28.609375 65.921875 
Q 23.96875 65.921875 18.8125 64.3125 
Q 13.671875 62.703125 7.8125 59.421875 
L 7.8125 69.390625 
Q 13.765625 71.78125 18.9375 73 
Q 24.125 74.21875 28.421875 74.21875 
Q 39.75 74.21875 46.484375 68.546875 
Q 53.21875 62.890625 53.21875 53.421875 
Q 53.21875 48.921875 51.53125 44.890625 
Q 49.859375 40.875 45.40625 35.40625 
Q 44.1875 33.984375 37.640625 27.21875 
Q 31.109375 20.453125 19.1875 8.296875 
z
" id="DejaVuSans-50"/>
      </defs>
      <g transform="translate(291.921042 329.598437)scale(0.1 -0.1)">
       <use xlink:href="#DejaVuSans-50"/>
       <use x="63.623047" xlink:href="#DejaVuSans-48"/>
      </g>
     </g>
    </g>
    <g id="xtick_4">
     <g id="line2d_4">
      <g>
       <use style="stroke:#000000;stroke-width:0.8;" x="392.572153" xlink:href="#m67cf7deb2b" y="315"/>
      </g>
     </g>
     <g id="text_4">
      <!-- 30 -->
      <defs>
       <path d="M 40.578125 39.3125 
Q 47.65625 37.796875 51.625 33 
Q 55.609375 28.21875 55.609375 21.1875 
Q 55.609375 10.40625 48.1875 4.484375 
Q 40.765625 -1.421875 27.09375 -1.421875 
Q 22.515625 -1.421875 17.65625 -0.515625 
Q 12.796875 0.390625 7.625 2.203125 
L 7.625 11.71875 
Q 11.71875 9.328125 16.59375 8.109375 
Q 21.484375 6.890625 26.8125 6.890625 
Q 36.078125 6.890625 40.9375 10.546875 
Q 45.796875 14.203125 45.796875 21.1875 
Q 45.796875 27.640625 41.28125 31.265625 
Q 36.765625 34.90625 28.71875 34.90625 
L 20.21875 34.90625 
L 20.21875 43.015625 
L 29.109375 43.015625 
Q 36.375 43.015625 40.234375 45.921875 
Q 44.09375 48.828125 44.09375 54.296875 
Q 44.09375 59.90625 40.109375 62.90625 
Q 36.140625 65.921875 28.71875 65.921875 
Q 24.65625 65.921875 20.015625 65.03125 
Q 15.375 64.15625 9.8125 62.3125 
L 9.8125 71.09375 
Q 15.4375 72.65625 20.34375 73.4375 
Q 25.25 74.21875 29.59375 74.21875 
Q 40.828125 74.21875 47.359375 69.109375 
Q 53.90625 64.015625 53.90625 55.328125 
Q 53.90625 49.265625 50.4375 45.09375 
Q 46.96875 40.921875 40.578125 39.3125 
z
" id="DejaVuSans-51"/>
      </defs>
      <g transform="translate(386.209653 329.598437)scale(0.1 -0.1)">
       <use xlink:href="#DejaVuSans-51"/>
       <use x="63.623047" xlink:href="#DejaVuSans-48"/>
      </g>
     </g>
    </g>
    <g id="xtick_5">
     <g id="line2d_5">
      <g>
       <use style="stroke:#000000;stroke-width:0.8;" x="486.860764" xlink:href="#m67cf7deb2b" y="315"/>
      </g>
     </g>
     <g id="text_5">
      <!-- 40 -->
      <defs>
       <path d="M 37.796875 64.3125 
L 12.890625 25.390625 
L 37.796875 25.390625 
z
M 35.203125 72.90625 
L 47.609375 72.90625 
L 47.609375 25.390625 
L 58.015625 25.390625 
L 58.015625 17.1875 
L 47.609375 17.1875 
L 47.609375 0 
L 37.796875 0 
L 37.796875 17.1875 
L 4.890625 17.1875 
L 4.890625 26.703125 
z
" id="DejaVuSans-52"/>
      </defs>
      <g transform="translate(480.498264 329.598437)scale(0.1 -0.1)">
       <use xlink:href="#DejaVuSans-52"/>
       <use x="63.623047" xlink:href="#DejaVuSans-48"/>
      </g>
     </g>
    </g>
    <g id="xtick_6">
     <g id="line2d_6">
      <g>
       <use style="stroke:#000000;stroke-width:0.8;" x="581.149375" xlink:href="#m67cf7deb2b" y="315"/>
      </g>
     </g>
     <g id="text_6">
      <!-- 50 -->
      <defs>
       <path d="M 10.796875 72.90625 
L 49.515625 72.90625 
L 49.515625 64.59375 
L 19.828125 64.59375 
L 19.828125 46.734375 
Q 21.96875 47.46875 24.109375 47.828125 
Q 26.265625 48.1875 28.421875 48.1875 
Q 40.625 48.1875 47.75 41.5 
Q 54.890625 34.8125 54.890625 23.390625 
Q 54.890625 11.625 47.5625 5.09375 
Q 40.234375 -1.421875 26.90625 -1.421875 
Q 22.3125 -1.421875 17.546875 -0.640625 
Q 12.796875 0.140625 7.71875 1.703125 
L 7.71875 11.625 
Q 12.109375 9.234375 16.796875 8.0625 
Q 21.484375 6.890625 26.703125 6.890625 
Q 35.15625 6.890625 40.078125 11.328125 
Q 45.015625 15.765625 45.015625 23.390625 
Q 45.015625 31 40.078125 35.4375 
Q 35.15625 39.890625 26.703125 39.890625 
Q 22.75 39.890625 18.8125 39.015625 
Q 14.890625 38.140625 10.796875 36.28125 
z
" id="DejaVuSans-53"/>
      </defs>
      <g transform="translate(574.786875 329.598437)scale(0.1 -0.1)">
       <use xlink:href="#DejaVuSans-53"/>
       <use x="63.623047" xlink:href="#DejaVuSans-48"/>
      </g>
     </g>
    </g>
   </g>
   <g id="matplotlib.axis_2">
    <g id="ytick_1">
     <g id="line2d_7">
      <path clip-path="url(#p8403dc271a)" d="M 90 315 
L 648 315 
" style="fill:none;stroke:#d3d3d3;stroke-linecap:square;stroke-opacity:0.5;stroke-width:0.8;"/>
     </g>
     <g id="line2d_8">
      <defs>
       <path d="M 0 0 
L -3.5 0 
" id="m7297b1f689" style="stroke:#000000;stroke-width:0.8;"/>
      </defs>
      <g>
       <use style="stroke:#000000;stroke-width:0.8;" x="90" xlink:href="#m7297b1f689" y="315"/>
      </g>
     </g>
     <g id="text_7">
      <!-- 0 -->
      <g transform="translate(76.6375 318.799219)scale(0.1 -0.1)">
       <use xlink:href="#DejaVuSans-48"/>
      </g>
     </g>
    </g>
    <g id="ytick_2">
     <g id="line2d_9">
      <path clip-path="url(#p8403dc271a)" d="M 90 273.307724 
L 648 273.307724 
" style="fill:none;stroke:#d3d3d3;stroke-linecap:square;stroke-opacity:0.5;stroke-width:0.8;"/>
     </g>
     <g id="line2d_10">
      <g>
       <use style="stroke:#000000;stroke-width:0.8;" x="90" xlink:href="#m7297b1f689" y="273.307724"/>
      </g>
     </g>
     <g id="text_8">
      <!-- 1 -->
      <g transform="translate(76.6375 277.106942)scale(0.1 -0.1)">
       <use xlink:href="#DejaVuSans-49"/>
      </g>
     </g>
    </g>
    <g id="ytick_3">
     <g id="line2d_11">
      <path clip-path="url(#p8403dc271a)" d="M 90 231.615447 
L 648 231.615447 
" style="fill:none;stroke:#d3d3d3;stroke-linecap:square;stroke-opacity:0.5;stroke-width:0.8;"/>
     </g>
     <g id="line2d_12">
      <g>
       <use style="stroke:#000000;stroke-width:0.8;" x="90" xlink:href="#m7297b1f689" y="231.615447"/>
      </g>
     </g>
     <g id="text_9">
      <!-- 2 -->
      <g transform="translate(76.6375 235.414666)scale(0.1 -0.1)">
       <use xlink:href="#DejaVuSans-50"/>
      </g>
     </g>
    </g>
    <g id="ytick_4">
     <g id="line2d_13">
      <path clip-path="url(#p8403dc271a)" d="M 90 189.923171 
L 648 189.923171 
" style="fill:none;stroke:#d3d3d3;stroke-linecap:square;stroke-opacity:0.5;stroke-width:0.8;"/>
     </g>
     <g id="line2d_14">
      <g>
       <use style="stroke:#000000;stroke-width:0.8;" x="90" xlink:href="#m7297b1f689" y="189.923171"/>
      </g>
     </g>
     <g id="text_10">
      <!-- 3 -->
      <g transform="translate(76.6375 193.72239)scale(0.1 -0.1)">
       <use xlink:href="#DejaVuSans-51"/>
      </g>
     </g>
    </g>
    <g id="ytick_5">
     <g id="line2d_15">
      <path clip-path="url(#p8403dc271a)" d="M 90 148.230895 
L 648 148.230895 
" style="fill:none;stroke:#d3d3d3;stroke-linecap:square;stroke-opacity:0.5;stroke-width:0.8;"/>
     </g>
     <g id="line2d_16">
      <g>
       <use style="stroke:#000000;stroke-width:0.8;" x="90" xlink:href="#m7297b1f689" y="148.230895"/>
      </g>
     </g>
     <g id="text_11">
      <!-- 4 -->
      <g transform="translate(76.6375 152.030113)scale(0.1 -0.1)">
       <use xlink:href="#DejaVuSans-52"/>
      </g>
     </g>
    </g>
    <g id="ytick_6">
     <g id="line2d_17">
      <path clip-path="url(#p8403dc271a)" d="M 90 106.538618 
L 648 106.538618 
" style="fill:none;stroke:#d3d3d3;stroke-linecap:square;stroke-opacity:0.5;stroke-width:0.8;"/>
     </g>
     <g id="line2d_18">
      <g>
       <use style="stroke:#000000;stroke-width:0.8;" x="90" xlink:href="#m7297b1f689" y="106.538618"/>
      </g>
     </g>
     <g id="text_12">
      <!-- 5 -->
      <g transform="translate(76.6375 110.337837)scale(0.1 -0.1)">
       <use xlink:href="#DejaVuSans-53"/>
      </g>
     </g>
    </g>
    <g id="ytick_7">
     <g id="line2d_19">
      <path clip-path="url(#p8403dc271a)" d="M 90 64.846342 
L 648 64.846342 
" style="fill:none;stroke:#d3d3d3;stroke-linecap:square;stroke-opacity:0.5;stroke-width:0.8;"/>
     </g>
     <g id="line2d_20">
      <g>
       <use style="stroke:#000000;stroke-width:0.8;" x="90" xlink:href="#m7297b1f689" y="64.846342"/>
      </g>
     </g>
     <g id="text_13">
      <!-- 6 -->
      <defs>
       <path d="M 33.015625 40.375 
Q 26.375 40.375 22.484375 35.828125 
Q 18.609375 31.296875 18.609375 23.390625 
Q 18.609375 15.53125 22.484375 10.953125 
Q 26.375 6.390625 33.015625 6.390625 
Q 39.65625 6.390625 43.53125 10.953125 
Q 47.40625 15.53125 47.40625 23.390625 
Q 47.40625 31.296875 43.53125 35.828125 
Q 39.65625 40.375 33.015625 40.375 
z
M 52.59375 71.296875 
L 52.59375 62.3125 
Q 48.875 64.0625 45.09375 64.984375 
Q 41.3125 65.921875 37.59375 65.921875 
Q 27.828125 65.921875 22.671875 59.328125 
Q 17.53125 52.734375 16.796875 39.40625 
Q 19.671875 43.65625 24.015625 45.921875 
Q 28.375 48.1875 33.59375 48.1875 
Q 44.578125 48.1875 50.953125 41.515625 
Q 57.328125 34.859375 57.328125 23.390625 
Q 57.328125 12.15625 50.6875 5.359375 
Q 44.046875 -1.421875 33.015625 -1.421875 
Q 20.359375 -1.421875 13.671875 8.265625 
Q 6.984375 17.96875 6.984375 36.375 
Q 6.984375 53.65625 15.1875 63.9375 
Q 23.390625 74.21875 37.203125 74.21875 
Q 40.921875 74.21875 44.703125 73.484375 
Q 48.484375 72.75 52.59375 71.296875 
z
" id="DejaVuSans-54"/>
      </defs>
      <g transform="translate(76.6375 68.645561)scale(0.1 -0.1)">
       <use xlink:href="#DejaVuSans-54"/>
      </g>
     </g>
    </g>
    <g id="text_14">
     <!-- 1e7 -->
     <defs>
      <path d="M 56.203125 29.59375 
L 56.203125 25.203125 
L 14.890625 25.203125 
Q 15.484375 15.921875 20.484375 11.0625 
Q 25.484375 6.203125 34.421875 6.203125 
Q 39.59375 6.203125 44.453125 7.46875 
Q 49.3125 8.734375 54.109375 11.28125 
L 54.109375 2.78125 
Q 49.265625 0.734375 44.1875 -0.34375 
Q 39.109375 -1.421875 33.890625 -1.421875 
Q 20.796875 -1.421875 13.15625 6.1875 
Q 5.515625 13.8125 5.515625 26.8125 
Q 5.515625 40.234375 12.765625 48.109375 
Q 20.015625 56 32.328125 56 
Q 43.359375 56 49.78125 48.890625 
Q 56.203125 41.796875 56.203125 29.59375 
z
M 47.21875 32.234375 
Q 47.125 39.59375 43.09375 43.984375 
Q 39.0625 48.390625 32.421875 48.390625 
Q 24.90625 48.390625 20.390625 44.140625 
Q 15.875 39.890625 15.1875 32.171875 
z
" id="DejaVuSans-101"/>
      <path d="M 8.203125 72.90625 
L 55.078125 72.90625 
L 55.078125 68.703125 
L 28.609375 0 
L 18.3125 0 
L 43.21875 64.59375 
L 8.203125 64.59375 
z
" id="DejaVuSans-55"/>
     </defs>
     <g transform="translate(90 40.2)scale(0.1 -0.1)">
      <use xlink:href="#DejaVuSans-49"/>
      <use x="63.623047" xlink:href="#DejaVuSans-101"/>
      <use x="125.146484" xlink:href="#DejaVuSans-55"/>
     </g>
    </g>
   </g>
   <g id="patch_3">
    <path clip-path="url(#p8403dc271a)" d="M 115.363636 315 
L 122.906725 315 
L 122.906725 256.026221 
L 115.363636 256.026221 
z
" style="fill:#5c67ad;"/>
   </g>
   <g id="patch_4">
    <path clip-path="url(#p8403dc271a)" d="M 124.792497 315 
L 132.335586 315 
L 132.335586 225.12234 
L 124.792497 225.12234 
z
" style="fill:#5c67ad;"/>
   </g>
   <g id="patch_5">
    <path clip-path="url(#p8403dc271a)" d="M 134.221359 315 
L 141.764447 315 
L 141.764447 104.529425 
L 134.221359 104.529425 
z
" style="fill:#f5d30f;"/>
   </g>
   <g id="patch_6">
    <path clip-path="url(#p8403dc271a)" d="M 143.65022 315 
L 151.193309 315 
L 151.193309 236.161155 
L 143.65022 236.161155 
z
" style="fill:#5c67ad;"/>
   </g>
   <g id="patch_7">
    <path clip-path="url(#p8403dc271a)" d="M 153.079081 315 
L 160.62217 315 
L 160.62217 249.991716 
L 153.079081 249.991716 
z
" style="fill:#5c67ad;"/>
   </g>
   <g id="patch_8">
    <path clip-path="url(#p8403dc271a)" d="M 162.507942 315 
L 170.051031 315 
L 170.051031 210.003505 
L 162.507942 210.003505 
z
" style="fill:#f5d30f;"/>
   </g>
   <g id="patch_9">
    <path clip-path="url(#p8403dc271a)" d="M 171.936803 315 
L 179.479892 315 
L 179.479892 202.63077 
L 171.936803 202.63077 
z
" style="fill:#f5d30f;"/>
   </g>
   <g id="patch_10">
    <path clip-path="url(#p8403dc271a)" d="M 181.365664 315 
L 188.908753 315 
L 188.908753 187.862376 
L 181.365664 187.862376 
z
" style="fill:#f5d30f;"/>
   </g>
   <g id="patch_11">
    <path clip-path="url(#p8403dc271a)" d="M 190.794525 315 
L 198.337614 315 
L 198.337614 204.893028 
L 190.794525 204.893028 
z
" style="fill:#f5d30f;"/>
   </g>
   <g id="patch_12">
    <path clip-path="url(#p8403dc271a)" d="M 200.223386 315 
L 207.766475 315 
L 207.766475 274.917439 
L 200.223386 274.917439 
z
" style="fill:#263387;"/>
   </g>
   <g id="patch_13">
    <path clip-path="url(#p8403dc271a)" d="M 209.652247 315 
L 217.195336 315 
L 217.195336 196.904299 
L 209.652247 196.904299 
z
" style="fill:#f5d30f;"/>
   </g>
   <g id="patch_14">
    <path clip-path="url(#p8403dc271a)" d="M 219.081108 315 
L 226.624197 315 
L 226.624197 270.559294 
L 219.081108 270.559294 
z
" style="fill:#5c67ad;"/>
   </g>
   <g id="patch_15">
    <path clip-path="url(#p8403dc271a)" d="M 228.50997 315 
L 236.053058 315 
L 236.053058 271.127027 
L 228.50997 271.127027 
z
" style="fill:#5c67ad;"/>
   </g>
   <g id="patch_16">
    <path clip-path="url(#p8403dc271a)" d="M 237.938831 315 
L 245.48192 315 
L 245.48192 267.521174 
L 237.938831 267.521174 
z
" style="fill:#5c67ad;"/>
   </g>
   <g id="patch_17">
    <path clip-path="url(#p8403dc271a)" d="M 247.367692 315 
L 254.910781 315 
L 254.910781 267.257049 
L 247.367692 267.257049 
z
" style="fill:#5c67ad;"/>
   </g>
   <g id="patch_18">
    <path clip-path="url(#p8403dc271a)" d="M 256.796553 315 
L 264.339642 315 
L 264.339642 269.195145 
L 256.796553 269.195145 
z
" style="fill:#5c67ad;"/>
   </g>
   <g id="patch_19">
    <path clip-path="url(#p8403dc271a)" d="M 266.225414 315 
L 273.768503 315 
L 273.768503 239.824785 
L 266.225414 239.824785 
z
" style="fill:#5c67ad;"/>
   </g>
   <g id="patch_20">
    <path clip-path="url(#p8403dc271a)" d="M 275.654275 315 
L 283.197364 315 
L 283.197364 259.718644 
L 275.654275 259.718644 
z
" style="fill:#5c67ad;"/>
   </g>
   <g id="patch_21">
    <path clip-path="url(#p8403dc271a)" d="M 285.083136 315 
L 292.626225 315 
L 292.626225 260.593623 
L 285.083136 260.593623 
z
" style="fill:#5c67ad;"/>
   </g>
   <g id="patch_22">
    <path clip-path="url(#p8403dc271a)" d="M 294.511997 315 
L 302.055086 315 
L 302.055086 261.129599 
L 294.511997 261.129599 
z
" style="fill:#5c67ad;"/>
   </g>
   <g id="patch_23">
    <path clip-path="url(#p8403dc271a)" d="M 303.940858 315 
L 311.483947 315 
L 311.483947 276.411689 
L 303.940858 276.411689 
z
" style="fill:#263387;"/>
   </g>
   <g id="patch_24">
    <path clip-path="url(#p8403dc271a)" d="M 313.369719 315 
L 320.912808 315 
L 320.912808 297.947018 
L 313.369719 297.947018 
z
" style="fill:#263387;"/>
   </g>
   <g id="patch_25">
    <path clip-path="url(#p8403dc271a)" d="M 322.798581 315 
L 330.341669 315 
L 330.341669 266.422742 
L 322.798581 266.422742 
z
" style="fill:#5c67ad;"/>
   </g>
   <g id="patch_26">
    <path clip-path="url(#p8403dc271a)" d="M 332.227442 315 
L 339.770531 315 
L 339.770531 215.906912 
L 332.227442 215.906912 
z
" style="fill:#5c67ad;"/>
   </g>
   <g id="patch_27">
    <path clip-path="url(#p8403dc271a)" d="M 341.656303 315 
L 349.199392 315 
L 349.199392 267.38326 
L 341.656303 267.38326 
z
" style="fill:#5c67ad;"/>
   </g>
   <g id="patch_28">
    <path clip-path="url(#p8403dc271a)" d="M 351.085164 315 
L 358.628253 315 
L 358.628253 282.667131 
L 351.085164 282.667131 
z
" style="fill:#263387;"/>
   </g>
   <g id="patch_29">
    <path clip-path="url(#p8403dc271a)" d="M 360.514025 315 
L 368.057114 315 
L 368.057114 235.000771 
L 360.514025 235.000771 
z
" style="fill:#5c67ad;"/>
   </g>
   <g id="patch_30">
    <path clip-path="url(#p8403dc271a)" d="M 369.942886 315 
L 377.485975 315 
L 377.485975 238.356443 
L 369.942886 238.356443 
z
" style="fill:#5c67ad;"/>
   </g>
   <g id="patch_31">
    <path clip-path="url(#p8403dc271a)" d="M 379.371747 315 
L 386.914836 315 
L 386.914836 274.453604 
L 379.371747 274.453604 
z
" style="fill:#263387;"/>
   </g>
   <g id="patch_32">
    <path clip-path="url(#p8403dc271a)" d="M 388.800608 315 
L 396.343697 315 
L 396.343697 284.222454 
L 388.800608 284.222454 
z
" style="fill:#263387;"/>
   </g>
   <g id="patch_33">
    <path clip-path="url(#p8403dc271a)" d="M 398.229469 315 
L 405.772558 315 
L 405.772558 241.009248 
L 398.229469 241.009248 
z
" style="fill:#5c67ad;"/>
   </g>
   <g id="patch_34">
    <path clip-path="url(#p8403dc271a)" d="M 407.658331 315 
L 415.201419 315 
L 415.201419 290.185608 
L 407.658331 290.185608 
z
" style="fill:#263387;"/>
   </g>
   <g id="patch_35">
    <path clip-path="url(#p8403dc271a)" d="M 417.087192 315 
L 424.630281 315 
L 424.630281 255.886601 
L 417.087192 255.886601 
z
" style="fill:#5c67ad;"/>
   </g>
   <g id="patch_36">
    <path clip-path="url(#p8403dc271a)" d="M 426.516053 315 
L 434.059142 315 
L 434.059142 243.744839 
L 426.516053 243.744839 
z
" style="fill:#5c67ad;"/>
   </g>
   <g id="patch_37">
    <path clip-path="url(#p8403dc271a)" d="M 435.944914 315 
L 443.488003 315 
L 443.488003 282.994176 
L 435.944914 282.994176 
z
" style="fill:#263387;"/>
   </g>
   <g id="patch_38">
    <path clip-path="url(#p8403dc271a)" d="M 445.373775 315 
L 452.916864 315 
L 452.916864 251.117297 
L 445.373775 251.117297 
z
" style="fill:#5c67ad;"/>
   </g>
   <g id="patch_39">
    <path clip-path="url(#p8403dc271a)" d="M 454.802636 315 
L 462.345725 315 
L 462.345725 231.737874 
L 454.802636 231.737874 
z
" style="fill:#5c67ad;"/>
   </g>
   <g id="patch_40">
    <path clip-path="url(#p8403dc271a)" d="M 464.231497 315 
L 471.774586 315 
L 471.774586 236.36837 
L 464.231497 236.36837 
z
" style="fill:#5c67ad;"/>
   </g>
   <g id="patch_41">
    <path clip-path="url(#p8403dc271a)" d="M 473.660358 315 
L 481.203447 315 
L 481.203447 230.563999 
L 473.660358 230.563999 
z
" style="fill:#5c67ad;"/>
   </g>
   <g id="patch_42">
    <path clip-path="url(#p8403dc271a)" d="M 483.089219 315 
L 490.632308 315 
L 490.632308 238.3039 
L 483.089219 238.3039 
z
" style="fill:#5c67ad;"/>
   </g>
   <g id="patch_43">
    <path clip-path="url(#p8403dc271a)" d="M 492.51808 315 
L 500.061169 315 
L 500.061169 252.498945 
L 492.51808 252.498945 
z
" style="fill:#5c67ad;"/>
   </g>
   <g id="patch_44">
    <path clip-path="url(#p8403dc271a)" d="M 501.946942 315 
L 509.49003 315 
L 509.49003 277.703057 
L 501.946942 277.703057 
z
" style="fill:#263387;"/>
   </g>
   <g id="patch_45">
    <path clip-path="url(#p8403dc271a)" d="M 511.375803 315 
L 518.918892 315 
L 518.918892 246.659304 
L 511.375803 246.659304 
z
" style="fill:#5c67ad;"/>
   </g>
   <g id="patch_46">
    <path clip-path="url(#p8403dc271a)" d="M 520.804664 315 
L 528.347753 315 
L 528.347753 56.142857 
L 520.804664 56.142857 
z
" style="fill:#f5d30f;"/>
   </g>
   <g id="patch_47">
    <path clip-path="url(#p8403dc271a)" d="M 530.233525 315 
L 537.776614 315 
L 537.776614 87.785389 
L 530.233525 87.785389 
z
" style="fill:#f5d30f;"/>
   </g>
   <g id="patch_48">
    <path clip-path="url(#p8403dc271a)" d="M 539.662386 315 
L 547.205475 315 
L 547.205475 140.32578 
L 539.662386 140.32578 
z
" style="fill:#f5d30f;"/>
   </g>
   <g id="patch_49">
    <path clip-path="url(#p8403dc271a)" d="M 549.091247 315 
L 556.634336 315 
L 556.634336 102.584898 
L 549.091247 102.584898 
z
" style="fill:#f5d30f;"/>
   </g>
   <g id="patch_50">
    <path clip-path="url(#p8403dc271a)" d="M 558.520108 315 
L 566.063197 315 
L 566.063197 165.1866 
L 558.520108 165.1866 
z
" style="fill:#f5d30f;"/>
   </g>
   <g id="patch_51">
    <path clip-path="url(#p8403dc271a)" d="M 567.948969 315 
L 575.492058 315 
L 575.492058 133.971737 
L 567.948969 133.971737 
z
" style="fill:#f5d30f;"/>
   </g>
   <g id="patch_52">
    <path clip-path="url(#p8403dc271a)" d="M 577.37783 315 
L 584.920919 315 
L 584.920919 195.539035 
L 577.37783 195.539035 
z
" style="fill:#f5d30f;"/>
   </g>
   <g id="patch_53">
    <path clip-path="url(#p8403dc271a)" d="M 586.806691 315 
L 594.34978 315 
L 594.34978 177.784508 
L 586.806691 177.784508 
z
" style="fill:#f5d30f;"/>
   </g>
   <g id="patch_54">
    <path clip-path="url(#p8403dc271a)" d="M 596.235553 315 
L 603.778641 315 
L 603.778641 303.759055 
L 596.235553 303.759055 
z
" style="fill:#263387;"/>
   </g>
   <g id="patch_55">
    <path clip-path="url(#p8403dc271a)" d="M 605.664414 315 
L 613.207503 315 
L 613.207503 268.237245 
L 605.664414 268.237245 
z
" style="fill:#5c67ad;"/>
   </g>
   <g id="patch_56">
    <path clip-path="url(#p8403dc271a)" d="M 615.093275 315 
L 622.636364 315 
L 622.636364 268.898836 
L 615.093275 268.898836 
z
" style="fill:#5c67ad;"/>
   </g>
   <g id="patch_57">
    <path d="M 90 315 
L 90 43.2 
" style="fill:none;stroke:#000000;stroke-linecap:square;stroke-linejoin:miter;stroke-width:0.8;"/>
   </g>
   <g id="patch_58">
    <path d="M 90 315 
L 648 315 
" style="fill:none;stroke:#000000;stroke-linecap:square;stroke-linejoin:miter;stroke-width:0.8;"/>
   </g>
  </g>
 </g>
 <defs>
  <clipPath id="p8403dc271a">
   <rect height="271.8" width="558" x="90" y="43.2"/>
  </clipPath>
 </defs>
</svg>
