<?xml version="1.0" encoding="utf-8"?>
<!-- Generator: Adobe Illustrator 26.0.3, SVG Export Plug-In . SVG Version: 6.00 Build 0)  -->
<svg version="1.1" id="Layer_1" xmlns="http://www.w3.org/2000/svg" xmlns:xlink="http://www.w3.org/1999/xlink" x="0px" y="0px"
	 viewBox="0 0 105.1 122.9" style="enable-background:new 0 0 105.1 122.9;" xml:space="preserve">
<style type="text/css">
	.st0{fill-rule:evenodd;clip-rule:evenodd;fill:#5C67AD;}
</style>
<g>
	<path class="st0" d="M52.5,0c28.9,0,52.3,11,52.3,24.5c0,13.5-23.4,24.5-52.3,24.5S0.3,38,0.3,24.5C0.3,11,23.7,0,52.5,0L52.5,0z
		 M0.3,81.8v18.8c9.3,33,101.2,26.7,104.6-1.7V80.2C100.2,111.3,7.6,113.5,0.3,81.8L0.3,81.8L0.3,81.8z M0,32.9v18.3
		c9.3,32.3,101.7,27.9,105.1,0.2V33.2C100.5,63.6,7.3,63.9,0,32.9L0,32.9z M0,56.6v18.8c9.3,33,101.7,28.6,105.1,0.2V56.9
		C100.5,88,7.3,88.3,0,56.6L0,56.6z"/>
</g>
</svg>
