<?xml version="1.0" encoding="utf-8" standalone="no"?>
<!DOCTYPE svg PUBLIC "-//W3C//DTD SVG 1.1//EN"
  "http://www.w3.org/Graphics/SVG/1.1/DTD/svg11.dtd">
<!-- Created with matplotlib (https://matplotlib.org/) -->
<svg height="504pt" version="1.1" viewBox="0 0 504 504" width="504pt" xmlns="http://www.w3.org/2000/svg" xmlns:xlink="http://www.w3.org/1999/xlink">
 <defs>
  <style type="text/css">
*{stroke-linecap:butt;stroke-linejoin:round;}
  </style>
 </defs>
 <g id="figure_1">
  <g id="patch_1">
   <path d="M 0 504 
L 504 504 
L 504 0 
L 0 0 
z
" style="fill:#ffffff;"/>
  </g>
  <g id="axes_1">
   <g id="patch_2">
    <path d="M 63 441 
L 453.6 441 
L 453.6 60.48 
L 63 60.48 
z
" style="fill:#ffffff;"/>
   </g>
   <g id="matplotlib.axis_1">
    <g id="xtick_1">
     <g id="line2d_1">
      <defs>
       <path d="M 0 0 
L 0 3.5 
" id="me143178598" style="stroke:#000000;stroke-width:0.8;"/>
      </defs>
      <g>
       <use style="stroke:#000000;stroke-width:0.8;" x="70.724244" xlink:href="#me143178598" y="441"/>
      </g>
     </g>
     <g id="text_1">
      <!-- 30 -->
      <defs>
       <path d="M 40.578125 39.3125 
Q 47.65625 37.796875 51.625 33 
Q 55.609375 28.21875 55.609375 21.1875 
Q 55.609375 10.40625 48.1875 4.484375 
Q 40.765625 -1.421875 27.09375 -1.421875 
Q 22.515625 -1.421875 17.65625 -0.515625 
Q 12.796875 0.390625 7.625 2.203125 
L 7.625 11.71875 
Q 11.71875 9.328125 16.59375 8.109375 
Q 21.484375 6.890625 26.8125 6.890625 
Q 36.078125 6.890625 40.9375 10.546875 
Q 45.796875 14.203125 45.796875 21.1875 
Q 45.796875 27.640625 41.28125 31.265625 
Q 36.765625 34.90625 28.71875 34.90625 
L 20.21875 34.90625 
L 20.21875 43.015625 
L 29.109375 43.015625 
Q 36.375 43.015625 40.234375 45.921875 
Q 44.09375 48.828125 44.09375 54.296875 
Q 44.09375 59.90625 40.109375 62.90625 
Q 36.140625 65.921875 28.71875 65.921875 
Q 24.65625 65.921875 20.015625 65.03125 
Q 15.375 64.15625 9.8125 62.3125 
L 9.8125 71.09375 
Q 15.4375 72.65625 20.34375 73.4375 
Q 25.25 74.21875 29.59375 74.21875 
Q 40.828125 74.21875 47.359375 69.109375 
Q 53.90625 64.015625 53.90625 55.328125 
Q 53.90625 49.265625 50.4375 45.09375 
Q 46.96875 40.921875 40.578125 39.3125 
z
" id="DejaVuSans-51"/>
       <path d="M 31.78125 66.40625 
Q 24.171875 66.40625 20.328125 58.90625 
Q 16.5 51.421875 16.5 36.375 
Q 16.5 21.390625 20.328125 13.890625 
Q 24.171875 6.390625 31.78125 6.390625 
Q 39.453125 6.390625 43.28125 13.890625 
Q 47.125 21.390625 47.125 36.375 
Q 47.125 51.421875 43.28125 58.90625 
Q 39.453125 66.40625 31.78125 66.40625 
z
M 31.78125 74.21875 
Q 44.046875 74.21875 50.515625 64.515625 
Q 56.984375 54.828125 56.984375 36.375 
Q 56.984375 17.96875 50.515625 8.265625 
Q 44.046875 -1.421875 31.78125 -1.421875 
Q 19.53125 -1.421875 13.0625 8.265625 
Q 6.59375 17.96875 6.59375 36.375 
Q 6.59375 54.828125 13.0625 64.515625 
Q 19.53125 74.21875 31.78125 74.21875 
z
" id="DejaVuSans-48"/>
      </defs>
      <g transform="translate(64.361744 455.598437)scale(0.1 -0.1)">
       <use xlink:href="#DejaVuSans-51"/>
       <use x="63.623047" xlink:href="#DejaVuSans-48"/>
      </g>
     </g>
    </g>
    <g id="xtick_2">
     <g id="line2d_2">
      <g>
       <use style="stroke:#000000;stroke-width:0.8;" x="118.407176" xlink:href="#me143178598" y="441"/>
      </g>
     </g>
     <g id="text_2">
      <!-- 40 -->
      <defs>
       <path d="M 37.796875 64.3125 
L 12.890625 25.390625 
L 37.796875 25.390625 
z
M 35.203125 72.90625 
L 47.609375 72.90625 
L 47.609375 25.390625 
L 58.015625 25.390625 
L 58.015625 17.1875 
L 47.609375 17.1875 
L 47.609375 0 
L 37.796875 0 
L 37.796875 17.1875 
L 4.890625 17.1875 
L 4.890625 26.703125 
z
" id="DejaVuSans-52"/>
      </defs>
      <g transform="translate(112.044676 455.598437)scale(0.1 -0.1)">
       <use xlink:href="#DejaVuSans-52"/>
       <use x="63.623047" xlink:href="#DejaVuSans-48"/>
      </g>
     </g>
    </g>
    <g id="xtick_3">
     <g id="line2d_3">
      <g>
       <use style="stroke:#000000;stroke-width:0.8;" x="166.090107" xlink:href="#me143178598" y="441"/>
      </g>
     </g>
     <g id="text_3">
      <!-- 50 -->
      <defs>
       <path d="M 10.796875 72.90625 
L 49.515625 72.90625 
L 49.515625 64.59375 
L 19.828125 64.59375 
L 19.828125 46.734375 
Q 21.96875 47.46875 24.109375 47.828125 
Q 26.265625 48.1875 28.421875 48.1875 
Q 40.625 48.1875 47.75 41.5 
Q 54.890625 34.8125 54.890625 23.390625 
Q 54.890625 11.625 47.5625 5.09375 
Q 40.234375 -1.421875 26.90625 -1.421875 
Q 22.3125 -1.421875 17.546875 -0.640625 
Q 12.796875 0.140625 7.71875 1.703125 
L 7.71875 11.625 
Q 12.109375 9.234375 16.796875 8.0625 
Q 21.484375 6.890625 26.703125 6.890625 
Q 35.15625 6.890625 40.078125 11.328125 
Q 45.015625 15.765625 45.015625 23.390625 
Q 45.015625 31 40.078125 35.4375 
Q 35.15625 39.890625 26.703125 39.890625 
Q 22.75 39.890625 18.8125 39.015625 
Q 14.890625 38.140625 10.796875 36.28125 
z
" id="DejaVuSans-53"/>
      </defs>
      <g transform="translate(159.727607 455.598437)scale(0.1 -0.1)">
       <use xlink:href="#DejaVuSans-53"/>
       <use x="63.623047" xlink:href="#DejaVuSans-48"/>
      </g>
     </g>
    </g>
    <g id="xtick_4">
     <g id="line2d_4">
      <g>
       <use style="stroke:#000000;stroke-width:0.8;" x="213.773038" xlink:href="#me143178598" y="441"/>
      </g>
     </g>
     <g id="text_4">
      <!-- 60 -->
      <defs>
       <path d="M 33.015625 40.375 
Q 26.375 40.375 22.484375 35.828125 
Q 18.609375 31.296875 18.609375 23.390625 
Q 18.609375 15.53125 22.484375 10.953125 
Q 26.375 6.390625 33.015625 6.390625 
Q 39.65625 6.390625 43.53125 10.953125 
Q 47.40625 15.53125 47.40625 23.390625 
Q 47.40625 31.296875 43.53125 35.828125 
Q 39.65625 40.375 33.015625 40.375 
z
M 52.59375 71.296875 
L 52.59375 62.3125 
Q 48.875 64.0625 45.09375 64.984375 
Q 41.3125 65.921875 37.59375 65.921875 
Q 27.828125 65.921875 22.671875 59.328125 
Q 17.53125 52.734375 16.796875 39.40625 
Q 19.671875 43.65625 24.015625 45.921875 
Q 28.375 48.1875 33.59375 48.1875 
Q 44.578125 48.1875 50.953125 41.515625 
Q 57.328125 34.859375 57.328125 23.390625 
Q 57.328125 12.15625 50.6875 5.359375 
Q 44.046875 -1.421875 33.015625 -1.421875 
Q 20.359375 -1.421875 13.671875 8.265625 
Q 6.984375 17.96875 6.984375 36.375 
Q 6.984375 53.65625 15.1875 63.9375 
Q 23.390625 74.21875 37.203125 74.21875 
Q 40.921875 74.21875 44.703125 73.484375 
Q 48.484375 72.75 52.59375 71.296875 
z
" id="DejaVuSans-54"/>
      </defs>
      <g transform="translate(207.410538 455.598437)scale(0.1 -0.1)">
       <use xlink:href="#DejaVuSans-54"/>
       <use x="63.623047" xlink:href="#DejaVuSans-48"/>
      </g>
     </g>
    </g>
    <g id="xtick_5">
     <g id="line2d_5">
      <g>
       <use style="stroke:#000000;stroke-width:0.8;" x="261.45597" xlink:href="#me143178598" y="441"/>
      </g>
     </g>
     <g id="text_5">
      <!-- 70 -->
      <defs>
       <path d="M 8.203125 72.90625 
L 55.078125 72.90625 
L 55.078125 68.703125 
L 28.609375 0 
L 18.3125 0 
L 43.21875 64.59375 
L 8.203125 64.59375 
z
" id="DejaVuSans-55"/>
      </defs>
      <g transform="translate(255.09347 455.598437)scale(0.1 -0.1)">
       <use xlink:href="#DejaVuSans-55"/>
       <use x="63.623047" xlink:href="#DejaVuSans-48"/>
      </g>
     </g>
    </g>
    <g id="xtick_6">
     <g id="line2d_6">
      <g>
       <use style="stroke:#000000;stroke-width:0.8;" x="309.138901" xlink:href="#me143178598" y="441"/>
      </g>
     </g>
     <g id="text_6">
      <!-- 80 -->
      <defs>
       <path d="M 31.78125 34.625 
Q 24.75 34.625 20.71875 30.859375 
Q 16.703125 27.09375 16.703125 20.515625 
Q 16.703125 13.921875 20.71875 10.15625 
Q 24.75 6.390625 31.78125 6.390625 
Q 38.8125 6.390625 42.859375 10.171875 
Q 46.921875 13.96875 46.921875 20.515625 
Q 46.921875 27.09375 42.890625 30.859375 
Q 38.875 34.625 31.78125 34.625 
z
M 21.921875 38.8125 
Q 15.578125 40.375 12.03125 44.71875 
Q 8.5 49.078125 8.5 55.328125 
Q 8.5 64.0625 14.71875 69.140625 
Q 20.953125 74.21875 31.78125 74.21875 
Q 42.671875 74.21875 48.875 69.140625 
Q 55.078125 64.0625 55.078125 55.328125 
Q 55.078125 49.078125 51.53125 44.71875 
Q 48 40.375 41.703125 38.8125 
Q 48.828125 37.15625 52.796875 32.3125 
Q 56.78125 27.484375 56.78125 20.515625 
Q 56.78125 9.90625 50.3125 4.234375 
Q 43.84375 -1.421875 31.78125 -1.421875 
Q 19.734375 -1.421875 13.25 4.234375 
Q 6.78125 9.90625 6.78125 20.515625 
Q 6.78125 27.484375 10.78125 32.3125 
Q 14.796875 37.15625 21.921875 38.8125 
z
M 18.3125 54.390625 
Q 18.3125 48.734375 21.84375 45.5625 
Q 25.390625 42.390625 31.78125 42.390625 
Q 38.140625 42.390625 41.71875 45.5625 
Q 45.3125 48.734375 45.3125 54.390625 
Q 45.3125 60.0625 41.71875 63.234375 
Q 38.140625 66.40625 31.78125 66.40625 
Q 25.390625 66.40625 21.84375 63.234375 
Q 18.3125 60.0625 18.3125 54.390625 
z
" id="DejaVuSans-56"/>
      </defs>
      <g transform="translate(302.776401 455.598437)scale(0.1 -0.1)">
       <use xlink:href="#DejaVuSans-56"/>
       <use x="63.623047" xlink:href="#DejaVuSans-48"/>
      </g>
     </g>
    </g>
    <g id="xtick_7">
     <g id="line2d_7">
      <g>
       <use style="stroke:#000000;stroke-width:0.8;" x="356.821833" xlink:href="#me143178598" y="441"/>
      </g>
     </g>
     <g id="text_7">
      <!-- 90 -->
      <defs>
       <path d="M 10.984375 1.515625 
L 10.984375 10.5 
Q 14.703125 8.734375 18.5 7.8125 
Q 22.3125 6.890625 25.984375 6.890625 
Q 35.75 6.890625 40.890625 13.453125 
Q 46.046875 20.015625 46.78125 33.40625 
Q 43.953125 29.203125 39.59375 26.953125 
Q 35.25 24.703125 29.984375 24.703125 
Q 19.046875 24.703125 12.671875 31.3125 
Q 6.296875 37.9375 6.296875 49.421875 
Q 6.296875 60.640625 12.9375 67.421875 
Q 19.578125 74.21875 30.609375 74.21875 
Q 43.265625 74.21875 49.921875 64.515625 
Q 56.59375 54.828125 56.59375 36.375 
Q 56.59375 19.140625 48.40625 8.859375 
Q 40.234375 -1.421875 26.421875 -1.421875 
Q 22.703125 -1.421875 18.890625 -0.6875 
Q 15.09375 0.046875 10.984375 1.515625 
z
M 30.609375 32.421875 
Q 37.25 32.421875 41.125 36.953125 
Q 45.015625 41.5 45.015625 49.421875 
Q 45.015625 57.28125 41.125 61.84375 
Q 37.25 66.40625 30.609375 66.40625 
Q 23.96875 66.40625 20.09375 61.84375 
Q 16.21875 57.28125 16.21875 49.421875 
Q 16.21875 41.5 20.09375 36.953125 
Q 23.96875 32.421875 30.609375 32.421875 
z
" id="DejaVuSans-57"/>
      </defs>
      <g transform="translate(350.459333 455.598437)scale(0.1 -0.1)">
       <use xlink:href="#DejaVuSans-57"/>
       <use x="63.623047" xlink:href="#DejaVuSans-48"/>
      </g>
     </g>
    </g>
    <g id="xtick_8">
     <g id="line2d_8">
      <g>
       <use style="stroke:#000000;stroke-width:0.8;" x="404.504764" xlink:href="#me143178598" y="441"/>
      </g>
     </g>
     <g id="text_8">
      <!-- 100 -->
      <defs>
       <path d="M 12.40625 8.296875 
L 28.515625 8.296875 
L 28.515625 63.921875 
L 10.984375 60.40625 
L 10.984375 69.390625 
L 28.421875 72.90625 
L 38.28125 72.90625 
L 38.28125 8.296875 
L 54.390625 8.296875 
L 54.390625 0 
L 12.40625 0 
z
" id="DejaVuSans-49"/>
      </defs>
      <g transform="translate(394.961014 455.598437)scale(0.1 -0.1)">
       <use xlink:href="#DejaVuSans-49"/>
       <use x="63.623047" xlink:href="#DejaVuSans-48"/>
       <use x="127.246094" xlink:href="#DejaVuSans-48"/>
      </g>
     </g>
    </g>
    <g id="xtick_9">
     <g id="line2d_9">
      <g>
       <use style="stroke:#000000;stroke-width:0.8;" x="452.187696" xlink:href="#me143178598" y="441"/>
      </g>
     </g>
     <g id="text_9">
      <!-- 110 -->
      <g transform="translate(442.643946 455.598437)scale(0.1 -0.1)">
       <use xlink:href="#DejaVuSans-49"/>
       <use x="63.623047" xlink:href="#DejaVuSans-49"/>
       <use x="127.246094" xlink:href="#DejaVuSans-48"/>
      </g>
     </g>
    </g>
    <g id="text_10">
     <!-- dcoilwtico -->
     <defs>
      <path d="M 45.40625 46.390625 
L 45.40625 75.984375 
L 54.390625 75.984375 
L 54.390625 0 
L 45.40625 0 
L 45.40625 8.203125 
Q 42.578125 3.328125 38.25 0.953125 
Q 33.9375 -1.421875 27.875 -1.421875 
Q 17.96875 -1.421875 11.734375 6.484375 
Q 5.515625 14.40625 5.515625 27.296875 
Q 5.515625 40.1875 11.734375 48.09375 
Q 17.96875 56 27.875 56 
Q 33.9375 56 38.25 53.625 
Q 42.578125 51.265625 45.40625 46.390625 
z
M 14.796875 27.296875 
Q 14.796875 17.390625 18.875 11.75 
Q 22.953125 6.109375 30.078125 6.109375 
Q 37.203125 6.109375 41.296875 11.75 
Q 45.40625 17.390625 45.40625 27.296875 
Q 45.40625 37.203125 41.296875 42.84375 
Q 37.203125 48.484375 30.078125 48.484375 
Q 22.953125 48.484375 18.875 42.84375 
Q 14.796875 37.203125 14.796875 27.296875 
z
" id="DejaVuSans-100"/>
      <path d="M 48.78125 52.59375 
L 48.78125 44.1875 
Q 44.96875 46.296875 41.140625 47.34375 
Q 37.3125 48.390625 33.40625 48.390625 
Q 24.65625 48.390625 19.8125 42.84375 
Q 14.984375 37.3125 14.984375 27.296875 
Q 14.984375 17.28125 19.8125 11.734375 
Q 24.65625 6.203125 33.40625 6.203125 
Q 37.3125 6.203125 41.140625 7.25 
Q 44.96875 8.296875 48.78125 10.40625 
L 48.78125 2.09375 
Q 45.015625 0.34375 40.984375 -0.53125 
Q 36.96875 -1.421875 32.421875 -1.421875 
Q 20.0625 -1.421875 12.78125 6.34375 
Q 5.515625 14.109375 5.515625 27.296875 
Q 5.515625 40.671875 12.859375 48.328125 
Q 20.21875 56 33.015625 56 
Q 37.15625 56 41.109375 55.140625 
Q 45.0625 54.296875 48.78125 52.59375 
z
" id="DejaVuSans-99"/>
      <path d="M 30.609375 48.390625 
Q 23.390625 48.390625 19.1875 42.75 
Q 14.984375 37.109375 14.984375 27.296875 
Q 14.984375 17.484375 19.15625 11.84375 
Q 23.34375 6.203125 30.609375 6.203125 
Q 37.796875 6.203125 41.984375 11.859375 
Q 46.1875 17.53125 46.1875 27.296875 
Q 46.1875 37.015625 41.984375 42.703125 
Q 37.796875 48.390625 30.609375 48.390625 
z
M 30.609375 56 
Q 42.328125 56 49.015625 48.375 
Q 55.71875 40.765625 55.71875 27.296875 
Q 55.71875 13.875 49.015625 6.21875 
Q 42.328125 -1.421875 30.609375 -1.421875 
Q 18.84375 -1.421875 12.171875 6.21875 
Q 5.515625 13.875 5.515625 27.296875 
Q 5.515625 40.765625 12.171875 48.375 
Q 18.84375 56 30.609375 56 
z
" id="DejaVuSans-111"/>
      <path d="M 9.421875 54.6875 
L 18.40625 54.6875 
L 18.40625 0 
L 9.421875 0 
z
M 9.421875 75.984375 
L 18.40625 75.984375 
L 18.40625 64.59375 
L 9.421875 64.59375 
z
" id="DejaVuSans-105"/>
      <path d="M 9.421875 75.984375 
L 18.40625 75.984375 
L 18.40625 0 
L 9.421875 0 
z
" id="DejaVuSans-108"/>
      <path d="M 4.203125 54.6875 
L 13.1875 54.6875 
L 24.421875 12.015625 
L 35.59375 54.6875 
L 46.1875 54.6875 
L 57.421875 12.015625 
L 68.609375 54.6875 
L 77.59375 54.6875 
L 63.28125 0 
L 52.6875 0 
L 40.921875 44.828125 
L 29.109375 0 
L 18.5 0 
z
" id="DejaVuSans-119"/>
      <path d="M 18.3125 70.21875 
L 18.3125 54.6875 
L 36.8125 54.6875 
L 36.8125 47.703125 
L 18.3125 47.703125 
L 18.3125 18.015625 
Q 18.3125 11.328125 20.140625 9.421875 
Q 21.96875 7.515625 27.59375 7.515625 
L 36.8125 7.515625 
L 36.8125 0 
L 27.59375 0 
Q 17.1875 0 13.234375 3.875 
Q 9.28125 7.765625 9.28125 18.015625 
L 9.28125 47.703125 
L 2.6875 47.703125 
L 2.6875 54.6875 
L 9.28125 54.6875 
L 9.28125 70.21875 
z
" id="DejaVuSans-116"/>
     </defs>
     <g transform="translate(233.292188 469.276563)scale(0.1 -0.1)">
      <use xlink:href="#DejaVuSans-100"/>
      <use x="63.476562" xlink:href="#DejaVuSans-99"/>
      <use x="118.457031" xlink:href="#DejaVuSans-111"/>
      <use x="179.638672" xlink:href="#DejaVuSans-105"/>
      <use x="207.421875" xlink:href="#DejaVuSans-108"/>
      <use x="235.205078" xlink:href="#DejaVuSans-119"/>
      <use x="316.992188" xlink:href="#DejaVuSans-116"/>
      <use x="356.201172" xlink:href="#DejaVuSans-105"/>
      <use x="383.984375" xlink:href="#DejaVuSans-99"/>
      <use x="438.964844" xlink:href="#DejaVuSans-111"/>
     </g>
    </g>
   </g>
   <g id="matplotlib.axis_2">
    <g id="ytick_1">
     <g id="line2d_10">
      <path clip-path="url(#p38fe7620a6)" d="M 63 411.42149 
L 453.6 411.42149 
" style="fill:none;stroke:#d3d3d3;stroke-linecap:square;stroke-opacity:0.5;stroke-width:0.8;"/>
     </g>
     <g id="line2d_11">
      <defs>
       <path d="M 0 0 
L -3.5 0 
" id="m3e0dfb5f93" style="stroke:#000000;stroke-width:0.8;"/>
      </defs>
      <g>
       <use style="stroke:#000000;stroke-width:0.8;" x="63" xlink:href="#m3e0dfb5f93" y="411.42149"/>
      </g>
     </g>
     <g id="text_11">
      <!-- 200 -->
      <defs>
       <path d="M 19.1875 8.296875 
L 53.609375 8.296875 
L 53.609375 0 
L 7.328125 0 
L 7.328125 8.296875 
Q 12.9375 14.109375 22.625 23.890625 
Q 32.328125 33.6875 34.8125 36.53125 
Q 39.546875 41.84375 41.421875 45.53125 
Q 43.3125 49.21875 43.3125 52.78125 
Q 43.3125 58.59375 39.234375 62.25 
Q 35.15625 65.921875 28.609375 65.921875 
Q 23.96875 65.921875 18.8125 64.3125 
Q 13.671875 62.703125 7.8125 59.421875 
L 7.8125 69.390625 
Q 13.765625 71.78125 18.9375 73 
Q 24.125 74.21875 28.421875 74.21875 
Q 39.75 74.21875 46.484375 68.546875 
Q 53.21875 62.890625 53.21875 53.421875 
Q 53.21875 48.921875 51.53125 44.890625 
Q 49.859375 40.875 45.40625 35.40625 
Q 44.1875 33.984375 37.640625 27.21875 
Q 31.109375 20.453125 19.1875 8.296875 
z
" id="DejaVuSans-50"/>
      </defs>
      <g transform="translate(36.9125 415.220709)scale(0.1 -0.1)">
       <use xlink:href="#DejaVuSans-50"/>
       <use x="63.623047" xlink:href="#DejaVuSans-48"/>
       <use x="127.246094" xlink:href="#DejaVuSans-48"/>
      </g>
     </g>
    </g>
    <g id="ytick_2">
     <g id="line2d_12">
      <path clip-path="url(#p38fe7620a6)" d="M 63 364.354787 
L 453.6 364.354787 
" style="fill:none;stroke:#d3d3d3;stroke-linecap:square;stroke-opacity:0.5;stroke-width:0.8;"/>
     </g>
     <g id="line2d_13">
      <g>
       <use style="stroke:#000000;stroke-width:0.8;" x="63" xlink:href="#m3e0dfb5f93" y="364.354787"/>
      </g>
     </g>
     <g id="text_12">
      <!-- 250 -->
      <g transform="translate(36.9125 368.154006)scale(0.1 -0.1)">
       <use xlink:href="#DejaVuSans-50"/>
       <use x="63.623047" xlink:href="#DejaVuSans-53"/>
       <use x="127.246094" xlink:href="#DejaVuSans-48"/>
      </g>
     </g>
    </g>
    <g id="ytick_3">
     <g id="line2d_14">
      <path clip-path="url(#p38fe7620a6)" d="M 63 317.288084 
L 453.6 317.288084 
" style="fill:none;stroke:#d3d3d3;stroke-linecap:square;stroke-opacity:0.5;stroke-width:0.8;"/>
     </g>
     <g id="line2d_15">
      <g>
       <use style="stroke:#000000;stroke-width:0.8;" x="63" xlink:href="#m3e0dfb5f93" y="317.288084"/>
      </g>
     </g>
     <g id="text_13">
      <!-- 300 -->
      <g transform="translate(36.9125 321.087303)scale(0.1 -0.1)">
       <use xlink:href="#DejaVuSans-51"/>
       <use x="63.623047" xlink:href="#DejaVuSans-48"/>
       <use x="127.246094" xlink:href="#DejaVuSans-48"/>
      </g>
     </g>
    </g>
    <g id="ytick_4">
     <g id="line2d_16">
      <path clip-path="url(#p38fe7620a6)" d="M 63 270.221381 
L 453.6 270.221381 
" style="fill:none;stroke:#d3d3d3;stroke-linecap:square;stroke-opacity:0.5;stroke-width:0.8;"/>
     </g>
     <g id="line2d_17">
      <g>
       <use style="stroke:#000000;stroke-width:0.8;" x="63" xlink:href="#m3e0dfb5f93" y="270.221381"/>
      </g>
     </g>
     <g id="text_14">
      <!-- 350 -->
      <g transform="translate(36.9125 274.0206)scale(0.1 -0.1)">
       <use xlink:href="#DejaVuSans-51"/>
       <use x="63.623047" xlink:href="#DejaVuSans-53"/>
       <use x="127.246094" xlink:href="#DejaVuSans-48"/>
      </g>
     </g>
    </g>
    <g id="ytick_5">
     <g id="line2d_18">
      <path clip-path="url(#p38fe7620a6)" d="M 63 223.154678 
L 453.6 223.154678 
" style="fill:none;stroke:#d3d3d3;stroke-linecap:square;stroke-opacity:0.5;stroke-width:0.8;"/>
     </g>
     <g id="line2d_19">
      <g>
       <use style="stroke:#000000;stroke-width:0.8;" x="63" xlink:href="#m3e0dfb5f93" y="223.154678"/>
      </g>
     </g>
     <g id="text_15">
      <!-- 400 -->
      <g transform="translate(36.9125 226.953897)scale(0.1 -0.1)">
       <use xlink:href="#DejaVuSans-52"/>
       <use x="63.623047" xlink:href="#DejaVuSans-48"/>
       <use x="127.246094" xlink:href="#DejaVuSans-48"/>
      </g>
     </g>
    </g>
    <g id="ytick_6">
     <g id="line2d_20">
      <path clip-path="url(#p38fe7620a6)" d="M 63 176.087975 
L 453.6 176.087975 
" style="fill:none;stroke:#d3d3d3;stroke-linecap:square;stroke-opacity:0.5;stroke-width:0.8;"/>
     </g>
     <g id="line2d_21">
      <g>
       <use style="stroke:#000000;stroke-width:0.8;" x="63" xlink:href="#m3e0dfb5f93" y="176.087975"/>
      </g>
     </g>
     <g id="text_16">
      <!-- 450 -->
      <g transform="translate(36.9125 179.887194)scale(0.1 -0.1)">
       <use xlink:href="#DejaVuSans-52"/>
       <use x="63.623047" xlink:href="#DejaVuSans-53"/>
       <use x="127.246094" xlink:href="#DejaVuSans-48"/>
      </g>
     </g>
    </g>
    <g id="ytick_7">
     <g id="line2d_22">
      <path clip-path="url(#p38fe7620a6)" d="M 63 129.021272 
L 453.6 129.021272 
" style="fill:none;stroke:#d3d3d3;stroke-linecap:square;stroke-opacity:0.5;stroke-width:0.8;"/>
     </g>
     <g id="line2d_23">
      <g>
       <use style="stroke:#000000;stroke-width:0.8;" x="63" xlink:href="#m3e0dfb5f93" y="129.021272"/>
      </g>
     </g>
     <g id="text_17">
      <!-- 500 -->
      <g transform="translate(36.9125 132.820491)scale(0.1 -0.1)">
       <use xlink:href="#DejaVuSans-53"/>
       <use x="63.623047" xlink:href="#DejaVuSans-48"/>
       <use x="127.246094" xlink:href="#DejaVuSans-48"/>
      </g>
     </g>
    </g>
    <g id="ytick_8">
     <g id="line2d_24">
      <path clip-path="url(#p38fe7620a6)" d="M 63 81.954569 
L 453.6 81.954569 
" style="fill:none;stroke:#d3d3d3;stroke-linecap:square;stroke-opacity:0.5;stroke-width:0.8;"/>
     </g>
     <g id="line2d_25">
      <g>
       <use style="stroke:#000000;stroke-width:0.8;" x="63" xlink:href="#m3e0dfb5f93" y="81.954569"/>
      </g>
     </g>
     <g id="text_18">
      <!-- 550 -->
      <g transform="translate(36.9125 85.753788)scale(0.1 -0.1)">
       <use xlink:href="#DejaVuSans-53"/>
       <use x="63.623047" xlink:href="#DejaVuSans-53"/>
       <use x="127.246094" xlink:href="#DejaVuSans-48"/>
      </g>
     </g>
    </g>
    <g id="text_19">
     <!-- sales -->
     <defs>
      <path d="M 44.28125 53.078125 
L 44.28125 44.578125 
Q 40.484375 46.53125 36.375 47.5 
Q 32.28125 48.484375 27.875 48.484375 
Q 21.1875 48.484375 17.84375 46.4375 
Q 14.5 44.390625 14.5 40.28125 
Q 14.5 37.15625 16.890625 35.375 
Q 19.28125 33.59375 26.515625 31.984375 
L 29.59375 31.296875 
Q 39.15625 29.25 43.1875 25.515625 
Q 47.21875 21.78125 47.21875 15.09375 
Q 47.21875 7.46875 41.1875 3.015625 
Q 35.15625 -1.421875 24.609375 -1.421875 
Q 20.21875 -1.421875 15.453125 -0.5625 
Q 10.6875 0.296875 5.421875 2 
L 5.421875 11.28125 
Q 10.40625 8.6875 15.234375 7.390625 
Q 20.0625 6.109375 24.8125 6.109375 
Q 31.15625 6.109375 34.5625 8.28125 
Q 37.984375 10.453125 37.984375 14.40625 
Q 37.984375 18.0625 35.515625 20.015625 
Q 33.0625 21.96875 24.703125 23.78125 
L 21.578125 24.515625 
Q 13.234375 26.265625 9.515625 29.90625 
Q 5.8125 33.546875 5.8125 39.890625 
Q 5.8125 47.609375 11.28125 51.796875 
Q 16.75 56 26.8125 56 
Q 31.78125 56 36.171875 55.265625 
Q 40.578125 54.546875 44.28125 53.078125 
z
" id="DejaVuSans-115"/>
      <path d="M 34.28125 27.484375 
Q 23.390625 27.484375 19.1875 25 
Q 14.984375 22.515625 14.984375 16.5 
Q 14.984375 11.71875 18.140625 8.90625 
Q 21.296875 6.109375 26.703125 6.109375 
Q 34.1875 6.109375 38.703125 11.40625 
Q 43.21875 16.703125 43.21875 25.484375 
L 43.21875 27.484375 
z
M 52.203125 31.203125 
L 52.203125 0 
L 43.21875 0 
L 43.21875 8.296875 
Q 40.140625 3.328125 35.546875 0.953125 
Q 30.953125 -1.421875 24.3125 -1.421875 
Q 15.921875 -1.421875 10.953125 3.296875 
Q 6 8.015625 6 15.921875 
Q 6 25.140625 12.171875 29.828125 
Q 18.359375 34.515625 30.609375 34.515625 
L 43.21875 34.515625 
L 43.21875 35.40625 
Q 43.21875 41.609375 39.140625 45 
Q 35.0625 48.390625 27.6875 48.390625 
Q 23 48.390625 18.546875 47.265625 
Q 14.109375 46.140625 10.015625 43.890625 
L 10.015625 52.203125 
Q 14.9375 54.109375 19.578125 55.046875 
Q 24.21875 56 28.609375 56 
Q 40.484375 56 46.34375 49.84375 
Q 52.203125 43.703125 52.203125 31.203125 
z
" id="DejaVuSans-97"/>
      <path d="M 56.203125 29.59375 
L 56.203125 25.203125 
L 14.890625 25.203125 
Q 15.484375 15.921875 20.484375 11.0625 
Q 25.484375 6.203125 34.421875 6.203125 
Q 39.59375 6.203125 44.453125 7.46875 
Q 49.3125 8.734375 54.109375 11.28125 
L 54.109375 2.78125 
Q 49.265625 0.734375 44.1875 -0.34375 
Q 39.109375 -1.421875 33.890625 -1.421875 
Q 20.796875 -1.421875 13.15625 6.1875 
Q 5.515625 13.8125 5.515625 26.8125 
Q 5.515625 40.234375 12.765625 48.109375 
Q 20.015625 56 32.328125 56 
Q 43.359375 56 49.78125 48.890625 
Q 56.203125 41.796875 56.203125 29.59375 
z
M 47.21875 32.234375 
Q 47.125 39.59375 43.09375 43.984375 
Q 39.0625 48.390625 32.421875 48.390625 
Q 24.90625 48.390625 20.390625 44.140625 
Q 15.875 39.890625 15.1875 32.171875 
z
" id="DejaVuSans-101"/>
     </defs>
     <g transform="translate(30.832812 263.479062)rotate(-90)scale(0.1 -0.1)">
      <use xlink:href="#DejaVuSans-115"/>
      <use x="52.099609" xlink:href="#DejaVuSans-97"/>
      <use x="113.378906" xlink:href="#DejaVuSans-108"/>
      <use x="141.162109" xlink:href="#DejaVuSans-101"/>
      <use x="202.685547" xlink:href="#DejaVuSans-115"/>
     </g>
    </g>
   </g>
   <g id="PathCollection_1">
    <defs>
     <path d="M 0 10 
C 2.652031 10 5.195799 8.946337 7.071068 7.071068 
C 8.946337 5.195799 10 2.652031 10 0 
C 10 -2.652031 8.946337 -5.195799 7.071068 -7.071068 
C 5.195799 -8.946337 2.652031 -10 0 -10 
C -2.652031 -10 -5.195799 -8.946337 -7.071068 -7.071068 
C -8.946337 -5.195799 -10 -2.652031 -10 0 
C -10 2.652031 -8.946337 5.195799 -7.071068 7.071068 
C -5.195799 8.946337 -2.652031 10 0 10 
z
" id="mf025204bc2" style="stroke:#5c67ad;"/>
    </defs>
    <g clip-path="url(#p38fe7620a6)">
     <use style="fill:#5c67ad;stroke:#5c67ad;" x="368.290351" xlink:href="#mf025204bc2" y="423.703636"/>
     <use style="fill:#5c67ad;stroke:#5c67ad;" x="375.557497" xlink:href="#mf025204bc2" y="417.463118"/>
     <use style="fill:#5c67ad;stroke:#5c67ad;" x="365.10603" xlink:href="#mf025204bc2" y="404.944566"/>
     <use style="fill:#5c67ad;stroke:#5c67ad;" x="366.460287" xlink:href="#mf025204bc2" y="406.113241"/>
     <use style="fill:#5c67ad;stroke:#5c67ad;" x="372.769569" xlink:href="#mf025204bc2" y="402.061247"/>
     <use style="fill:#5c67ad;stroke:#5c67ad;" x="384.346805" xlink:href="#mf025204bc2" y="393.860063"/>
     <use style="fill:#5c67ad;stroke:#5c67ad;" x="419.115305" xlink:href="#mf025204bc2" y="407.860081"/>
     <use style="fill:#5c67ad;stroke:#5c67ad;" x="435.845455" xlink:href="#mf025204bc2" y="399.674174"/>
     <use style="fill:#5c67ad;stroke:#5c67ad;" x="425.736013" xlink:href="#mf025204bc2" y="392.036044"/>
     <use style="fill:#5c67ad;stroke:#5c67ad;" x="407.07135" xlink:href="#mf025204bc2" y="399.029519"/>
     <use style="fill:#5c67ad;stroke:#5c67ad;" x="369.30894" xlink:href="#mf025204bc2" y="382.111607"/>
     <use style="fill:#5c67ad;stroke:#5c67ad;" x="386.698303" xlink:href="#mf025204bc2" y="321.423947"/>
     <use style="fill:#5c67ad;stroke:#5c67ad;" x="367.682912" xlink:href="#mf025204bc2" y="277.430391"/>
     <use style="fill:#5c67ad;stroke:#5c67ad;" x="400.509975" xlink:href="#mf025204bc2" y="372.573677"/>
     <use style="fill:#5c67ad;stroke:#5c67ad;" x="408.337564" xlink:href="#mf025204bc2" y="252.654924"/>
     <use style="fill:#5c67ad;stroke:#5c67ad;" x="406.924536" xlink:href="#mf025204bc2" y="373.224897"/>
     <use style="fill:#5c67ad;stroke:#5c67ad;" x="407.416537" xlink:href="#mf025204bc2" y="371.694248"/>
     <use style="fill:#5c67ad;stroke:#5c67ad;" x="432.133617" xlink:href="#mf025204bc2" y="365.147893"/>
     <use style="fill:#5c67ad;stroke:#5c67ad;" x="414.179085" xlink:href="#mf025204bc2" y="268.73563"/>
     <use style="fill:#5c67ad;stroke:#5c67ad;" x="387.988305" xlink:href="#mf025204bc2" y="363.082287"/>
     <use style="fill:#5c67ad;stroke:#5c67ad;" x="366.610784" xlink:href="#mf025204bc2" y="247.129712"/>
     <use style="fill:#5c67ad;stroke:#5c67ad;" x="330.104879" xlink:href="#mf025204bc2" y="252.134904"/>
     <use style="fill:#5c67ad;stroke:#5c67ad;" x="287.136654" xlink:href="#mf025204bc2" y="238.163283"/>
     <use style="fill:#5c67ad;stroke:#5c67ad;" x="212.136139" xlink:href="#mf025204bc2" y="171.096856"/>
     <use style="fill:#5c67ad;stroke:#5c67ad;" x="161.71384" xlink:href="#mf025204bc2" y="345.841951"/>
     <use style="fill:#5c67ad;stroke:#5c67ad;" x="172.959874" xlink:href="#mf025204bc2" y="340.42533"/>
     <use style="fill:#5c67ad;stroke:#5c67ad;" x="155.712567" xlink:href="#mf025204bc2" y="333.885099"/>
     <use style="fill:#5c67ad;stroke:#5c67ad;" x="190.196943" xlink:href="#mf025204bc2" y="336.356558"/>
     <use style="fill:#5c67ad;stroke:#5c67ad;" x="212.186869" xlink:href="#mf025204bc2" y="297.559496"/>
     <use style="fill:#5c67ad;stroke:#5c67ad;" x="212.912578" xlink:href="#mf025204bc2" y="219.08084"/>
     <use style="fill:#5c67ad;stroke:#5c67ad;" x="173.871623" xlink:href="#mf025204bc2" y="221.232221"/>
     <use style="fill:#5c67ad;stroke:#5c67ad;" x="132.080824" xlink:href="#mf025204bc2" y="208.382978"/>
     <use style="fill:#5c67ad;stroke:#5c67ad;" x="149.354344" xlink:href="#mf025204bc2" y="190.458331"/>
     <use style="fill:#5c67ad;stroke:#5c67ad;" x="148.083298" xlink:href="#mf025204bc2" y="192.798135"/>
     <use style="fill:#5c67ad;stroke:#5c67ad;" x="135.796543" xlink:href="#mf025204bc2" y="198.134256"/>
     <use style="fill:#5c67ad;stroke:#5c67ad;" x="111.330275" xlink:href="#mf025204bc2" y="119.970983"/>
     <use style="fill:#5c67ad;stroke:#5c67ad;" x="95.11264" xlink:href="#mf025204bc2" y="191.102002"/>
     <use style="fill:#5c67ad;stroke:#5c67ad;" x="80.754545" xlink:href="#mf025204bc2" y="199.908059"/>
     <use style="fill:#5c67ad;stroke:#5c67ad;" x="112.961861" xlink:href="#mf025204bc2" y="205.51841"/>
     <use style="fill:#5c67ad;stroke:#5c67ad;" x="122.008372" xlink:href="#mf025204bc2" y="142.526315"/>
     <use style="fill:#5c67ad;stroke:#5c67ad;" x="154.965758" xlink:href="#mf025204bc2" y="177.442121"/>
     <use style="fill:#5c67ad;stroke:#5c67ad;" x="160.164419" xlink:href="#mf025204bc2" y="208.624069"/>
     <use style="fill:#5c67ad;stroke:#5c67ad;" x="145.823582" xlink:href="#mf025204bc2" y="199.879956"/>
     <use style="fill:#5c67ad;stroke:#5c67ad;" x="140.934251" xlink:href="#mf025204bc2" y="217.094944"/>
     <use style="fill:#5c67ad;stroke:#5c67ad;" x="148.001883" xlink:href="#mf025204bc2" y="204.957524"/>
     <use style="fill:#5c67ad;stroke:#5c67ad;" x="165.018376" xlink:href="#mf025204bc2" y="190.205945"/>
     <use style="fill:#5c67ad;stroke:#5c67ad;" x="150.180126" xlink:href="#mf025204bc2" y="165.775909"/>
     <use style="fill:#5c67ad;stroke:#5c67ad;" x="178.898255" xlink:href="#mf025204bc2" y="77.776364"/>
     <use style="fill:#5c67ad;stroke:#5c67ad;" x="184.623321" xlink:href="#mf025204bc2" y="151.05151"/>
     <use style="fill:#5c67ad;stroke:#5c67ad;" x="186.024997" xlink:href="#mf025204bc2" y="161.053488"/>
     <use style="fill:#5c67ad;stroke:#5c67ad;" x="162.884985" xlink:href="#mf025204bc2" y="144.646823"/>
     <use style="fill:#5c67ad;stroke:#5c67ad;" x="175.117527" xlink:href="#mf025204bc2" y="143.718683"/>
     <use style="fill:#5c67ad;stroke:#5c67ad;" x="162.813329" xlink:href="#mf025204bc2" y="141.105369"/>
     <use style="fill:#5c67ad;stroke:#5c67ad;" x="143.096097" xlink:href="#mf025204bc2" y="147.460184"/>
     <use style="fill:#5c67ad;stroke:#5c67ad;" x="159.598129" xlink:href="#mf025204bc2" y="139.407649"/>
     <use style="fill:#5c67ad;stroke:#5c67ad;" x="156.72974" xlink:href="#mf025204bc2" y="161.831574"/>
    </g>
   </g>
   <g id="PolyCollection_1">
    <path clip-path="url(#p38fe7620a6)" d="M 80.754545 120.608518 
L 80.754545 177.652093 
L 84.341322 179.44885 
L 87.928099 181.556137 
L 91.514876 183.595967 
L 95.101653 185.48017 
L 98.68843 187.671878 
L 102.275207 189.670384 
L 105.861983 191.665436 
L 109.44876 193.626889 
L 113.035537 195.632846 
L 116.622314 197.676266 
L 120.209091 199.719686 
L 123.795868 201.737473 
L 127.382645 203.745514 
L 130.969421 205.753554 
L 134.556198 207.846262 
L 138.142975 209.945227 
L 141.729752 211.994917 
L 145.316529 214.233773 
L 148.903306 216.414539 
L 152.490083 218.311007 
L 156.07686 220.540814 
L 159.663636 222.770621 
L 163.250413 225.000428 
L 166.83719 227.230235 
L 170.423967 229.459125 
L 174.010744 231.685903 
L 177.597521 233.912681 
L 181.184298 236.069645 
L 184.771074 238.318223 
L 188.357851 240.501681 
L 191.944628 242.815773 
L 195.531405 245.055122 
L 199.118182 247.032519 
L 202.704959 249.263784 
L 206.291736 251.410851 
L 209.878512 253.43534 
L 213.465289 255.576903 
L 217.052066 257.624388 
L 220.638843 259.673885 
L 224.22562 262.007238 
L 227.812397 264.249199 
L 231.399174 266.289217 
L 234.98595 268.423737 
L 238.572727 270.805921 
L 242.159504 273.188105 
L 245.746281 275.569001 
L 249.333058 277.717872 
L 252.919835 279.991276 
L 256.506612 282.138213 
L 260.093388 284.527889 
L 263.680165 287.034069 
L 267.266942 289.383517 
L 270.853719 291.618316 
L 274.440496 293.956483 
L 278.027273 296.337198 
L 281.61405 298.574845 
L 285.200826 301.12841 
L 288.787603 303.690052 
L 292.37438 306.220792 
L 295.961157 308.527324 
L 299.547934 310.931142 
L 303.134711 313.29504 
L 306.721488 316.050737 
L 310.308264 318.483724 
L 313.895041 320.825803 
L 317.481818 323.267537 
L 321.068595 325.747815 
L 324.655372 328.190902 
L 328.242149 330.814133 
L 331.828926 333.554477 
L 335.415702 336.121714 
L 339.002479 338.573437 
L 342.589256 341.254418 
L 346.176033 344.078258 
L 349.76281 346.72493 
L 353.349587 349.364591 
L 356.936364 351.933463 
L 360.52314 354.506312 
L 364.109917 357.295477 
L 367.696694 360.084642 
L 371.283471 362.667061 
L 374.870248 365.365099 
L 378.457025 367.9233 
L 382.043802 370.504228 
L 385.630579 373.200102 
L 389.217355 375.701265 
L 392.804132 378.461616 
L 396.390909 381.256155 
L 399.977686 384.050694 
L 403.564463 386.845233 
L 407.15124 389.542627 
L 410.738017 392.121703 
L 414.324793 394.904957 
L 417.91157 397.597541 
L 421.498347 400.264957 
L 425.085124 403.20007 
L 428.671901 406.237985 
L 432.258678 409.097522 
L 435.845455 411.697841 
L 435.845455 359.540271 
L 435.845455 359.540271 
L 432.258678 357.615761 
L 428.671901 355.69125 
L 425.085124 353.76674 
L 421.498347 351.759427 
L 417.91157 349.543972 
L 414.324793 347.313134 
L 410.738017 345.082296 
L 407.15124 342.852023 
L 403.564463 340.622261 
L 399.977686 338.396376 
L 396.390909 336.174474 
L 392.804132 334.026469 
L 389.217355 331.708127 
L 385.630579 329.47345 
L 382.043802 327.334968 
L 378.457025 325.288216 
L 374.870248 323.208631 
L 371.283471 321.081621 
L 367.696694 318.783935 
L 364.109917 316.558972 
L 360.52314 314.442319 
L 356.936364 312.050023 
L 353.349587 309.765032 
L 349.76281 307.547319 
L 346.176033 305.037669 
L 342.589256 302.662395 
L 339.002479 300.508632 
L 335.415702 298.192791 
L 331.828926 296.075348 
L 328.242149 293.937944 
L 324.655372 291.819066 
L 321.068595 289.791615 
L 317.481818 287.763388 
L 313.895041 285.445092 
L 310.308264 283.007975 
L 306.721488 280.487541 
L 303.134711 278.127033 
L 299.547934 275.845112 
L 295.961157 273.610422 
L 292.37438 271.463583 
L 288.787603 269.242903 
L 285.200826 266.911141 
L 281.61405 264.356815 
L 278.027273 262.384187 
L 274.440496 260.11194 
L 270.853719 257.766217 
L 267.266942 255.419704 
L 263.680165 253.069065 
L 260.093388 250.783148 
L 256.506612 248.370522 
L 252.919835 245.894058 
L 249.333058 243.441305 
L 245.746281 241.004599 
L 242.159504 238.640352 
L 238.572727 236.279125 
L 234.98595 233.862436 
L 231.399174 231.429725 
L 227.812397 228.929057 
L 224.22562 226.334884 
L 220.638843 223.884069 
L 217.052066 221.434559 
L 213.465289 218.909224 
L 209.878512 216.098836 
L 206.291736 213.731396 
L 202.704959 210.945576 
L 199.118182 208.164814 
L 195.531405 205.384052 
L 191.944628 202.673416 
L 188.357851 200.070623 
L 184.771074 197.475088 
L 181.184298 195.019444 
L 177.597521 192.374154 
L 174.010744 189.741312 
L 170.423967 187.078842 
L 166.83719 184.480066 
L 163.250413 182.081712 
L 159.663636 179.5716 
L 156.07686 177.061728 
L 152.490083 174.443762 
L 148.903306 171.855897 
L 145.316529 168.965049 
L 141.729752 166.227032 
L 138.142975 163.64965 
L 134.556198 160.93901 
L 130.969421 158.209768 
L 127.382645 155.747488 
L 123.795868 153.264414 
L 120.209091 150.349515 
L 116.622314 147.434616 
L 113.035537 144.52159 
L 109.44876 141.888861 
L 105.861983 139.385987 
L 102.275207 136.883114 
L 98.68843 133.989551 
L 95.101653 131.166652 
L 91.514876 128.528806 
L 87.928099 125.889295 
L 84.341322 123.246573 
L 80.754545 120.608518 
z
" style="fill:#f5d30f;fill-opacity:0.15;"/>
   </g>
   <g id="line2d_26">
    <path clip-path="url(#p38fe7620a6)" d="M 80.754545 148.955465 
L 84.341322 151.343751 
L 87.928099 153.732036 
L 91.514876 156.120322 
L 95.101653 158.508607 
L 98.68843 160.896893 
L 102.275207 163.285178 
L 105.861983 165.673464 
L 109.44876 168.061749 
L 113.035537 170.450035 
L 116.622314 172.83832 
L 120.209091 175.226606 
L 123.795868 177.614891 
L 127.382645 180.003177 
L 130.969421 182.391462 
L 134.556198 184.779747 
L 138.142975 187.168033 
L 141.729752 189.556318 
L 145.316529 191.944604 
L 148.903306 194.332889 
L 152.490083 196.721175 
L 156.07686 199.10946 
L 159.663636 201.497746 
L 163.250413 203.886031 
L 166.83719 206.274317 
L 170.423967 208.662602 
L 174.010744 211.050888 
L 177.597521 213.439173 
L 181.184298 215.827459 
L 184.771074 218.215744 
L 188.357851 220.604029 
L 191.944628 222.992315 
L 195.531405 225.3806 
L 199.118182 227.768886 
L 202.704959 230.157171 
L 206.291736 232.545457 
L 209.878512 234.933742 
L 213.465289 237.322028 
L 217.052066 239.710313 
L 220.638843 242.098599 
L 224.22562 244.486884 
L 227.812397 246.87517 
L 231.399174 249.263455 
L 234.98595 251.651741 
L 238.572727 254.040026 
L 242.159504 256.428312 
L 245.746281 258.816597 
L 249.333058 261.204882 
L 252.919835 263.593168 
L 256.506612 265.981453 
L 260.093388 268.369739 
L 263.680165 270.758024 
L 267.266942 273.14631 
L 270.853719 275.534595 
L 274.440496 277.922881 
L 278.027273 280.311166 
L 281.61405 282.699452 
L 285.200826 285.087737 
L 288.787603 287.476023 
L 292.37438 289.864308 
L 295.961157 292.252594 
L 299.547934 294.640879 
L 303.134711 297.029164 
L 306.721488 299.41745 
L 310.308264 301.805735 
L 313.895041 304.194021 
L 317.481818 306.582306 
L 321.068595 308.970592 
L 324.655372 311.358877 
L 328.242149 313.747163 
L 331.828926 316.135448 
L 335.415702 318.523734 
L 339.002479 320.912019 
L 342.589256 323.300305 
L 346.176033 325.68859 
L 349.76281 328.076876 
L 353.349587 330.465161 
L 356.936364 332.853447 
L 360.52314 335.241732 
L 364.109917 337.630017 
L 367.696694 340.018303 
L 371.283471 342.406588 
L 374.870248 344.794874 
L 378.457025 347.183159 
L 382.043802 349.571445 
L 385.630579 351.95973 
L 389.217355 354.348016 
L 392.804132 356.736301 
L 396.390909 359.124587 
L 399.977686 361.512872 
L 403.564463 363.901158 
L 407.15124 366.289443 
L 410.738017 368.677729 
L 414.324793 371.066014 
L 417.91157 373.454299 
L 421.498347 375.842585 
L 425.085124 378.23087 
L 428.671901 380.619156 
L 432.258678 383.007441 
L 435.845455 385.395727 
" style="fill:none;stroke:#f5d30f;stroke-linecap:square;stroke-width:2.25;"/>
   </g>
   <g id="patch_3">
    <path d="M 63 441 
L 63 60.48 
" style="fill:none;stroke:#000000;stroke-linecap:square;stroke-linejoin:miter;stroke-width:0.8;"/>
   </g>
   <g id="patch_4">
    <path d="M 63 441 
L 453.6 441 
" style="fill:none;stroke:#000000;stroke-linecap:square;stroke-linejoin:miter;stroke-width:0.8;"/>
   </g>
  </g>
 </g>
 <defs>
  <clipPath id="p38fe7620a6">
   <rect height="380.52" width="390.6" x="63" y="60.48"/>
  </clipPath>
 </defs>
</svg>
