<?xml version="1.0" encoding="utf-8" standalone="no"?>
<!DOCTYPE svg PUBLIC "-//W3C//DTD SVG 1.1//EN"
  "http://www.w3.org/Graphics/SVG/1.1/DTD/svg11.dtd">
<!-- Created with matplotlib (https://matplotlib.org/) -->
<svg height="504pt" version="1.1" viewBox="0 0 504 504" width="504pt" xmlns="http://www.w3.org/2000/svg" xmlns:xlink="http://www.w3.org/1999/xlink">
 <defs>
  <style type="text/css">
*{stroke-linecap:butt;stroke-linejoin:round;}
  </style>
 </defs>
 <g id="figure_1">
  <g id="patch_1">
   <path d="M 0 504 
L 504 504 
L 504 0 
L 0 0 
z
" style="fill:#ffffff;"/>
  </g>
  <g id="axes_1">
   <g id="patch_2">
    <path d="M 63 441 
L 453.6 441 
L 453.6 60.48 
L 63 60.48 
z
" style="fill:#ffffff;"/>
   </g>
   <g id="matplotlib.axis_1">
    <g id="xtick_1">
     <g id="line2d_1">
      <defs>
       <path d="M 0 0 
L 0 3.5 
" id="m52a132d41f" style="stroke:#000000;stroke-width:0.8;"/>
      </defs>
      <g>
       <use style="stroke:#000000;stroke-width:0.8;" x="70.724244" xlink:href="#m52a132d41f" y="441"/>
      </g>
     </g>
     <g id="text_1">
      <!-- 30 -->
      <defs>
       <path d="M 40.578125 39.3125 
Q 47.65625 37.796875 51.625 33 
Q 55.609375 28.21875 55.609375 21.1875 
Q 55.609375 10.40625 48.1875 4.484375 
Q 40.765625 -1.421875 27.09375 -1.421875 
Q 22.515625 -1.421875 17.65625 -0.515625 
Q 12.796875 0.390625 7.625 2.203125 
L 7.625 11.71875 
Q 11.71875 9.328125 16.59375 8.109375 
Q 21.484375 6.890625 26.8125 6.890625 
Q 36.078125 6.890625 40.9375 10.546875 
Q 45.796875 14.203125 45.796875 21.1875 
Q 45.796875 27.640625 41.28125 31.265625 
Q 36.765625 34.90625 28.71875 34.90625 
L 20.21875 34.90625 
L 20.21875 43.015625 
L 29.109375 43.015625 
Q 36.375 43.015625 40.234375 45.921875 
Q 44.09375 48.828125 44.09375 54.296875 
Q 44.09375 59.90625 40.109375 62.90625 
Q 36.140625 65.921875 28.71875 65.921875 
Q 24.65625 65.921875 20.015625 65.03125 
Q 15.375 64.15625 9.8125 62.3125 
L 9.8125 71.09375 
Q 15.4375 72.65625 20.34375 73.4375 
Q 25.25 74.21875 29.59375 74.21875 
Q 40.828125 74.21875 47.359375 69.109375 
Q 53.90625 64.015625 53.90625 55.328125 
Q 53.90625 49.265625 50.4375 45.09375 
Q 46.96875 40.921875 40.578125 39.3125 
z
" id="DejaVuSans-51"/>
       <path d="M 31.78125 66.40625 
Q 24.171875 66.40625 20.328125 58.90625 
Q 16.5 51.421875 16.5 36.375 
Q 16.5 21.390625 20.328125 13.890625 
Q 24.171875 6.390625 31.78125 6.390625 
Q 39.453125 6.390625 43.28125 13.890625 
Q 47.125 21.390625 47.125 36.375 
Q 47.125 51.421875 43.28125 58.90625 
Q 39.453125 66.40625 31.78125 66.40625 
z
M 31.78125 74.21875 
Q 44.046875 74.21875 50.515625 64.515625 
Q 56.984375 54.828125 56.984375 36.375 
Q 56.984375 17.96875 50.515625 8.265625 
Q 44.046875 -1.421875 31.78125 -1.421875 
Q 19.53125 -1.421875 13.0625 8.265625 
Q 6.59375 17.96875 6.59375 36.375 
Q 6.59375 54.828125 13.0625 64.515625 
Q 19.53125 74.21875 31.78125 74.21875 
z
" id="DejaVuSans-48"/>
      </defs>
      <g transform="translate(64.361744 455.598437)scale(0.1 -0.1)">
       <use xlink:href="#DejaVuSans-51"/>
       <use x="63.623047" xlink:href="#DejaVuSans-48"/>
      </g>
     </g>
    </g>
    <g id="xtick_2">
     <g id="line2d_2">
      <g>
       <use style="stroke:#000000;stroke-width:0.8;" x="118.407176" xlink:href="#m52a132d41f" y="441"/>
      </g>
     </g>
     <g id="text_2">
      <!-- 40 -->
      <defs>
       <path d="M 37.796875 64.3125 
L 12.890625 25.390625 
L 37.796875 25.390625 
z
M 35.203125 72.90625 
L 47.609375 72.90625 
L 47.609375 25.390625 
L 58.015625 25.390625 
L 58.015625 17.1875 
L 47.609375 17.1875 
L 47.609375 0 
L 37.796875 0 
L 37.796875 17.1875 
L 4.890625 17.1875 
L 4.890625 26.703125 
z
" id="DejaVuSans-52"/>
      </defs>
      <g transform="translate(112.044676 455.598437)scale(0.1 -0.1)">
       <use xlink:href="#DejaVuSans-52"/>
       <use x="63.623047" xlink:href="#DejaVuSans-48"/>
      </g>
     </g>
    </g>
    <g id="xtick_3">
     <g id="line2d_3">
      <g>
       <use style="stroke:#000000;stroke-width:0.8;" x="166.090107" xlink:href="#m52a132d41f" y="441"/>
      </g>
     </g>
     <g id="text_3">
      <!-- 50 -->
      <defs>
       <path d="M 10.796875 72.90625 
L 49.515625 72.90625 
L 49.515625 64.59375 
L 19.828125 64.59375 
L 19.828125 46.734375 
Q 21.96875 47.46875 24.109375 47.828125 
Q 26.265625 48.1875 28.421875 48.1875 
Q 40.625 48.1875 47.75 41.5 
Q 54.890625 34.8125 54.890625 23.390625 
Q 54.890625 11.625 47.5625 5.09375 
Q 40.234375 -1.421875 26.90625 -1.421875 
Q 22.3125 -1.421875 17.546875 -0.640625 
Q 12.796875 0.140625 7.71875 1.703125 
L 7.71875 11.625 
Q 12.109375 9.234375 16.796875 8.0625 
Q 21.484375 6.890625 26.703125 6.890625 
Q 35.15625 6.890625 40.078125 11.328125 
Q 45.015625 15.765625 45.015625 23.390625 
Q 45.015625 31 40.078125 35.4375 
Q 35.15625 39.890625 26.703125 39.890625 
Q 22.75 39.890625 18.8125 39.015625 
Q 14.890625 38.140625 10.796875 36.28125 
z
" id="DejaVuSans-53"/>
      </defs>
      <g transform="translate(159.727607 455.598437)scale(0.1 -0.1)">
       <use xlink:href="#DejaVuSans-53"/>
       <use x="63.623047" xlink:href="#DejaVuSans-48"/>
      </g>
     </g>
    </g>
    <g id="xtick_4">
     <g id="line2d_4">
      <g>
       <use style="stroke:#000000;stroke-width:0.8;" x="213.773038" xlink:href="#m52a132d41f" y="441"/>
      </g>
     </g>
     <g id="text_4">
      <!-- 60 -->
      <defs>
       <path d="M 33.015625 40.375 
Q 26.375 40.375 22.484375 35.828125 
Q 18.609375 31.296875 18.609375 23.390625 
Q 18.609375 15.53125 22.484375 10.953125 
Q 26.375 6.390625 33.015625 6.390625 
Q 39.65625 6.390625 43.53125 10.953125 
Q 47.40625 15.53125 47.40625 23.390625 
Q 47.40625 31.296875 43.53125 35.828125 
Q 39.65625 40.375 33.015625 40.375 
z
M 52.59375 71.296875 
L 52.59375 62.3125 
Q 48.875 64.0625 45.09375 64.984375 
Q 41.3125 65.921875 37.59375 65.921875 
Q 27.828125 65.921875 22.671875 59.328125 
Q 17.53125 52.734375 16.796875 39.40625 
Q 19.671875 43.65625 24.015625 45.921875 
Q 28.375 48.1875 33.59375 48.1875 
Q 44.578125 48.1875 50.953125 41.515625 
Q 57.328125 34.859375 57.328125 23.390625 
Q 57.328125 12.15625 50.6875 5.359375 
Q 44.046875 -1.421875 33.015625 -1.421875 
Q 20.359375 -1.421875 13.671875 8.265625 
Q 6.984375 17.96875 6.984375 36.375 
Q 6.984375 53.65625 15.1875 63.9375 
Q 23.390625 74.21875 37.203125 74.21875 
Q 40.921875 74.21875 44.703125 73.484375 
Q 48.484375 72.75 52.59375 71.296875 
z
" id="DejaVuSans-54"/>
      </defs>
      <g transform="translate(207.410538 455.598437)scale(0.1 -0.1)">
       <use xlink:href="#DejaVuSans-54"/>
       <use x="63.623047" xlink:href="#DejaVuSans-48"/>
      </g>
     </g>
    </g>
    <g id="xtick_5">
     <g id="line2d_5">
      <g>
       <use style="stroke:#000000;stroke-width:0.8;" x="261.45597" xlink:href="#m52a132d41f" y="441"/>
      </g>
     </g>
     <g id="text_5">
      <!-- 70 -->
      <defs>
       <path d="M 8.203125 72.90625 
L 55.078125 72.90625 
L 55.078125 68.703125 
L 28.609375 0 
L 18.3125 0 
L 43.21875 64.59375 
L 8.203125 64.59375 
z
" id="DejaVuSans-55"/>
      </defs>
      <g transform="translate(255.09347 455.598437)scale(0.1 -0.1)">
       <use xlink:href="#DejaVuSans-55"/>
       <use x="63.623047" xlink:href="#DejaVuSans-48"/>
      </g>
     </g>
    </g>
    <g id="xtick_6">
     <g id="line2d_6">
      <g>
       <use style="stroke:#000000;stroke-width:0.8;" x="309.138901" xlink:href="#m52a132d41f" y="441"/>
      </g>
     </g>
     <g id="text_6">
      <!-- 80 -->
      <defs>
       <path d="M 31.78125 34.625 
Q 24.75 34.625 20.71875 30.859375 
Q 16.703125 27.09375 16.703125 20.515625 
Q 16.703125 13.921875 20.71875 10.15625 
Q 24.75 6.390625 31.78125 6.390625 
Q 38.8125 6.390625 42.859375 10.171875 
Q 46.921875 13.96875 46.921875 20.515625 
Q 46.921875 27.09375 42.890625 30.859375 
Q 38.875 34.625 31.78125 34.625 
z
M 21.921875 38.8125 
Q 15.578125 40.375 12.03125 44.71875 
Q 8.5 49.078125 8.5 55.328125 
Q 8.5 64.0625 14.71875 69.140625 
Q 20.953125 74.21875 31.78125 74.21875 
Q 42.671875 74.21875 48.875 69.140625 
Q 55.078125 64.0625 55.078125 55.328125 
Q 55.078125 49.078125 51.53125 44.71875 
Q 48 40.375 41.703125 38.8125 
Q 48.828125 37.15625 52.796875 32.3125 
Q 56.78125 27.484375 56.78125 20.515625 
Q 56.78125 9.90625 50.3125 4.234375 
Q 43.84375 -1.421875 31.78125 -1.421875 
Q 19.734375 -1.421875 13.25 4.234375 
Q 6.78125 9.90625 6.78125 20.515625 
Q 6.78125 27.484375 10.78125 32.3125 
Q 14.796875 37.15625 21.921875 38.8125 
z
M 18.3125 54.390625 
Q 18.3125 48.734375 21.84375 45.5625 
Q 25.390625 42.390625 31.78125 42.390625 
Q 38.140625 42.390625 41.71875 45.5625 
Q 45.3125 48.734375 45.3125 54.390625 
Q 45.3125 60.0625 41.71875 63.234375 
Q 38.140625 66.40625 31.78125 66.40625 
Q 25.390625 66.40625 21.84375 63.234375 
Q 18.3125 60.0625 18.3125 54.390625 
z
" id="DejaVuSans-56"/>
      </defs>
      <g transform="translate(302.776401 455.598437)scale(0.1 -0.1)">
       <use xlink:href="#DejaVuSans-56"/>
       <use x="63.623047" xlink:href="#DejaVuSans-48"/>
      </g>
     </g>
    </g>
    <g id="xtick_7">
     <g id="line2d_7">
      <g>
       <use style="stroke:#000000;stroke-width:0.8;" x="356.821833" xlink:href="#m52a132d41f" y="441"/>
      </g>
     </g>
     <g id="text_7">
      <!-- 90 -->
      <defs>
       <path d="M 10.984375 1.515625 
L 10.984375 10.5 
Q 14.703125 8.734375 18.5 7.8125 
Q 22.3125 6.890625 25.984375 6.890625 
Q 35.75 6.890625 40.890625 13.453125 
Q 46.046875 20.015625 46.78125 33.40625 
Q 43.953125 29.203125 39.59375 26.953125 
Q 35.25 24.703125 29.984375 24.703125 
Q 19.046875 24.703125 12.671875 31.3125 
Q 6.296875 37.9375 6.296875 49.421875 
Q 6.296875 60.640625 12.9375 67.421875 
Q 19.578125 74.21875 30.609375 74.21875 
Q 43.265625 74.21875 49.921875 64.515625 
Q 56.59375 54.828125 56.59375 36.375 
Q 56.59375 19.140625 48.40625 8.859375 
Q 40.234375 -1.421875 26.421875 -1.421875 
Q 22.703125 -1.421875 18.890625 -0.6875 
Q 15.09375 0.046875 10.984375 1.515625 
z
M 30.609375 32.421875 
Q 37.25 32.421875 41.125 36.953125 
Q 45.015625 41.5 45.015625 49.421875 
Q 45.015625 57.28125 41.125 61.84375 
Q 37.25 66.40625 30.609375 66.40625 
Q 23.96875 66.40625 20.09375 61.84375 
Q 16.21875 57.28125 16.21875 49.421875 
Q 16.21875 41.5 20.09375 36.953125 
Q 23.96875 32.421875 30.609375 32.421875 
z
" id="DejaVuSans-57"/>
      </defs>
      <g transform="translate(350.459333 455.598437)scale(0.1 -0.1)">
       <use xlink:href="#DejaVuSans-57"/>
       <use x="63.623047" xlink:href="#DejaVuSans-48"/>
      </g>
     </g>
    </g>
    <g id="xtick_8">
     <g id="line2d_8">
      <g>
       <use style="stroke:#000000;stroke-width:0.8;" x="404.504764" xlink:href="#m52a132d41f" y="441"/>
      </g>
     </g>
     <g id="text_8">
      <!-- 100 -->
      <defs>
       <path d="M 12.40625 8.296875 
L 28.515625 8.296875 
L 28.515625 63.921875 
L 10.984375 60.40625 
L 10.984375 69.390625 
L 28.421875 72.90625 
L 38.28125 72.90625 
L 38.28125 8.296875 
L 54.390625 8.296875 
L 54.390625 0 
L 12.40625 0 
z
" id="DejaVuSans-49"/>
      </defs>
      <g transform="translate(394.961014 455.598437)scale(0.1 -0.1)">
       <use xlink:href="#DejaVuSans-49"/>
       <use x="63.623047" xlink:href="#DejaVuSans-48"/>
       <use x="127.246094" xlink:href="#DejaVuSans-48"/>
      </g>
     </g>
    </g>
    <g id="xtick_9">
     <g id="line2d_9">
      <g>
       <use style="stroke:#000000;stroke-width:0.8;" x="452.187696" xlink:href="#m52a132d41f" y="441"/>
      </g>
     </g>
     <g id="text_9">
      <!-- 110 -->
      <g transform="translate(442.643946 455.598437)scale(0.1 -0.1)">
       <use xlink:href="#DejaVuSans-49"/>
       <use x="63.623047" xlink:href="#DejaVuSans-49"/>
       <use x="127.246094" xlink:href="#DejaVuSans-48"/>
      </g>
     </g>
    </g>
    <g id="text_10">
     <!-- dcoilwtico -->
     <defs>
      <path d="M 45.40625 46.390625 
L 45.40625 75.984375 
L 54.390625 75.984375 
L 54.390625 0 
L 45.40625 0 
L 45.40625 8.203125 
Q 42.578125 3.328125 38.25 0.953125 
Q 33.9375 -1.421875 27.875 -1.421875 
Q 17.96875 -1.421875 11.734375 6.484375 
Q 5.515625 14.40625 5.515625 27.296875 
Q 5.515625 40.1875 11.734375 48.09375 
Q 17.96875 56 27.875 56 
Q 33.9375 56 38.25 53.625 
Q 42.578125 51.265625 45.40625 46.390625 
z
M 14.796875 27.296875 
Q 14.796875 17.390625 18.875 11.75 
Q 22.953125 6.109375 30.078125 6.109375 
Q 37.203125 6.109375 41.296875 11.75 
Q 45.40625 17.390625 45.40625 27.296875 
Q 45.40625 37.203125 41.296875 42.84375 
Q 37.203125 48.484375 30.078125 48.484375 
Q 22.953125 48.484375 18.875 42.84375 
Q 14.796875 37.203125 14.796875 27.296875 
z
" id="DejaVuSans-100"/>
      <path d="M 48.78125 52.59375 
L 48.78125 44.1875 
Q 44.96875 46.296875 41.140625 47.34375 
Q 37.3125 48.390625 33.40625 48.390625 
Q 24.65625 48.390625 19.8125 42.84375 
Q 14.984375 37.3125 14.984375 27.296875 
Q 14.984375 17.28125 19.8125 11.734375 
Q 24.65625 6.203125 33.40625 6.203125 
Q 37.3125 6.203125 41.140625 7.25 
Q 44.96875 8.296875 48.78125 10.40625 
L 48.78125 2.09375 
Q 45.015625 0.34375 40.984375 -0.53125 
Q 36.96875 -1.421875 32.421875 -1.421875 
Q 20.0625 -1.421875 12.78125 6.34375 
Q 5.515625 14.109375 5.515625 27.296875 
Q 5.515625 40.671875 12.859375 48.328125 
Q 20.21875 56 33.015625 56 
Q 37.15625 56 41.109375 55.140625 
Q 45.0625 54.296875 48.78125 52.59375 
z
" id="DejaVuSans-99"/>
      <path d="M 30.609375 48.390625 
Q 23.390625 48.390625 19.1875 42.75 
Q 14.984375 37.109375 14.984375 27.296875 
Q 14.984375 17.484375 19.15625 11.84375 
Q 23.34375 6.203125 30.609375 6.203125 
Q 37.796875 6.203125 41.984375 11.859375 
Q 46.1875 17.53125 46.1875 27.296875 
Q 46.1875 37.015625 41.984375 42.703125 
Q 37.796875 48.390625 30.609375 48.390625 
z
M 30.609375 56 
Q 42.328125 56 49.015625 48.375 
Q 55.71875 40.765625 55.71875 27.296875 
Q 55.71875 13.875 49.015625 6.21875 
Q 42.328125 -1.421875 30.609375 -1.421875 
Q 18.84375 -1.421875 12.171875 6.21875 
Q 5.515625 13.875 5.515625 27.296875 
Q 5.515625 40.765625 12.171875 48.375 
Q 18.84375 56 30.609375 56 
z
" id="DejaVuSans-111"/>
      <path d="M 9.421875 54.6875 
L 18.40625 54.6875 
L 18.40625 0 
L 9.421875 0 
z
M 9.421875 75.984375 
L 18.40625 75.984375 
L 18.40625 64.59375 
L 9.421875 64.59375 
z
" id="DejaVuSans-105"/>
      <path d="M 9.421875 75.984375 
L 18.40625 75.984375 
L 18.40625 0 
L 9.421875 0 
z
" id="DejaVuSans-108"/>
      <path d="M 4.203125 54.6875 
L 13.1875 54.6875 
L 24.421875 12.015625 
L 35.59375 54.6875 
L 46.1875 54.6875 
L 57.421875 12.015625 
L 68.609375 54.6875 
L 77.59375 54.6875 
L 63.28125 0 
L 52.6875 0 
L 40.921875 44.828125 
L 29.109375 0 
L 18.5 0 
z
" id="DejaVuSans-119"/>
      <path d="M 18.3125 70.21875 
L 18.3125 54.6875 
L 36.8125 54.6875 
L 36.8125 47.703125 
L 18.3125 47.703125 
L 18.3125 18.015625 
Q 18.3125 11.328125 20.140625 9.421875 
Q 21.96875 7.515625 27.59375 7.515625 
L 36.8125 7.515625 
L 36.8125 0 
L 27.59375 0 
Q 17.1875 0 13.234375 3.875 
Q 9.28125 7.765625 9.28125 18.015625 
L 9.28125 47.703125 
L 2.6875 47.703125 
L 2.6875 54.6875 
L 9.28125 54.6875 
L 9.28125 70.21875 
z
" id="DejaVuSans-116"/>
     </defs>
     <g transform="translate(233.292188 469.276563)scale(0.1 -0.1)">
      <use xlink:href="#DejaVuSans-100"/>
      <use x="63.476562" xlink:href="#DejaVuSans-99"/>
      <use x="118.457031" xlink:href="#DejaVuSans-111"/>
      <use x="179.638672" xlink:href="#DejaVuSans-105"/>
      <use x="207.421875" xlink:href="#DejaVuSans-108"/>
      <use x="235.205078" xlink:href="#DejaVuSans-119"/>
      <use x="316.992188" xlink:href="#DejaVuSans-116"/>
      <use x="356.201172" xlink:href="#DejaVuSans-105"/>
      <use x="383.984375" xlink:href="#DejaVuSans-99"/>
      <use x="438.964844" xlink:href="#DejaVuSans-111"/>
     </g>
    </g>
   </g>
   <g id="matplotlib.axis_2">
    <g id="ytick_1">
     <g id="line2d_10">
      <path clip-path="url(#p7f0b8c9374)" d="M 63 411.42149 
L 453.6 411.42149 
" style="fill:none;stroke:#d3d3d3;stroke-linecap:square;stroke-opacity:0.5;stroke-width:0.8;"/>
     </g>
     <g id="line2d_11">
      <defs>
       <path d="M 0 0 
L -3.5 0 
" id="mfe5e1da3c3" style="stroke:#000000;stroke-width:0.8;"/>
      </defs>
      <g>
       <use style="stroke:#000000;stroke-width:0.8;" x="63" xlink:href="#mfe5e1da3c3" y="411.42149"/>
      </g>
     </g>
     <g id="text_11">
      <!-- 200 -->
      <defs>
       <path d="M 19.1875 8.296875 
L 53.609375 8.296875 
L 53.609375 0 
L 7.328125 0 
L 7.328125 8.296875 
Q 12.9375 14.109375 22.625 23.890625 
Q 32.328125 33.6875 34.8125 36.53125 
Q 39.546875 41.84375 41.421875 45.53125 
Q 43.3125 49.21875 43.3125 52.78125 
Q 43.3125 58.59375 39.234375 62.25 
Q 35.15625 65.921875 28.609375 65.921875 
Q 23.96875 65.921875 18.8125 64.3125 
Q 13.671875 62.703125 7.8125 59.421875 
L 7.8125 69.390625 
Q 13.765625 71.78125 18.9375 73 
Q 24.125 74.21875 28.421875 74.21875 
Q 39.75 74.21875 46.484375 68.546875 
Q 53.21875 62.890625 53.21875 53.421875 
Q 53.21875 48.921875 51.53125 44.890625 
Q 49.859375 40.875 45.40625 35.40625 
Q 44.1875 33.984375 37.640625 27.21875 
Q 31.109375 20.453125 19.1875 8.296875 
z
" id="DejaVuSans-50"/>
      </defs>
      <g transform="translate(36.9125 415.220709)scale(0.1 -0.1)">
       <use xlink:href="#DejaVuSans-50"/>
       <use x="63.623047" xlink:href="#DejaVuSans-48"/>
       <use x="127.246094" xlink:href="#DejaVuSans-48"/>
      </g>
     </g>
    </g>
    <g id="ytick_2">
     <g id="line2d_12">
      <path clip-path="url(#p7f0b8c9374)" d="M 63 364.354787 
L 453.6 364.354787 
" style="fill:none;stroke:#d3d3d3;stroke-linecap:square;stroke-opacity:0.5;stroke-width:0.8;"/>
     </g>
     <g id="line2d_13">
      <g>
       <use style="stroke:#000000;stroke-width:0.8;" x="63" xlink:href="#mfe5e1da3c3" y="364.354787"/>
      </g>
     </g>
     <g id="text_12">
      <!-- 250 -->
      <g transform="translate(36.9125 368.154006)scale(0.1 -0.1)">
       <use xlink:href="#DejaVuSans-50"/>
       <use x="63.623047" xlink:href="#DejaVuSans-53"/>
       <use x="127.246094" xlink:href="#DejaVuSans-48"/>
      </g>
     </g>
    </g>
    <g id="ytick_3">
     <g id="line2d_14">
      <path clip-path="url(#p7f0b8c9374)" d="M 63 317.288084 
L 453.6 317.288084 
" style="fill:none;stroke:#d3d3d3;stroke-linecap:square;stroke-opacity:0.5;stroke-width:0.8;"/>
     </g>
     <g id="line2d_15">
      <g>
       <use style="stroke:#000000;stroke-width:0.8;" x="63" xlink:href="#mfe5e1da3c3" y="317.288084"/>
      </g>
     </g>
     <g id="text_13">
      <!-- 300 -->
      <g transform="translate(36.9125 321.087303)scale(0.1 -0.1)">
       <use xlink:href="#DejaVuSans-51"/>
       <use x="63.623047" xlink:href="#DejaVuSans-48"/>
       <use x="127.246094" xlink:href="#DejaVuSans-48"/>
      </g>
     </g>
    </g>
    <g id="ytick_4">
     <g id="line2d_16">
      <path clip-path="url(#p7f0b8c9374)" d="M 63 270.221381 
L 453.6 270.221381 
" style="fill:none;stroke:#d3d3d3;stroke-linecap:square;stroke-opacity:0.5;stroke-width:0.8;"/>
     </g>
     <g id="line2d_17">
      <g>
       <use style="stroke:#000000;stroke-width:0.8;" x="63" xlink:href="#mfe5e1da3c3" y="270.221381"/>
      </g>
     </g>
     <g id="text_14">
      <!-- 350 -->
      <g transform="translate(36.9125 274.0206)scale(0.1 -0.1)">
       <use xlink:href="#DejaVuSans-51"/>
       <use x="63.623047" xlink:href="#DejaVuSans-53"/>
       <use x="127.246094" xlink:href="#DejaVuSans-48"/>
      </g>
     </g>
    </g>
    <g id="ytick_5">
     <g id="line2d_18">
      <path clip-path="url(#p7f0b8c9374)" d="M 63 223.154678 
L 453.6 223.154678 
" style="fill:none;stroke:#d3d3d3;stroke-linecap:square;stroke-opacity:0.5;stroke-width:0.8;"/>
     </g>
     <g id="line2d_19">
      <g>
       <use style="stroke:#000000;stroke-width:0.8;" x="63" xlink:href="#mfe5e1da3c3" y="223.154678"/>
      </g>
     </g>
     <g id="text_15">
      <!-- 400 -->
      <g transform="translate(36.9125 226.953897)scale(0.1 -0.1)">
       <use xlink:href="#DejaVuSans-52"/>
       <use x="63.623047" xlink:href="#DejaVuSans-48"/>
       <use x="127.246094" xlink:href="#DejaVuSans-48"/>
      </g>
     </g>
    </g>
    <g id="ytick_6">
     <g id="line2d_20">
      <path clip-path="url(#p7f0b8c9374)" d="M 63 176.087975 
L 453.6 176.087975 
" style="fill:none;stroke:#d3d3d3;stroke-linecap:square;stroke-opacity:0.5;stroke-width:0.8;"/>
     </g>
     <g id="line2d_21">
      <g>
       <use style="stroke:#000000;stroke-width:0.8;" x="63" xlink:href="#mfe5e1da3c3" y="176.087975"/>
      </g>
     </g>
     <g id="text_16">
      <!-- 450 -->
      <g transform="translate(36.9125 179.887194)scale(0.1 -0.1)">
       <use xlink:href="#DejaVuSans-52"/>
       <use x="63.623047" xlink:href="#DejaVuSans-53"/>
       <use x="127.246094" xlink:href="#DejaVuSans-48"/>
      </g>
     </g>
    </g>
    <g id="ytick_7">
     <g id="line2d_22">
      <path clip-path="url(#p7f0b8c9374)" d="M 63 129.021272 
L 453.6 129.021272 
" style="fill:none;stroke:#d3d3d3;stroke-linecap:square;stroke-opacity:0.5;stroke-width:0.8;"/>
     </g>
     <g id="line2d_23">
      <g>
       <use style="stroke:#000000;stroke-width:0.8;" x="63" xlink:href="#mfe5e1da3c3" y="129.021272"/>
      </g>
     </g>
     <g id="text_17">
      <!-- 500 -->
      <g transform="translate(36.9125 132.820491)scale(0.1 -0.1)">
       <use xlink:href="#DejaVuSans-53"/>
       <use x="63.623047" xlink:href="#DejaVuSans-48"/>
       <use x="127.246094" xlink:href="#DejaVuSans-48"/>
      </g>
     </g>
    </g>
    <g id="ytick_8">
     <g id="line2d_24">
      <path clip-path="url(#p7f0b8c9374)" d="M 63 81.954569 
L 453.6 81.954569 
" style="fill:none;stroke:#d3d3d3;stroke-linecap:square;stroke-opacity:0.5;stroke-width:0.8;"/>
     </g>
     <g id="line2d_25">
      <g>
       <use style="stroke:#000000;stroke-width:0.8;" x="63" xlink:href="#mfe5e1da3c3" y="81.954569"/>
      </g>
     </g>
     <g id="text_18">
      <!-- 550 -->
      <g transform="translate(36.9125 85.753788)scale(0.1 -0.1)">
       <use xlink:href="#DejaVuSans-53"/>
       <use x="63.623047" xlink:href="#DejaVuSans-53"/>
       <use x="127.246094" xlink:href="#DejaVuSans-48"/>
      </g>
     </g>
    </g>
    <g id="text_19">
     <!-- sales -->
     <defs>
      <path d="M 44.28125 53.078125 
L 44.28125 44.578125 
Q 40.484375 46.53125 36.375 47.5 
Q 32.28125 48.484375 27.875 48.484375 
Q 21.1875 48.484375 17.84375 46.4375 
Q 14.5 44.390625 14.5 40.28125 
Q 14.5 37.15625 16.890625 35.375 
Q 19.28125 33.59375 26.515625 31.984375 
L 29.59375 31.296875 
Q 39.15625 29.25 43.1875 25.515625 
Q 47.21875 21.78125 47.21875 15.09375 
Q 47.21875 7.46875 41.1875 3.015625 
Q 35.15625 -1.421875 24.609375 -1.421875 
Q 20.21875 -1.421875 15.453125 -0.5625 
Q 10.6875 0.296875 5.421875 2 
L 5.421875 11.28125 
Q 10.40625 8.6875 15.234375 7.390625 
Q 20.0625 6.109375 24.8125 6.109375 
Q 31.15625 6.109375 34.5625 8.28125 
Q 37.984375 10.453125 37.984375 14.40625 
Q 37.984375 18.0625 35.515625 20.015625 
Q 33.0625 21.96875 24.703125 23.78125 
L 21.578125 24.515625 
Q 13.234375 26.265625 9.515625 29.90625 
Q 5.8125 33.546875 5.8125 39.890625 
Q 5.8125 47.609375 11.28125 51.796875 
Q 16.75 56 26.8125 56 
Q 31.78125 56 36.171875 55.265625 
Q 40.578125 54.546875 44.28125 53.078125 
z
" id="DejaVuSans-115"/>
      <path d="M 34.28125 27.484375 
Q 23.390625 27.484375 19.1875 25 
Q 14.984375 22.515625 14.984375 16.5 
Q 14.984375 11.71875 18.140625 8.90625 
Q 21.296875 6.109375 26.703125 6.109375 
Q 34.1875 6.109375 38.703125 11.40625 
Q 43.21875 16.703125 43.21875 25.484375 
L 43.21875 27.484375 
z
M 52.203125 31.203125 
L 52.203125 0 
L 43.21875 0 
L 43.21875 8.296875 
Q 40.140625 3.328125 35.546875 0.953125 
Q 30.953125 -1.421875 24.3125 -1.421875 
Q 15.921875 -1.421875 10.953125 3.296875 
Q 6 8.015625 6 15.921875 
Q 6 25.140625 12.171875 29.828125 
Q 18.359375 34.515625 30.609375 34.515625 
L 43.21875 34.515625 
L 43.21875 35.40625 
Q 43.21875 41.609375 39.140625 45 
Q 35.0625 48.390625 27.6875 48.390625 
Q 23 48.390625 18.546875 47.265625 
Q 14.109375 46.140625 10.015625 43.890625 
L 10.015625 52.203125 
Q 14.9375 54.109375 19.578125 55.046875 
Q 24.21875 56 28.609375 56 
Q 40.484375 56 46.34375 49.84375 
Q 52.203125 43.703125 52.203125 31.203125 
z
" id="DejaVuSans-97"/>
      <path d="M 56.203125 29.59375 
L 56.203125 25.203125 
L 14.890625 25.203125 
Q 15.484375 15.921875 20.484375 11.0625 
Q 25.484375 6.203125 34.421875 6.203125 
Q 39.59375 6.203125 44.453125 7.46875 
Q 49.3125 8.734375 54.109375 11.28125 
L 54.109375 2.78125 
Q 49.265625 0.734375 44.1875 -0.34375 
Q 39.109375 -1.421875 33.890625 -1.421875 
Q 20.796875 -1.421875 13.15625 6.1875 
Q 5.515625 13.8125 5.515625 26.8125 
Q 5.515625 40.234375 12.765625 48.109375 
Q 20.015625 56 32.328125 56 
Q 43.359375 56 49.78125 48.890625 
Q 56.203125 41.796875 56.203125 29.59375 
z
M 47.21875 32.234375 
Q 47.125 39.59375 43.09375 43.984375 
Q 39.0625 48.390625 32.421875 48.390625 
Q 24.90625 48.390625 20.390625 44.140625 
Q 15.875 39.890625 15.1875 32.171875 
z
" id="DejaVuSans-101"/>
     </defs>
     <g transform="translate(30.832812 263.479062)rotate(-90)scale(0.1 -0.1)">
      <use xlink:href="#DejaVuSans-115"/>
      <use x="52.099609" xlink:href="#DejaVuSans-97"/>
      <use x="113.378906" xlink:href="#DejaVuSans-108"/>
      <use x="141.162109" xlink:href="#DejaVuSans-101"/>
      <use x="202.685547" xlink:href="#DejaVuSans-115"/>
     </g>
    </g>
   </g>
   <g id="PathCollection_1">
    <defs>
     <path d="M 0 10 
C 2.652031 10 5.195799 8.946337 7.071068 7.071068 
C 8.946337 5.195799 10 2.652031 10 0 
C 10 -2.652031 8.946337 -5.195799 7.071068 -7.071068 
C 5.195799 -8.946337 2.652031 -10 0 -10 
C -2.652031 -10 -5.195799 -8.946337 -7.071068 -7.071068 
C -8.946337 -5.195799 -10 -2.652031 -10 0 
C -10 2.652031 -8.946337 5.195799 -7.071068 7.071068 
C -5.195799 8.946337 -2.652031 10 0 10 
z
" id="C0_0_d63b8d6a8c"/>
    </defs>
    <g clip-path="url(#p7f0b8c9374)">
     <use style="fill:#bee6bf;stroke:#ffffff;stroke-width:1.6;" x="368.290351" xlink:href="#C0_0_d63b8d6a8c" y="423.703636"/>
    </g>
    <g clip-path="url(#p7f0b8c9374)">
     <use style="fill:#bee6bf;stroke:#ffffff;stroke-width:1.6;" x="375.557497" xlink:href="#C0_0_d63b8d6a8c" y="417.463118"/>
    </g>
    <g clip-path="url(#p7f0b8c9374)">
     <use style="fill:#bee6bf;stroke:#ffffff;stroke-width:1.6;" x="365.10603" xlink:href="#C0_0_d63b8d6a8c" y="404.944566"/>
    </g>
    <g clip-path="url(#p7f0b8c9374)">
     <use style="fill:#bee6bf;stroke:#ffffff;stroke-width:1.6;" x="366.460287" xlink:href="#C0_0_d63b8d6a8c" y="406.113241"/>
    </g>
    <g clip-path="url(#p7f0b8c9374)">
     <use style="fill:#bee6bf;stroke:#ffffff;stroke-width:1.6;" x="372.769569" xlink:href="#C0_0_d63b8d6a8c" y="402.061247"/>
    </g>
    <g clip-path="url(#p7f0b8c9374)">
     <use style="fill:#bee6bf;stroke:#ffffff;stroke-width:1.6;" x="384.346805" xlink:href="#C0_0_d63b8d6a8c" y="393.860063"/>
    </g>
    <g clip-path="url(#p7f0b8c9374)">
     <use style="fill:#bee6bf;stroke:#ffffff;stroke-width:1.6;" x="419.115305" xlink:href="#C0_0_d63b8d6a8c" y="407.860081"/>
    </g>
    <g clip-path="url(#p7f0b8c9374)">
     <use style="fill:#bee6bf;stroke:#ffffff;stroke-width:1.6;" x="435.845455" xlink:href="#C0_0_d63b8d6a8c" y="399.674174"/>
    </g>
    <g clip-path="url(#p7f0b8c9374)">
     <use style="fill:#bee6bf;stroke:#ffffff;stroke-width:1.6;" x="425.736013" xlink:href="#C0_0_d63b8d6a8c" y="392.036044"/>
    </g>
    <g clip-path="url(#p7f0b8c9374)">
     <use style="fill:#bee6bf;stroke:#ffffff;stroke-width:1.6;" x="407.07135" xlink:href="#C0_0_d63b8d6a8c" y="399.029519"/>
    </g>
    <g clip-path="url(#p7f0b8c9374)">
     <use style="fill:#bee6bf;stroke:#ffffff;stroke-width:1.6;" x="369.30894" xlink:href="#C0_0_d63b8d6a8c" y="382.111607"/>
    </g>
    <g clip-path="url(#p7f0b8c9374)">
     <use style="fill:#bee6bf;stroke:#ffffff;stroke-width:1.6;" x="386.698303" xlink:href="#C0_0_d63b8d6a8c" y="321.423947"/>
    </g>
    <g clip-path="url(#p7f0b8c9374)">
     <use style="fill:#9fdab8;stroke:#ffffff;stroke-width:1.6;" x="367.682912" xlink:href="#C0_0_d63b8d6a8c" y="277.430391"/>
    </g>
    <g clip-path="url(#p7f0b8c9374)">
     <use style="fill:#9fdab8;stroke:#ffffff;stroke-width:1.6;" x="400.509975" xlink:href="#C0_0_d63b8d6a8c" y="372.573677"/>
    </g>
    <g clip-path="url(#p7f0b8c9374)">
     <use style="fill:#9fdab8;stroke:#ffffff;stroke-width:1.6;" x="408.337564" xlink:href="#C0_0_d63b8d6a8c" y="252.654924"/>
    </g>
    <g clip-path="url(#p7f0b8c9374)">
     <use style="fill:#9fdab8;stroke:#ffffff;stroke-width:1.6;" x="406.924536" xlink:href="#C0_0_d63b8d6a8c" y="373.224897"/>
    </g>
    <g clip-path="url(#p7f0b8c9374)">
     <use style="fill:#9fdab8;stroke:#ffffff;stroke-width:1.6;" x="407.416537" xlink:href="#C0_0_d63b8d6a8c" y="371.694248"/>
    </g>
    <g clip-path="url(#p7f0b8c9374)">
     <use style="fill:#9fdab8;stroke:#ffffff;stroke-width:1.6;" x="432.133617" xlink:href="#C0_0_d63b8d6a8c" y="365.147893"/>
    </g>
    <g clip-path="url(#p7f0b8c9374)">
     <use style="fill:#9fdab8;stroke:#ffffff;stroke-width:1.6;" x="414.179085" xlink:href="#C0_0_d63b8d6a8c" y="268.73563"/>
    </g>
    <g clip-path="url(#p7f0b8c9374)">
     <use style="fill:#9fdab8;stroke:#ffffff;stroke-width:1.6;" x="387.988305" xlink:href="#C0_0_d63b8d6a8c" y="363.082287"/>
    </g>
    <g clip-path="url(#p7f0b8c9374)">
     <use style="fill:#9fdab8;stroke:#ffffff;stroke-width:1.6;" x="366.610784" xlink:href="#C0_0_d63b8d6a8c" y="247.129712"/>
    </g>
    <g clip-path="url(#p7f0b8c9374)">
     <use style="fill:#9fdab8;stroke:#ffffff;stroke-width:1.6;" x="330.104879" xlink:href="#C0_0_d63b8d6a8c" y="252.134904"/>
    </g>
    <g clip-path="url(#p7f0b8c9374)">
     <use style="fill:#9fdab8;stroke:#ffffff;stroke-width:1.6;" x="287.136654" xlink:href="#C0_0_d63b8d6a8c" y="238.163283"/>
    </g>
    <g clip-path="url(#p7f0b8c9374)">
     <use style="fill:#9fdab8;stroke:#ffffff;stroke-width:1.6;" x="212.136139" xlink:href="#C0_0_d63b8d6a8c" y="171.096856"/>
    </g>
    <g clip-path="url(#p7f0b8c9374)">
     <use style="fill:#7accc4;stroke:#ffffff;stroke-width:1.6;" x="161.71384" xlink:href="#C0_0_d63b8d6a8c" y="345.841951"/>
    </g>
    <g clip-path="url(#p7f0b8c9374)">
     <use style="fill:#7accc4;stroke:#ffffff;stroke-width:1.6;" x="172.959874" xlink:href="#C0_0_d63b8d6a8c" y="340.42533"/>
    </g>
    <g clip-path="url(#p7f0b8c9374)">
     <use style="fill:#7accc4;stroke:#ffffff;stroke-width:1.6;" x="155.712567" xlink:href="#C0_0_d63b8d6a8c" y="333.885099"/>
    </g>
    <g clip-path="url(#p7f0b8c9374)">
     <use style="fill:#7accc4;stroke:#ffffff;stroke-width:1.6;" x="190.196943" xlink:href="#C0_0_d63b8d6a8c" y="336.356558"/>
    </g>
    <g clip-path="url(#p7f0b8c9374)">
     <use style="fill:#7accc4;stroke:#ffffff;stroke-width:1.6;" x="212.186869" xlink:href="#C0_0_d63b8d6a8c" y="297.559496"/>
    </g>
    <g clip-path="url(#p7f0b8c9374)">
     <use style="fill:#7accc4;stroke:#ffffff;stroke-width:1.6;" x="212.912578" xlink:href="#C0_0_d63b8d6a8c" y="219.08084"/>
    </g>
    <g clip-path="url(#p7f0b8c9374)">
     <use style="fill:#7accc4;stroke:#ffffff;stroke-width:1.6;" x="173.871623" xlink:href="#C0_0_d63b8d6a8c" y="221.232221"/>
    </g>
    <g clip-path="url(#p7f0b8c9374)">
     <use style="fill:#7accc4;stroke:#ffffff;stroke-width:1.6;" x="132.080824" xlink:href="#C0_0_d63b8d6a8c" y="208.382978"/>
    </g>
    <g clip-path="url(#p7f0b8c9374)">
     <use style="fill:#7accc4;stroke:#ffffff;stroke-width:1.6;" x="149.354344" xlink:href="#C0_0_d63b8d6a8c" y="190.458331"/>
    </g>
    <g clip-path="url(#p7f0b8c9374)">
     <use style="fill:#7accc4;stroke:#ffffff;stroke-width:1.6;" x="148.083298" xlink:href="#C0_0_d63b8d6a8c" y="192.798135"/>
    </g>
    <g clip-path="url(#p7f0b8c9374)">
     <use style="fill:#7accc4;stroke:#ffffff;stroke-width:1.6;" x="135.796543" xlink:href="#C0_0_d63b8d6a8c" y="198.134256"/>
    </g>
    <g clip-path="url(#p7f0b8c9374)">
     <use style="fill:#7accc4;stroke:#ffffff;stroke-width:1.6;" x="111.330275" xlink:href="#C0_0_d63b8d6a8c" y="119.970983"/>
    </g>
    <g clip-path="url(#p7f0b8c9374)">
     <use style="fill:#57b8d0;stroke:#ffffff;stroke-width:1.6;" x="95.11264" xlink:href="#C0_0_d63b8d6a8c" y="191.102002"/>
    </g>
    <g clip-path="url(#p7f0b8c9374)">
     <use style="fill:#57b8d0;stroke:#ffffff;stroke-width:1.6;" x="80.754545" xlink:href="#C0_0_d63b8d6a8c" y="199.908059"/>
    </g>
    <g clip-path="url(#p7f0b8c9374)">
     <use style="fill:#57b8d0;stroke:#ffffff;stroke-width:1.6;" x="112.961861" xlink:href="#C0_0_d63b8d6a8c" y="205.51841"/>
    </g>
    <g clip-path="url(#p7f0b8c9374)">
     <use style="fill:#57b8d0;stroke:#ffffff;stroke-width:1.6;" x="122.008372" xlink:href="#C0_0_d63b8d6a8c" y="142.526315"/>
    </g>
    <g clip-path="url(#p7f0b8c9374)">
     <use style="fill:#57b8d0;stroke:#ffffff;stroke-width:1.6;" x="154.965758" xlink:href="#C0_0_d63b8d6a8c" y="177.442121"/>
    </g>
    <g clip-path="url(#p7f0b8c9374)">
     <use style="fill:#57b8d0;stroke:#ffffff;stroke-width:1.6;" x="160.164419" xlink:href="#C0_0_d63b8d6a8c" y="208.624069"/>
    </g>
    <g clip-path="url(#p7f0b8c9374)">
     <use style="fill:#57b8d0;stroke:#ffffff;stroke-width:1.6;" x="145.823582" xlink:href="#C0_0_d63b8d6a8c" y="199.879956"/>
    </g>
    <g clip-path="url(#p7f0b8c9374)">
     <use style="fill:#57b8d0;stroke:#ffffff;stroke-width:1.6;" x="140.934251" xlink:href="#C0_0_d63b8d6a8c" y="217.094944"/>
    </g>
    <g clip-path="url(#p7f0b8c9374)">
     <use style="fill:#57b8d0;stroke:#ffffff;stroke-width:1.6;" x="148.001883" xlink:href="#C0_0_d63b8d6a8c" y="204.957524"/>
    </g>
    <g clip-path="url(#p7f0b8c9374)">
     <use style="fill:#57b8d0;stroke:#ffffff;stroke-width:1.6;" x="165.018376" xlink:href="#C0_0_d63b8d6a8c" y="190.205945"/>
    </g>
    <g clip-path="url(#p7f0b8c9374)">
     <use style="fill:#57b8d0;stroke:#ffffff;stroke-width:1.6;" x="150.180126" xlink:href="#C0_0_d63b8d6a8c" y="165.775909"/>
    </g>
    <g clip-path="url(#p7f0b8c9374)">
     <use style="fill:#57b8d0;stroke:#ffffff;stroke-width:1.6;" x="178.898255" xlink:href="#C0_0_d63b8d6a8c" y="77.776364"/>
    </g>
    <g clip-path="url(#p7f0b8c9374)">
     <use style="fill:#389bc6;stroke:#ffffff;stroke-width:1.6;" x="184.623321" xlink:href="#C0_0_d63b8d6a8c" y="151.05151"/>
    </g>
    <g clip-path="url(#p7f0b8c9374)">
     <use style="fill:#389bc6;stroke:#ffffff;stroke-width:1.6;" x="186.024997" xlink:href="#C0_0_d63b8d6a8c" y="161.053488"/>
    </g>
    <g clip-path="url(#p7f0b8c9374)">
     <use style="fill:#389bc6;stroke:#ffffff;stroke-width:1.6;" x="162.884985" xlink:href="#C0_0_d63b8d6a8c" y="144.646823"/>
    </g>
    <g clip-path="url(#p7f0b8c9374)">
     <use style="fill:#389bc6;stroke:#ffffff;stroke-width:1.6;" x="175.117527" xlink:href="#C0_0_d63b8d6a8c" y="143.718683"/>
    </g>
    <g clip-path="url(#p7f0b8c9374)">
     <use style="fill:#389bc6;stroke:#ffffff;stroke-width:1.6;" x="162.813329" xlink:href="#C0_0_d63b8d6a8c" y="141.105369"/>
    </g>
    <g clip-path="url(#p7f0b8c9374)">
     <use style="fill:#389bc6;stroke:#ffffff;stroke-width:1.6;" x="143.096097" xlink:href="#C0_0_d63b8d6a8c" y="147.460184"/>
    </g>
    <g clip-path="url(#p7f0b8c9374)">
     <use style="fill:#389bc6;stroke:#ffffff;stroke-width:1.6;" x="159.598129" xlink:href="#C0_0_d63b8d6a8c" y="139.407649"/>
    </g>
    <g clip-path="url(#p7f0b8c9374)">
     <use style="fill:#389bc6;stroke:#ffffff;stroke-width:1.6;" x="156.72974" xlink:href="#C0_0_d63b8d6a8c" y="161.831574"/>
    </g>
   </g>
   <g id="PathCollection_2"/>
   <g id="PathCollection_3"/>
   <g id="PathCollection_4"/>
   <g id="PathCollection_5"/>
   <g id="PathCollection_6"/>
   <g id="patch_3">
    <path d="M 63 441 
L 63 60.48 
" style="fill:none;stroke:#000000;stroke-linecap:square;stroke-linejoin:miter;stroke-width:0.8;"/>
   </g>
   <g id="patch_4">
    <path d="M 63 441 
L 453.6 441 
" style="fill:none;stroke:#000000;stroke-linecap:square;stroke-linejoin:miter;stroke-width:0.8;"/>
   </g>
   <g id="legend_1">
    <g id="patch_5">
     <path d="M 389.15 156.54875 
L 446.6 156.54875 
Q 448.6 156.54875 448.6 154.54875 
L 448.6 67.48 
Q 448.6 65.48 446.6 65.48 
L 389.15 65.48 
Q 387.15 65.48 387.15 67.48 
L 387.15 154.54875 
Q 387.15 156.54875 389.15 156.54875 
z
" style="fill:#ffffff;opacity:0.8;stroke:#cccccc;stroke-linejoin:miter;"/>
    </g>
    <g id="text_20">
     <!-- year -->
     <defs>
      <path d="M 32.171875 -5.078125 
Q 28.375 -14.84375 24.75 -17.8125 
Q 21.140625 -20.796875 15.09375 -20.796875 
L 7.90625 -20.796875 
L 7.90625 -13.28125 
L 13.1875 -13.28125 
Q 16.890625 -13.28125 18.9375 -11.515625 
Q 21 -9.765625 23.484375 -3.21875 
L 25.09375 0.875 
L 2.984375 54.6875 
L 12.5 54.6875 
L 29.59375 11.921875 
L 46.6875 54.6875 
L 56.203125 54.6875 
z
" id="DejaVuSans-121"/>
      <path d="M 41.109375 46.296875 
Q 39.59375 47.171875 37.8125 47.578125 
Q 36.03125 48 33.890625 48 
Q 26.265625 48 22.1875 43.046875 
Q 18.109375 38.09375 18.109375 28.8125 
L 18.109375 0 
L 9.078125 0 
L 9.078125 54.6875 
L 18.109375 54.6875 
L 18.109375 46.1875 
Q 20.953125 51.171875 25.484375 53.578125 
Q 30.03125 56 36.53125 56 
Q 37.453125 56 38.578125 55.875 
Q 39.703125 55.765625 41.0625 55.515625 
z
" id="DejaVuSans-114"/>
     </defs>
     <g transform="translate(406.719531 77.078438)scale(0.1 -0.1)">
      <use xlink:href="#DejaVuSans-121"/>
      <use x="59.179688" xlink:href="#DejaVuSans-101"/>
      <use x="120.703125" xlink:href="#DejaVuSans-97"/>
      <use x="181.982422" xlink:href="#DejaVuSans-114"/>
     </g>
    </g>
    <g id="PathCollection_7">
     <defs>
      <path d="M 0 3 
C 0.795609 3 1.55874 2.683901 2.12132 2.12132 
C 2.683901 1.55874 3 0.795609 3 0 
C 3 -0.795609 2.683901 -1.55874 2.12132 -2.12132 
C 1.55874 -2.683901 0.795609 -3 0 -3 
C -0.795609 -3 -1.55874 -2.683901 -2.12132 -2.12132 
C -2.683901 -1.55874 -3 -0.795609 -3 0 
C -3 0.795609 -2.683901 1.55874 -2.12132 2.12132 
C -1.55874 2.683901 -0.795609 3 0 3 
z
" id="m54041b9933" style="stroke:#bee6bf;"/>
     </defs>
     <g>
      <use style="fill:#bee6bf;stroke:#bee6bf;" x="401.15" xlink:href="#m54041b9933" y="89.131563"/>
     </g>
    </g>
    <g id="text_21">
     <!-- 2013 -->
     <g transform="translate(419.15 91.756563)scale(0.1 -0.1)">
      <use xlink:href="#DejaVuSans-50"/>
      <use x="63.623047" xlink:href="#DejaVuSans-48"/>
      <use x="127.246094" xlink:href="#DejaVuSans-49"/>
      <use x="190.869141" xlink:href="#DejaVuSans-51"/>
     </g>
    </g>
    <g id="PathCollection_8">
     <defs>
      <path d="M 0 3 
C 0.795609 3 1.55874 2.683901 2.12132 2.12132 
C 2.683901 1.55874 3 0.795609 3 0 
C 3 -0.795609 2.683901 -1.55874 2.12132 -2.12132 
C 1.55874 -2.683901 0.795609 -3 0 -3 
C -0.795609 -3 -1.55874 -2.683901 -2.12132 -2.12132 
C -2.683901 -1.55874 -3 -0.795609 -3 0 
C -3 0.795609 -2.683901 1.55874 -2.12132 2.12132 
C -1.55874 2.683901 -0.795609 3 0 3 
z
" id="me6c6859f15" style="stroke:#9fdab8;"/>
     </defs>
     <g>
      <use style="fill:#9fdab8;stroke:#9fdab8;" x="401.15" xlink:href="#me6c6859f15" y="103.809688"/>
     </g>
    </g>
    <g id="text_22">
     <!-- 2014 -->
     <g transform="translate(419.15 106.434688)scale(0.1 -0.1)">
      <use xlink:href="#DejaVuSans-50"/>
      <use x="63.623047" xlink:href="#DejaVuSans-48"/>
      <use x="127.246094" xlink:href="#DejaVuSans-49"/>
      <use x="190.869141" xlink:href="#DejaVuSans-52"/>
     </g>
    </g>
    <g id="PathCollection_9">
     <defs>
      <path d="M 0 3 
C 0.795609 3 1.55874 2.683901 2.12132 2.12132 
C 2.683901 1.55874 3 0.795609 3 0 
C 3 -0.795609 2.683901 -1.55874 2.12132 -2.12132 
C 1.55874 -2.683901 0.795609 -3 0 -3 
C -0.795609 -3 -1.55874 -2.683901 -2.12132 -2.12132 
C -2.683901 -1.55874 -3 -0.795609 -3 0 
C -3 0.795609 -2.683901 1.55874 -2.12132 2.12132 
C -1.55874 2.683901 -0.795609 3 0 3 
z
" id="mbc2a00905d" style="stroke:#7accc4;"/>
     </defs>
     <g>
      <use style="fill:#7accc4;stroke:#7accc4;" x="401.15" xlink:href="#mbc2a00905d" y="118.487813"/>
     </g>
    </g>
    <g id="text_23">
     <!-- 2015 -->
     <g transform="translate(419.15 121.112813)scale(0.1 -0.1)">
      <use xlink:href="#DejaVuSans-50"/>
      <use x="63.623047" xlink:href="#DejaVuSans-48"/>
      <use x="127.246094" xlink:href="#DejaVuSans-49"/>
      <use x="190.869141" xlink:href="#DejaVuSans-53"/>
     </g>
    </g>
    <g id="PathCollection_10">
     <defs>
      <path d="M 0 3 
C 0.795609 3 1.55874 2.683901 2.12132 2.12132 
C 2.683901 1.55874 3 0.795609 3 0 
C 3 -0.795609 2.683901 -1.55874 2.12132 -2.12132 
C 1.55874 -2.683901 0.795609 -3 0 -3 
C -0.795609 -3 -1.55874 -2.683901 -2.12132 -2.12132 
C -2.683901 -1.55874 -3 -0.795609 -3 0 
C -3 0.795609 -2.683901 1.55874 -2.12132 2.12132 
C -1.55874 2.683901 -0.795609 3 0 3 
z
" id="mf0c7190bd5" style="stroke:#57b8d0;"/>
     </defs>
     <g>
      <use style="fill:#57b8d0;stroke:#57b8d0;" x="401.15" xlink:href="#mf0c7190bd5" y="133.165938"/>
     </g>
    </g>
    <g id="text_24">
     <!-- 2016 -->
     <g transform="translate(419.15 135.790938)scale(0.1 -0.1)">
      <use xlink:href="#DejaVuSans-50"/>
      <use x="63.623047" xlink:href="#DejaVuSans-48"/>
      <use x="127.246094" xlink:href="#DejaVuSans-49"/>
      <use x="190.869141" xlink:href="#DejaVuSans-54"/>
     </g>
    </g>
    <g id="PathCollection_11">
     <defs>
      <path d="M 0 3 
C 0.795609 3 1.55874 2.683901 2.12132 2.12132 
C 2.683901 1.55874 3 0.795609 3 0 
C 3 -0.795609 2.683901 -1.55874 2.12132 -2.12132 
C 1.55874 -2.683901 0.795609 -3 0 -3 
C -0.795609 -3 -1.55874 -2.683901 -2.12132 -2.12132 
C -2.683901 -1.55874 -3 -0.795609 -3 0 
C -3 0.795609 -2.683901 1.55874 -2.12132 2.12132 
C -1.55874 2.683901 -0.795609 3 0 3 
z
" id="mf32922a621" style="stroke:#389bc6;"/>
     </defs>
     <g>
      <use style="fill:#389bc6;stroke:#389bc6;" x="401.15" xlink:href="#mf32922a621" y="147.844063"/>
     </g>
    </g>
    <g id="text_25">
     <!-- 2017 -->
     <g transform="translate(419.15 150.469063)scale(0.1 -0.1)">
      <use xlink:href="#DejaVuSans-50"/>
      <use x="63.623047" xlink:href="#DejaVuSans-48"/>
      <use x="127.246094" xlink:href="#DejaVuSans-49"/>
      <use x="190.869141" xlink:href="#DejaVuSans-55"/>
     </g>
    </g>
   </g>
  </g>
 </g>
 <defs>
  <clipPath id="p7f0b8c9374">
   <rect height="380.52" width="390.6" x="63" y="60.48"/>
  </clipPath>
 </defs>
</svg>
