<svg id="Capa_1" data-name="Capa 1" xmlns="http://www.w3.org/2000/svg" viewBox="0 0 552.73 446.9"><defs><style>.cls-1{fill:#4a98c9;}.cls-1,.cls-10,.cls-11,.cls-12,.cls-13,.cls-2,.cls-3,.cls-4,.cls-5,.cls-6,.cls-7,.cls-8,.cls-9{stroke:#fff;}.cls-2{fill:#a6cee4;}.cls-3{fill:#e3eef9;}.cls-4{fill:#f07818;}.cls-5{fill:#fb9225;}.cls-6{fill:#feae3b;}.cls-7{fill:#fec857;}.cls-8{fill:#fedc82;}.cls-9{fill:#feeba2;}.cls-10{fill:#e53592;}.cls-11{fill:#1764ab;}.cls-12{fill:#b84203;}.cls-13{fill:#b80b4e;}</style></defs><g id="patch_2" data-name="patch 2"><path class="cls-1" d="M495.11,296.57a203.83,203.83,0,0,0-1-20.37q-1-10.17-3-20.18l-60.81,12.16c.94,4.67,1.64,9.39,2.11,14.13s.71,9.5.71,14.26Z" transform="translate(-11.21 -66.68)"/></g><g id="patch_3" data-name="patch 3"><path class="cls-2" d="M491.09,256a206.72,206.72,0,0,0-385.61-55.77l54.88,28.9a144.7,144.7,0,0,1,269.92,39Z" transform="translate(-11.21 -66.68)"/></g><g id="patch_4" data-name="patch 4"><path class="cls-3" d="M105.48,200.25q-1.73,3.28-3.34,6.63T99,213.62l56.81,24.89c.69-1.59,1.42-3.16,2.17-4.72s1.53-3.11,2.34-4.64Z" transform="translate(-11.21 -66.68)"/></g><g id="patch_5" data-name="patch 5"><path class="cls-4" d="M99,213.62a206.78,206.78,0,0,0-7.82,145.07l59.15-18.64a144.75,144.75,0,0,1,5.48-101.54Z" transform="translate(-11.21 -66.68)"/></g><g id="patch_6" data-name="patch 6"><path class="cls-5" d="M91.22,358.69c.93,2.95,1.93,5.87,3,8.78s2.19,5.78,3.38,8.64l57.24-23.86c-.84-2-1.62-4-2.37-6.05s-1.44-4.08-2.09-6.15Z" transform="translate(-11.21 -66.68)"/></g><g id="patch_7" data-name="patch 7"><path class="cls-6" d="M97.59,376.11A206.69,206.69,0,0,0,253.31,500.29l10.52-61.11a144.69,144.69,0,0,1-109-86.93Z" transform="translate(-11.21 -66.68)"/></g><g id="patch_8" data-name="patch 8"><path class="cls-7" d="M253.31,500.29A206.7,206.7,0,0,0,451.16,424l-48.83-38.22a144.71,144.71,0,0,1-138.5,53.4Z" transform="translate(-11.21 -66.68)"/></g><g id="patch_9" data-name="patch 9"><path class="cls-8" d="M451.16,424q4.57-5.83,8.73-12t7.83-12.6l-53.8-30.85c-1.72,3-3.55,5.95-5.48,8.82s-4,5.68-6.11,8.41Z" transform="translate(-11.21 -66.68)"/></g><g id="patch_10" data-name="patch 10"><path class="cls-9" d="M467.72,399.4q2.31-4,4.44-8.15t4.06-8.34L419.87,357q-1.35,2.94-2.84,5.84t-3.11,5.7Z" transform="translate(-11.21 -66.68)"/></g><g id="patch_11" data-name="patch 11"><path class="cls-10" d="M476.22,382.91a206.87,206.87,0,0,0,18.89-86.34h-62A144.88,144.88,0,0,1,419.87,357Z" transform="translate(-11.21 -66.68)"/></g><g id="patch_12" data-name="patch 12"><path class="cls-11" d="M433.1,296.57a144.71,144.71,0,0,0-277.25-58.06l56.8,24.88a82.69,82.69,0,0,1,158.43,33.18Z" transform="translate(-11.21 -66.68)"/></g><g id="patch_13" data-name="patch 13"><path class="cls-12" d="M155.85,238.51a144.7,144.7,0,0,0,264,118.5l-56.35-25.9a82.69,82.69,0,0,1-150.87-67.72Z" transform="translate(-11.21 -66.68)"/></g><g id="patch_14" data-name="patch 14"><path class="cls-13" d="M419.87,357a144.88,144.88,0,0,0,13.23-60.44h-62a82.59,82.59,0,0,1-7.56,34.54Z" transform="translate(-11.21 -66.68)"/></g><g id="text_1" data-name="text 1"><path id="DejaVuSans-65" d="M518.09,270.6l-1.33,3.63h2.68Zm-.55-1h1.12l2.77,7.29h-1l-.67-1.87h-3.28l-.67,1.87h-1Z" transform="translate(-11.21 -66.68)"/><path id="DejaVuSans-100" d="M525.88,272.28v-3h.9v7.6h-.9v-.82a1.89,1.89,0,0,1-.71.72,2.13,2.13,0,0,1-1,.24,1.94,1.94,0,0,1-1.61-.79,3.75,3.75,0,0,1,0-4.16,1.94,1.94,0,0,1,1.61-.79,2.25,2.25,0,0,1,1,.23A1.85,1.85,0,0,1,525.88,272.28Zm-3.06,1.91a2.6,2.6,0,0,0,.41,1.55,1.39,1.39,0,0,0,2.24,0,2.53,2.53,0,0,0,.41-1.55,2.58,2.58,0,0,0-.41-1.56,1.4,1.4,0,0,0-2.24,0A2.65,2.65,0,0,0,522.82,274.19Z" transform="translate(-11.21 -66.68)"/><path id="DejaVuSans-100-2" data-name="DejaVuSans-100" d="M532.23,272.28v-3h.9v7.6h-.9v-.82a1.91,1.91,0,0,1-.72.72,2.06,2.06,0,0,1-1,.24,2,2,0,0,1-1.62-.79,3.8,3.8,0,0,1,0-4.16,2,2,0,0,1,1.62-.79,2.18,2.18,0,0,1,1,.23A1.87,1.87,0,0,1,532.23,272.28Zm-3.06,1.91a2.53,2.53,0,0,0,.41,1.55,1.39,1.39,0,0,0,2.24,0,2.6,2.6,0,0,0,.41-1.55,2.65,2.65,0,0,0-.41-1.56,1.4,1.4,0,0,0-2.24,0A2.58,2.58,0,0,0,529.17,274.19Z" transform="translate(-11.21 -66.68)"/><path id="DejaVuSans-105" d="M535,271.45h.9v5.47H535Zm0-2.13h.9v1.14H535Z" transform="translate(-11.21 -66.68)"/><path id="DejaVuSans-116" d="M538.65,269.9v1.55h1.85v.7h-1.85v3a1.32,1.32,0,0,0,.18.85,1,1,0,0,0,.74.2h.93v.75h-.93a2,2,0,0,1-1.43-.39,2,2,0,0,1-.4-1.41v-3h-.66v-.7h.66V269.9Z" transform="translate(-11.21 -66.68)"/><path id="DejaVuSans-105-2" data-name="DejaVuSans-105" d="M541.68,271.45h.9v5.47h-.9Zm0-2.13h.9v1.14h-.9Z" transform="translate(-11.21 -66.68)"/><path id="DejaVuSans-111" d="M546.58,272.08a1.36,1.36,0,0,0-1.15.56,2.55,2.55,0,0,0-.42,1.55,2.51,2.51,0,0,0,.42,1.54,1.42,1.42,0,0,0,2.28,0,3,3,0,0,0,0-3.08A1.34,1.34,0,0,0,546.58,272.08Zm0-.76a2.32,2.32,0,0,1,1.84.76,3.12,3.12,0,0,1,.67,2.11,3.16,3.16,0,0,1-.67,2.11,2.62,2.62,0,0,1-3.69,0,3.15,3.15,0,0,1-.66-2.11,3.12,3.12,0,0,1,.66-2.11A2.33,2.33,0,0,1,546.58,271.32Z" transform="translate(-11.21 -66.68)"/><path id="DejaVuSans-110" d="M555.12,273.62v3.3h-.9v-3.27a1.9,1.9,0,0,0-.3-1.17,1.09,1.09,0,0,0-.91-.38,1.48,1.48,0,0,0-1.15.46,1.82,1.82,0,0,0-.42,1.27v3.09h-.9v-5.47h.9v.85a2.23,2.23,0,0,1,.76-.74,2.07,2.07,0,0,1,1-.24,1.74,1.74,0,0,1,1.43.58A2.65,2.65,0,0,1,555.12,273.62Z" transform="translate(-11.21 -66.68)"/><path id="DejaVuSans-97" d="M559.4,274.17a3.15,3.15,0,0,0-1.51.25.9.9,0,0,0-.42.85,1,1,0,0,0,.31.76,1.29,1.29,0,0,0,.86.28,1.51,1.51,0,0,0,1.2-.53,2.13,2.13,0,0,0,.45-1.41v-.2Zm1.79-.37v3.12h-.9v-.83a2,2,0,0,1-.76.73,2.45,2.45,0,0,1-1.13.24,1.86,1.86,0,0,1-1.33-.47,1.69,1.69,0,0,1-.5-1.27,1.66,1.66,0,0,1,.62-1.39,3,3,0,0,1,1.84-.46h1.26v-.09a1.14,1.14,0,0,0-.41-1,1.71,1.71,0,0,0-1.14-.34,3.91,3.91,0,0,0-.91.11,3.76,3.76,0,0,0-.86.34v-.83a5.48,5.48,0,0,1,1-.29,4.73,4.73,0,0,1,.9-.09,2.33,2.33,0,0,1,1.77.61A2.58,2.58,0,0,1,561.19,273.8Z" transform="translate(-11.21 -66.68)"/><path id="DejaVuSans-108" d="M563,269.32h.9v7.6H563Z" transform="translate(-11.21 -66.68)"/></g><g id="text_2" data-name="text 2"><path id="DejaVuSans-51" d="M460.75,282.09a1.87,1.87,0,0,1,1.1.63,1.76,1.76,0,0,1,.4,1.18,2,2,0,0,1-.74,1.67,3.35,3.35,0,0,1-2.11.59,5.26,5.26,0,0,1-.95-.09,7.14,7.14,0,0,1-1-.27v-.95a3.26,3.26,0,0,0,.9.36,4.19,4.19,0,0,0,1,.12,2.26,2.26,0,0,0,1.41-.37,1.38,1.38,0,0,0,0-2.07,2,2,0,0,0-1.26-.36h-.85v-.81h.89a1.86,1.86,0,0,0,1.11-.29,1,1,0,0,0,.39-.84,1,1,0,0,0-.4-.86,1.89,1.89,0,0,0-1.14-.3,5.52,5.52,0,0,0-.87.08,7.21,7.21,0,0,0-1,.28v-.88a10.27,10.27,0,0,1,1.05-.24,6.19,6.19,0,0,1,.93-.07,2.78,2.78,0,0,1,1.77.51,1.65,1.65,0,0,1,.66,1.38,1.56,1.56,0,0,1-.35,1A1.82,1.82,0,0,1,460.75,282.09Z" transform="translate(-11.21 -66.68)"/><path id="DejaVuSans-37" d="M470.32,282.81a.77.77,0,0,0-.67.36,2.22,2.22,0,0,0,0,2,.77.77,0,0,0,.67.36.75.75,0,0,0,.66-.36,2.22,2.22,0,0,0,0-2A.75.75,0,0,0,470.32,282.81Zm0-.62a1.53,1.53,0,0,1,1.23.54,2.17,2.17,0,0,1,.45,1.45,2.14,2.14,0,0,1-.46,1.45,1.53,1.53,0,0,1-1.22.53,1.57,1.57,0,0,1-1.24-.53,2.19,2.19,0,0,1-.45-1.45,2.15,2.15,0,0,1,.46-1.46A1.54,1.54,0,0,1,470.32,282.19Zm-5-3a.75.75,0,0,0-.66.36,1.78,1.78,0,0,0-.24,1,1.84,1.84,0,0,0,.24,1,.75.75,0,0,0,.66.36.77.77,0,0,0,.67-.36,2.22,2.22,0,0,0,0-2A.78.78,0,0,0,465.28,279.22Zm4.41-.62h.78l-4.56,7.56h-.78Zm-4.41,0a1.51,1.51,0,0,1,1.23.53,2.52,2.52,0,0,1,0,2.9,1.67,1.67,0,0,1-2.46,0,2.19,2.19,0,0,1-.45-1.45,2.14,2.14,0,0,1,.46-1.45A1.53,1.53,0,0,1,465.28,278.6Z" transform="translate(-11.21 -66.68)"/></g><g id="text_3" data-name="text 3"><path id="DejaVuSans-72" d="M321.92,67h1v3h3.59V67h1v7.29h-1V70.81H322.9v3.47h-1Z" transform="translate(-11.21 -66.68)"/><path id="DejaVuSans-111-2" data-name="DejaVuSans-111" d="M331.52,69.44a1.36,1.36,0,0,0-1.15.57,2.51,2.51,0,0,0-.42,1.54,2.55,2.55,0,0,0,.42,1.55,1.36,1.36,0,0,0,1.15.56,1.33,1.33,0,0,0,1.13-.56,2.57,2.57,0,0,0,.42-1.55,2.54,2.54,0,0,0-.42-1.54A1.31,1.31,0,0,0,331.52,69.44Zm0-.76a2.35,2.35,0,0,1,1.84.76,3.66,3.66,0,0,1,0,4.22,2.62,2.62,0,0,1-3.69,0,3.7,3.7,0,0,1,0-4.22A2.36,2.36,0,0,1,331.52,68.68Z" transform="translate(-11.21 -66.68)"/><path id="DejaVuSans-108-2" data-name="DejaVuSans-108" d="M335.52,66.68h.89v7.6h-.89Z" transform="translate(-11.21 -66.68)"/><path id="DejaVuSans-105-3" data-name="DejaVuSans-105" d="M338.29,68.81h.9v5.47h-.9Zm0-2.13h.9v1.14h-.9Z" transform="translate(-11.21 -66.68)"/><path id="DejaVuSans-100-3" data-name="DejaVuSans-100" d="M344.67,69.64v-3h.9v7.6h-.9v-.82a1.92,1.92,0,0,1-.71.73,2.25,2.25,0,0,1-1,.23,2,2,0,0,1-1.62-.79,3.8,3.8,0,0,1,0-4.16,2,2,0,0,1,1.62-.79,2.13,2.13,0,0,1,1,.24A2,2,0,0,1,344.67,69.64Zm-3.06,1.91a2.65,2.65,0,0,0,.41,1.56,1.4,1.4,0,0,0,2.24,0,2.65,2.65,0,0,0,.41-1.56,2.6,2.6,0,0,0-.41-1.55A1.39,1.39,0,0,0,342,70,2.6,2.6,0,0,0,341.61,71.55Z" transform="translate(-11.21 -66.68)"/><path id="DejaVuSans-97-2" data-name="DejaVuSans-97" d="M349.91,71.53a3.28,3.28,0,0,0-1.51.25.91.91,0,0,0-.42.85,1,1,0,0,0,.31.76,1.24,1.24,0,0,0,.86.28,1.51,1.51,0,0,0,1.2-.53,2.09,2.09,0,0,0,.45-1.41v-.2Zm1.79-.37v3.12h-.9v-.83a2,2,0,0,1-.77.74,2.51,2.51,0,0,1-1.12.23,1.86,1.86,0,0,1-1.34-.47,1.64,1.64,0,0,1-.49-1.26,1.61,1.61,0,0,1,.62-1.39,3,3,0,0,1,1.84-.47h1.26v-.09a1.2,1.2,0,0,0-.41-1,1.76,1.76,0,0,0-1.14-.34,3.52,3.52,0,0,0-.92.12,3.4,3.4,0,0,0-.85.33v-.83a5.42,5.42,0,0,1,1-.28,4.07,4.07,0,0,1,.9-.1,2.34,2.34,0,0,1,1.77.62A2.61,2.61,0,0,1,351.7,71.16Z" transform="translate(-11.21 -66.68)"/><path id="DejaVuSans-121" d="M355.82,74.79a3.22,3.22,0,0,1-.74,1.27,1.45,1.45,0,0,1-1,.3h-.72v-.75h.53a.85.85,0,0,0,.57-.18,2,2,0,0,0,.45-.83l.17-.41-2.22-5.38h1l1.71,4.28,1.71-4.28h1Z" transform="translate(-11.21 -66.68)"/></g><g id="text_4" data-name="text 4"><path id="DejaVuSans-51-2" data-name="DejaVuSans-51" d="M317.54,129.9a1.87,1.87,0,0,1,1.1.63,1.76,1.76,0,0,1,.4,1.18,2,2,0,0,1-.74,1.67,3.35,3.35,0,0,1-2.11.59,5.26,5.26,0,0,1-.95-.09,6.79,6.79,0,0,1-1-.27v-1a3.26,3.26,0,0,0,.9.36,4.19,4.19,0,0,0,1,.12,2.26,2.26,0,0,0,1.41-.37,1.24,1.24,0,0,0,.49-1.06,1.22,1.22,0,0,0-.45-1,2,2,0,0,0-1.26-.36h-.85v-.81h.89a1.86,1.86,0,0,0,1.11-.29,1,1,0,0,0,.39-.84,1,1,0,0,0-.4-.86,1.89,1.89,0,0,0-1.14-.3,4.59,4.59,0,0,0-.87.09,6,6,0,0,0-1,.27v-.88a9.7,9.7,0,0,1,1.05-.24,6.19,6.19,0,0,1,.93-.07,2.78,2.78,0,0,1,1.77.51,1.65,1.65,0,0,1,.66,1.38,1.56,1.56,0,0,1-.35,1A1.82,1.82,0,0,1,317.54,129.9Z" transform="translate(-11.21 -66.68)"/><path id="DejaVuSans-57" d="M320.94,133.68v-.9a3.76,3.76,0,0,0,.75.27,3.2,3.2,0,0,0,.75.09,1.77,1.77,0,0,0,1.49-.66,3.53,3.53,0,0,0,.59-2,1.92,1.92,0,0,1-.72.64,2.06,2.06,0,0,1-1,.23,2.28,2.28,0,0,1-1.73-.66,2.83,2.83,0,0,1,0-3.61,2.36,2.36,0,0,1,1.77-.68,2.19,2.19,0,0,1,1.93,1,4.88,4.88,0,0,1,.67,2.81,4.25,4.25,0,0,1-.82,2.75,2.65,2.65,0,0,1-2.2,1,3.81,3.81,0,0,1-.75-.07A6.76,6.76,0,0,1,320.94,133.68Zm2-3.09a1.3,1.3,0,0,0,1.05-.46,1.84,1.84,0,0,0,.39-1.24,1.87,1.87,0,0,0-.39-1.25,1.45,1.45,0,0,0-2.1,0,1.87,1.87,0,0,0-.39,1.25,1.84,1.84,0,0,0,.39,1.24A1.3,1.3,0,0,0,322.9,130.59Z" transform="translate(-11.21 -66.68)"/><path id="DejaVuSans-37-2" data-name="DejaVuSans-37" d="M333.47,130.62a.75.75,0,0,0-.66.36,2.15,2.15,0,0,0,0,2,.79.79,0,0,0,1.32,0,2.22,2.22,0,0,0,0-2A.75.75,0,0,0,333.47,130.62Zm0-.62a1.52,1.52,0,0,1,1.23.54,2.56,2.56,0,0,1,0,2.9,1.57,1.57,0,0,1-1.23.53,1.54,1.54,0,0,1-1.23-.53,2.14,2.14,0,0,1-.46-1.45,2.22,2.22,0,0,1,.46-1.46A1.54,1.54,0,0,1,333.47,130Zm-5-3a.75.75,0,0,0-.66.36,1.8,1.8,0,0,0-.24,1,1.84,1.84,0,0,0,.24,1,.79.79,0,0,0,1.33,0,2.22,2.22,0,0,0,0-2A.78.78,0,0,0,328.43,127Zm4.41-.62h.78L329.06,134h-.78Zm-4.41,0a1.51,1.51,0,0,1,1.23.53,2.14,2.14,0,0,1,.46,1.45,2.17,2.17,0,0,1-.45,1.45,1.55,1.55,0,0,1-1.24.54,1.51,1.51,0,0,1-1.22-.54,2.52,2.52,0,0,1,0-2.9A1.53,1.53,0,0,1,328.43,126.41Z" transform="translate(-11.21 -66.68)"/></g><g id="text_5" data-name="text 5"><path id="DejaVuSans-84" d="M43.29,193.38h6.16v.83H46.87v6.46h-1v-6.46H43.29Z" transform="translate(-11.21 -66.68)"/><path id="DejaVuSans-114" d="M52.06,196a1.2,1.2,0,0,0-.33-.13,1.61,1.61,0,0,0-.39,0,1.43,1.43,0,0,0-1.17.5,2.18,2.18,0,0,0-.41,1.42v2.88h-.9V195.2h.9v.85a1.88,1.88,0,0,1,.74-.74,2.32,2.32,0,0,1,1.1-.24h.21l.25,0Z" transform="translate(-11.21 -66.68)"/><path id="DejaVuSans-97-3" data-name="DejaVuSans-97" d="M55.49,197.92a3.28,3.28,0,0,0-1.51.25.91.91,0,0,0-.42.85,1,1,0,0,0,.31.76,1.24,1.24,0,0,0,.86.28,1.51,1.51,0,0,0,1.2-.53,2.09,2.09,0,0,0,.45-1.41v-.2Zm1.79-.37v3.12h-.9v-.83a2,2,0,0,1-.76.74,2.59,2.59,0,0,1-1.13.23,1.82,1.82,0,0,1-1.33-.47,1.65,1.65,0,0,1-.5-1.26,1.63,1.63,0,0,1,.62-1.39,3,3,0,0,1,1.84-.47h1.26v-.09a1.17,1.17,0,0,0-.41-1,1.71,1.71,0,0,0-1.14-.34,3.91,3.91,0,0,0-.91.11,3.76,3.76,0,0,0-.86.34v-.83a5.42,5.42,0,0,1,1-.28,4.07,4.07,0,0,1,.9-.1,2.34,2.34,0,0,1,1.77.62A2.57,2.57,0,0,1,57.28,197.55Z" transform="translate(-11.21 -66.68)"/><path id="DejaVuSans-110-2" data-name="DejaVuSans-110" d="M63.68,197.37v3.3h-.9V197.4a1.85,1.85,0,0,0-.3-1.16,1.1,1.1,0,0,0-.91-.39,1.47,1.47,0,0,0-1.15.47,1.79,1.79,0,0,0-.42,1.26v3.09h-.9V195.2H60v.85a2.23,2.23,0,0,1,.76-.74,2.07,2.07,0,0,1,1-.24,1.72,1.72,0,0,1,1.42.58A2.59,2.59,0,0,1,63.68,197.37Z" transform="translate(-11.21 -66.68)"/><path id="DejaVuSans-115" d="M69,195.36v.85a3.55,3.55,0,0,0-.79-.29,3.88,3.88,0,0,0-.85-.1,1.91,1.91,0,0,0-1,.21.66.66,0,0,0-.33.61.58.58,0,0,0,.24.49,2.77,2.77,0,0,0,1,.34l.31.07a2.89,2.89,0,0,1,1.35.58,1.36,1.36,0,0,1,.41,1,1.42,1.42,0,0,1-.61,1.21,2.76,2.76,0,0,1-1.65.44,5.92,5.92,0,0,1-.92-.08,8.71,8.71,0,0,1-1-.26v-.93a4.17,4.17,0,0,0,1,.39,3.52,3.52,0,0,0,1,.13,1.74,1.74,0,0,0,1-.22.68.68,0,0,0,.34-.61.68.68,0,0,0-.24-.56,3.08,3.08,0,0,0-1.08-.38l-.32-.07a2.49,2.49,0,0,1-1.2-.54,1.33,1.33,0,0,1-.37-1,1.42,1.42,0,0,1,.54-1.19,2.54,2.54,0,0,1,1.56-.42,6.76,6.76,0,0,1,.93.07A3.68,3.68,0,0,1,69,195.36Z" transform="translate(-11.21 -66.68)"/><path id="DejaVuSans-102" d="M73.45,193.07v.75h-.86a.91.91,0,0,0-.67.2,1,1,0,0,0-.19.7v.48h1.48v.7H71.73v4.77h-.9V195.9H70v-.7h.86v-.38a1.81,1.81,0,0,1,.42-1.33,1.85,1.85,0,0,1,1.35-.42Z" transform="translate(-11.21 -66.68)"/><path id="DejaVuSans-101" d="M78.88,197.71v.44H74.75a2,2,0,0,0,.56,1.41,1.87,1.87,0,0,0,1.39.49,3.71,3.71,0,0,0,1-.13,4.15,4.15,0,0,0,1-.38v.85a6.33,6.33,0,0,1-1,.32,5.14,5.14,0,0,1-1,.1,2.8,2.8,0,0,1-2.08-.76,2.77,2.77,0,0,1-.76-2.06,3,3,0,0,1,.72-2.13,2.53,2.53,0,0,1,2-.79,2.23,2.23,0,0,1,1.74.71A2.76,2.76,0,0,1,78.88,197.71Zm-.9-.26a1.77,1.77,0,0,0-.41-1.18,1.4,1.4,0,0,0-1.07-.44,1.65,1.65,0,0,0-1.2.43,1.71,1.71,0,0,0-.52,1.19Z" transform="translate(-11.21 -66.68)"/><path id="DejaVuSans-114-2" data-name="DejaVuSans-114" d="M83.52,196a1.2,1.2,0,0,0-.33-.13,1.61,1.61,0,0,0-.39,0,1.43,1.43,0,0,0-1.17.5,2.18,2.18,0,0,0-.41,1.42v2.88h-.9V195.2h.9v.85a1.88,1.88,0,0,1,.74-.74,2.32,2.32,0,0,1,1.1-.24h.21l.25,0Z" transform="translate(-11.21 -66.68)"/></g><g id="text_6" data-name="text 6"><path id="DejaVuSans-49" d="M126.36,222.19H128v-5.56l-1.75.35v-.9l1.74-.35h1v6.46h1.61V223h-4.2Z" transform="translate(-11.21 -66.68)"/><path id="DejaVuSans-37-3" data-name="DejaVuSans-37" d="M138.75,219.81a.77.77,0,0,0-.67.36,2.22,2.22,0,0,0,0,2,.77.77,0,0,0,.67.36.75.75,0,0,0,.66-.36,1.8,1.8,0,0,0,.24-1,1.78,1.78,0,0,0-.24-1A.74.74,0,0,0,138.75,219.81Zm0-.62a1.53,1.53,0,0,1,1.23.54,2.19,2.19,0,0,1,.45,1.45,2.14,2.14,0,0,1-.46,1.45,1.53,1.53,0,0,1-1.22.53,1.57,1.57,0,0,1-1.24-.53,2.19,2.19,0,0,1-.45-1.45,2.12,2.12,0,0,1,.46-1.45A1.52,1.52,0,0,1,138.75,219.19Zm-5-3a.75.75,0,0,0-.66.36,2.22,2.22,0,0,0,0,2,.75.75,0,0,0,.66.36.77.77,0,0,0,.67-.36,1.82,1.82,0,0,0,.24-1,1.77,1.77,0,0,0-.24-1A.77.77,0,0,0,133.71,216.22Zm4.41-.62h.78l-4.56,7.56h-.78Zm-4.41,0a1.54,1.54,0,0,1,1.23.53,2.53,2.53,0,0,1,0,2.91,1.54,1.54,0,0,1-1.23.53,1.52,1.52,0,0,1-1.23-.54,2.17,2.17,0,0,1-.45-1.45,2.11,2.11,0,0,1,.46-1.44A1.51,1.51,0,0,1,133.71,215.6Z" transform="translate(-11.21 -66.68)"/></g><g id="text_7" data-name="text 7"><path id="DejaVuSans-65-2" data-name="DejaVuSans-65" d="M14.55,280.77l-1.34,3.63h2.68Zm-.56-1h1.12l2.78,7.29h-1l-.66-1.87H12.91l-.66,1.87h-1Z" transform="translate(-11.21 -66.68)"/><path id="DejaVuSans-100-4" data-name="DejaVuSans-100" d="M22.33,282.45v-3h.9v7.6h-.9v-.82a1.79,1.79,0,0,1-.71.73,2.22,2.22,0,0,1-1,.23,1.94,1.94,0,0,1-1.61-.79,3.8,3.8,0,0,1,0-4.16,2,2,0,0,1,1.61-.79,2.1,2.1,0,0,1,1,.24A1.82,1.82,0,0,1,22.33,282.45Zm-3.06,1.91a2.65,2.65,0,0,0,.41,1.56,1.4,1.4,0,0,0,2.24,0,2.58,2.58,0,0,0,.41-1.56,2.53,2.53,0,0,0-.41-1.55,1.39,1.39,0,0,0-2.24,0A2.6,2.6,0,0,0,19.27,284.36Z" transform="translate(-11.21 -66.68)"/><path id="DejaVuSans-100-5" data-name="DejaVuSans-100" d="M28.68,282.45v-3h.9v7.6h-.9v-.82A1.85,1.85,0,0,1,28,287a2.25,2.25,0,0,1-1,.23,2,2,0,0,1-1.62-.79,3.8,3.8,0,0,1,0-4.16,2,2,0,0,1,1.62-.79,2.13,2.13,0,0,1,1,.24A1.89,1.89,0,0,1,28.68,282.45Zm-3.06,1.91a2.65,2.65,0,0,0,.41,1.56,1.4,1.4,0,0,0,2.24,0,2.58,2.58,0,0,0,.41-1.56,2.53,2.53,0,0,0-.41-1.55,1.39,1.39,0,0,0-2.24,0A2.6,2.6,0,0,0,25.62,284.36Z" transform="translate(-11.21 -66.68)"/><path id="DejaVuSans-105-4" data-name="DejaVuSans-105" d="M31.43,281.62h.9v5.47h-.9Zm0-2.13h.9v1.14h-.9Z" transform="translate(-11.21 -66.68)"/><path id="DejaVuSans-116-2" data-name="DejaVuSans-116" d="M35.1,280.07v1.55H37v.7H35.1v3a1.36,1.36,0,0,0,.18.86,1,1,0,0,0,.75.19H37v.75H36a2,2,0,0,1-1.44-.39,2,2,0,0,1-.39-1.41v-3h-.66v-.7h.66v-1.55Z" transform="translate(-11.21 -66.68)"/><path id="DejaVuSans-105-5" data-name="DejaVuSans-105" d="M38.13,281.62H39v5.47h-.9Zm0-2.13H39v1.14h-.9Z" transform="translate(-11.21 -66.68)"/><path id="DejaVuSans-111-3" data-name="DejaVuSans-111" d="M43,282.25a1.34,1.34,0,0,0-1.14.57,2.51,2.51,0,0,0-.42,1.54,2.55,2.55,0,0,0,.41,1.55,1.45,1.45,0,0,0,2.29,0,2.57,2.57,0,0,0,.42-1.55,2.54,2.54,0,0,0-.42-1.54A1.34,1.34,0,0,0,43,282.25Zm0-.76a2.35,2.35,0,0,1,1.84.76,3.66,3.66,0,0,1,0,4.22,2.62,2.62,0,0,1-3.69,0,3.7,3.7,0,0,1,0-4.22A2.36,2.36,0,0,1,43,281.49Z" transform="translate(-11.21 -66.68)"/><path id="DejaVuSans-110-3" data-name="DejaVuSans-110" d="M51.57,283.79v3.3h-.89v-3.27a1.87,1.87,0,0,0-.31-1.16,1.07,1.07,0,0,0-.91-.39,1.46,1.46,0,0,0-1.14.47A1.81,1.81,0,0,0,47.9,284v3.09H47v-5.47h.91v.85a2,2,0,0,1,.76-.73,1.93,1.93,0,0,1,1-.25,1.77,1.77,0,0,1,1.43.58A2.67,2.67,0,0,1,51.57,283.79Z" transform="translate(-11.21 -66.68)"/><path id="DejaVuSans-97-4" data-name="DejaVuSans-97" d="M55.85,284.34a3.28,3.28,0,0,0-1.51.25.91.91,0,0,0-.42.85,1,1,0,0,0,.32.76,1.21,1.21,0,0,0,.85.28,1.51,1.51,0,0,0,1.2-.53,2.09,2.09,0,0,0,.45-1.41v-.2Zm1.79-.37v3.12h-.9v-.83A2,2,0,0,1,56,287a2.56,2.56,0,0,1-1.13.23,1.82,1.82,0,0,1-1.33-.47,1.85,1.85,0,0,1,.12-2.65,3,3,0,0,1,1.84-.47h1.26v-.09a1.19,1.19,0,0,0-.4-1,1.81,1.81,0,0,0-1.15-.34,3.92,3.92,0,0,0-1.77.45v-.83a5.42,5.42,0,0,1,1-.28,4.07,4.07,0,0,1,.9-.1,2.35,2.35,0,0,1,1.78.62A2.61,2.61,0,0,1,57.64,284Z" transform="translate(-11.21 -66.68)"/><path id="DejaVuSans-108-3" data-name="DejaVuSans-108" d="M59.49,279.49h.9v7.6h-.9Z" transform="translate(-11.21 -66.68)"/></g><g id="text_8" data-name="text 8"><path id="DejaVuSans-49-2" data-name="DejaVuSans-49" d="M105.63,299.38h1.61v-5.56l-1.76.35v-.9l1.75-.35h1v6.46h1.61v.83h-4.19Z" transform="translate(-11.21 -66.68)"/><path id="DejaVuSans-49-3" data-name="DejaVuSans-49" d="M112,299.38h1.61v-5.56l-1.75.35v-.9l1.74-.35h1v6.46h1.61v.83H112Z" transform="translate(-11.21 -66.68)"/><path id="DejaVuSans-37-4" data-name="DejaVuSans-37" d="M124.38,297a.78.78,0,0,0-.67.37,2.2,2.2,0,0,0,0,2,.77.77,0,0,0,.67.36.75.75,0,0,0,.66-.36,1.78,1.78,0,0,0,.24-1,1.8,1.8,0,0,0-.24-1A.76.76,0,0,0,124.38,297Zm0-.62a1.51,1.51,0,0,1,1.22.54,2.52,2.52,0,0,1,0,2.9,1.5,1.5,0,0,1-1.22.53,1.54,1.54,0,0,1-1.24-.53,2.19,2.19,0,0,1-.45-1.45,2.14,2.14,0,0,1,.46-1.45A1.52,1.52,0,0,1,124.38,296.38Zm-5-3a.74.74,0,0,0-.66.37,1.77,1.77,0,0,0-.24,1,1.82,1.82,0,0,0,.24,1,.75.75,0,0,0,.66.36.77.77,0,0,0,.67-.36,1.82,1.82,0,0,0,.24-1,1.69,1.69,0,0,0-.25-1A.74.74,0,0,0,119.34,293.41Zm4.41-.62h.78L120,300.35h-.78Zm-4.41,0a1.52,1.52,0,0,1,1.23.54,2.09,2.09,0,0,1,.46,1.44,2.15,2.15,0,0,1-.46,1.46,1.69,1.69,0,0,1-2.46,0,2.56,2.56,0,0,1,0-2.9A1.54,1.54,0,0,1,119.34,292.79Z" transform="translate(-11.21 -66.68)"/></g><g id="text_9" data-name="text 9"><path id="DejaVuSans-66" d="M44.16,373.84v2.67h1.58a1.79,1.79,0,0,0,1.18-.33,1.25,1.25,0,0,0,.38-1,1.24,1.24,0,0,0-.38-1,1.79,1.79,0,0,0-1.18-.32Zm0-3V373h1.46a1.73,1.73,0,0,0,1.07-.28,1,1,0,0,0,.36-.82,1,1,0,0,0-.36-.83,1.74,1.74,0,0,0-1.07-.27Zm-1-.81h2.52a2.77,2.77,0,0,1,1.74.47,1.56,1.56,0,0,1,.61,1.33,1.63,1.63,0,0,1-.31,1.06,1.42,1.42,0,0,1-.92.5,1.81,1.81,0,0,1,1.53,1.89,1.84,1.84,0,0,1-.66,1.51,3,3,0,0,1-1.89.53H43.17Z" transform="translate(-11.21 -66.68)"/><path id="DejaVuSans-114-3" data-name="DejaVuSans-114" d="M53.16,372.69a1.2,1.2,0,0,0-.33-.13,1.61,1.61,0,0,0-.39,0,1.42,1.42,0,0,0-1.17.49,2.21,2.21,0,0,0-.41,1.43v2.88H50v-5.47h.9v.85a1.88,1.88,0,0,1,.74-.74,2.32,2.32,0,0,1,1.1-.24h.21l.25,0Z" transform="translate(-11.21 -66.68)"/><path id="DejaVuSans-105-6" data-name="DejaVuSans-105" d="M54.1,371.85H55v5.47h-.9Zm0-2.13H55v1.14h-.9Z" transform="translate(-11.21 -66.68)"/><path id="DejaVuSans-100-6" data-name="DejaVuSans-100" d="M60.48,372.68v-3h.9v7.6h-.9v-.82a2,2,0,0,1-.71.72,2.13,2.13,0,0,1-1,.24,2,2,0,0,1-1.62-.79,3.8,3.8,0,0,1,0-4.16,2,2,0,0,1,1.62-.79,2.13,2.13,0,0,1,1,.24A1.82,1.82,0,0,1,60.48,372.68Zm-3.06,1.91a2.6,2.6,0,0,0,.41,1.55,1.39,1.39,0,0,0,2.24,0,2.6,2.6,0,0,0,.41-1.55,2.65,2.65,0,0,0-.41-1.56,1.4,1.4,0,0,0-2.24,0A2.65,2.65,0,0,0,57.42,374.59Z" transform="translate(-11.21 -66.68)"/><path id="DejaVuSans-103" d="M66.83,374.52a2.51,2.51,0,0,0-.4-1.51,1.45,1.45,0,0,0-2.26,0,3.05,3.05,0,0,0,0,3,1.45,1.45,0,0,0,2.26,0A2.53,2.53,0,0,0,66.83,374.52Zm.9,2.12a3,3,0,0,1-.62,2.08,2.47,2.47,0,0,1-1.9.68,6.18,6.18,0,0,1-.89-.07,4.3,4.3,0,0,1-.82-.22v-.87a3.62,3.62,0,0,0,.78.31,3,3,0,0,0,.79.11,1.73,1.73,0,0,0,1.32-.47,2,2,0,0,0,.44-1.39v-.44a1.89,1.89,0,0,1-.71.72,2.13,2.13,0,0,1-1,.24,2,2,0,0,1-1.62-.77,3.63,3.63,0,0,1,0-4.06,2,2,0,0,1,1.62-.77,2.13,2.13,0,0,1,1,.24,1.89,1.89,0,0,1,.71.72v-.83h.9Z" transform="translate(-11.21 -66.68)"/><path id="DejaVuSans-101-2" data-name="DejaVuSans-101" d="M74.26,374.36v.44H70.13a2,2,0,0,0,.55,1.41,1.91,1.91,0,0,0,1.4.49,3.71,3.71,0,0,0,1-.13,4.15,4.15,0,0,0,1-.38V377a5.38,5.38,0,0,1-1,.31,5.15,5.15,0,0,1-1,.11,2.62,2.62,0,0,1-2.84-2.82,3,3,0,0,1,.72-2.13,2.53,2.53,0,0,1,2-.79,2.2,2.2,0,0,1,1.74.71A2.75,2.75,0,0,1,74.26,374.36Zm-.9-.27a1.75,1.75,0,0,0-.41-1.17,1.4,1.4,0,0,0-1.07-.44,1.69,1.69,0,0,0-1.2.42,1.76,1.76,0,0,0-.52,1.2Z" transform="translate(-11.21 -66.68)"/></g><g id="text_10" data-name="text 10"><path id="DejaVuSans-49-4" data-name="DejaVuSans-49" d="M116.06,360.89h1.61v-5.56l-1.75.35v-.9l1.74-.35h1v6.46h1.61v.83h-4.2Z" transform="translate(-11.21 -66.68)"/><path id="DejaVuSans-37-5" data-name="DejaVuSans-37" d="M128.45,358.51a.75.75,0,0,0-.66.36,2.22,2.22,0,0,0,0,2,.79.79,0,0,0,1.32,0,1.8,1.8,0,0,0,.24-1,1.78,1.78,0,0,0-.24-1A.74.74,0,0,0,128.45,358.51Zm0-.62a1.52,1.52,0,0,1,1.23.54,2.56,2.56,0,0,1,0,2.9,1.57,1.57,0,0,1-1.23.53,1.54,1.54,0,0,1-1.23-.53,2.14,2.14,0,0,1-.46-1.45,2.17,2.17,0,0,1,.46-1.45A1.53,1.53,0,0,1,128.45,357.89Zm-5-3a.75.75,0,0,0-.66.36,2.22,2.22,0,0,0,0,2,.79.79,0,0,0,1.33,0,1.82,1.82,0,0,0,.24-1,1.77,1.77,0,0,0-.24-1A.76.76,0,0,0,123.41,354.92Zm4.41-.62h.78L124,361.86h-.78Zm-4.41,0a1.54,1.54,0,0,1,1.23.53,2.14,2.14,0,0,1,.46,1.45,2.2,2.2,0,0,1-.45,1.46,1.57,1.57,0,0,1-1.24.53,1.51,1.51,0,0,1-1.22-.54,2.12,2.12,0,0,1-.46-1.45,2.16,2.16,0,0,1,.46-1.44A1.51,1.51,0,0,1,123.41,354.3Z" transform="translate(-11.21 -66.68)"/></g><g id="text_11" data-name="text 11"><path id="DejaVuSans-69" d="M119,469.82h4.61v.83h-3.63v2.16h3.48v.83h-3.48v2.64h3.71v.83H119Z" transform="translate(-11.21 -66.68)"/><path id="DejaVuSans-118" d="M124.58,471.65h1l1.7,4.58,1.71-4.58h1l-2.06,5.46h-1.22Z" transform="translate(-11.21 -66.68)"/><path id="DejaVuSans-101-3" data-name="DejaVuSans-101" d="M135.82,474.15v.44h-4.13a2.12,2.12,0,0,0,.56,1.42,1.93,1.93,0,0,0,1.4.48,4.21,4.21,0,0,0,1-.12,4.79,4.79,0,0,0,1-.38v.85a5.68,5.68,0,0,1-1,.31,5.07,5.07,0,0,1-1,.11,2.83,2.83,0,0,1-2.07-.76,2.8,2.8,0,0,1-.77-2.07,3.06,3.06,0,0,1,.73-2.13,2.55,2.55,0,0,1,2-.79,2.22,2.22,0,0,1,1.74.72A2.73,2.73,0,0,1,135.82,474.15Zm-.9-.26a1.65,1.65,0,0,0-.41-1.17,1.35,1.35,0,0,0-1.06-.44,1.7,1.7,0,0,0-1.21.42,1.81,1.81,0,0,0-.52,1.2Z" transform="translate(-11.21 -66.68)"/><path id="DejaVuSans-110-4" data-name="DejaVuSans-110" d="M141.84,473.81v3.3H141v-3.27a1.87,1.87,0,0,0-.31-1.16,1.06,1.06,0,0,0-.9-.38,1.46,1.46,0,0,0-1.15.46,1.81,1.81,0,0,0-.42,1.26v3.09h-.91v-5.46h.91v.85a2.14,2.14,0,0,1,.76-.74,2,2,0,0,1,1-.25,1.74,1.74,0,0,1,1.42.59A2.64,2.64,0,0,1,141.84,473.81Z" transform="translate(-11.21 -66.68)"/><path id="DejaVuSans-116-3" data-name="DejaVuSans-116" d="M144.52,470.09v1.56h1.85v.69h-1.85v3a1.35,1.35,0,0,0,.19.86,1,1,0,0,0,.74.19h.92v.75h-.92a2,2,0,0,1-1.43-.38,1.94,1.94,0,0,1-.4-1.42v-3H143v-.69h.66v-1.56Z" transform="translate(-11.21 -66.68)"/></g><g id="text_12" data-name="text 12"><path id="DejaVuSans-49-5" data-name="DejaVuSans-49" d="M169.92,437.48h1.61v-5.56l-1.75.35v-.9l1.74-.35h1v6.46h1.61v.83h-4.2Z" transform="translate(-11.21 -66.68)"/><path id="DejaVuSans-54" d="M178.34,434.27a1.3,1.3,0,0,0-1.05.46,2.17,2.17,0,0,0,0,2.48,1.3,1.3,0,0,0,1.05.46,1.27,1.27,0,0,0,1-.46,2.17,2.17,0,0,0,0-2.48A1.27,1.27,0,0,0,178.34,434.27Zm2-3.09v.9a3.76,3.76,0,0,0-.75-.27,3.2,3.2,0,0,0-.75-.09,1.77,1.77,0,0,0-1.49.66,3.56,3.56,0,0,0-.59,2,2,2,0,0,1,.72-.65,2.06,2.06,0,0,1,1-.23,2.29,2.29,0,0,1,1.74.67,2.52,2.52,0,0,1,.63,1.81,2.46,2.46,0,0,1-.66,1.8,2.33,2.33,0,0,1-1.77.68,2.19,2.19,0,0,1-1.93-1,4.88,4.88,0,0,1-.67-2.81,4.25,4.25,0,0,1,.82-2.75,2.66,2.66,0,0,1,2.2-1,3.81,3.81,0,0,1,.75.07A5.24,5.24,0,0,1,180.3,431.18Z" transform="translate(-11.21 -66.68)"/><path id="DejaVuSans-37-6" data-name="DejaVuSans-37" d="M188.67,435.1a.75.75,0,0,0-.66.36,2.22,2.22,0,0,0,0,2,.79.79,0,0,0,1.32,0,1.8,1.8,0,0,0,.24-1,1.78,1.78,0,0,0-.24-1A.74.74,0,0,0,188.67,435.1Zm0-.62a1.52,1.52,0,0,1,1.23.54,2.56,2.56,0,0,1,0,2.9,1.69,1.69,0,0,1-2.46,0,2.56,2.56,0,0,1,0-2.9A1.54,1.54,0,0,1,188.67,434.48Zm-5-3a.76.76,0,0,0-.67.36,2.22,2.22,0,0,0,0,2,.79.79,0,0,0,1.33,0,1.82,1.82,0,0,0,.24-1,1.77,1.77,0,0,0-.24-1A.74.74,0,0,0,183.64,431.51Zm4.4-.62h.79l-4.57,7.56h-.78Zm-4.4,0a1.53,1.53,0,0,1,1.22.53,2.14,2.14,0,0,1,.46,1.45,2.2,2.2,0,0,1-.45,1.46,1.57,1.57,0,0,1-1.23.53,1.52,1.52,0,0,1-1.23-.54,2.17,2.17,0,0,1-.45-1.45,2.14,2.14,0,0,1,.45-1.44A1.52,1.52,0,0,1,183.64,430.89Z" transform="translate(-11.21 -66.68)"/></g><g id="text_13" data-name="text 13"><path id="DejaVuSans-72-2" data-name="DejaVuSans-72" d="M371.18,504.21h1v3h3.58v-3h1v7.29h-1V508h-3.58v3.47h-1Z" transform="translate(-11.21 -66.68)"/><path id="DejaVuSans-111-4" data-name="DejaVuSans-111" d="M380.78,506.66a1.36,1.36,0,0,0-1.14.56,2.55,2.55,0,0,0-.42,1.55,2.58,2.58,0,0,0,.41,1.54,1.36,1.36,0,0,0,1.15.57,1.34,1.34,0,0,0,1.14-.57,3,3,0,0,0,0-3.08A1.34,1.34,0,0,0,380.78,506.66Zm0-.76a2.32,2.32,0,0,1,1.84.76,3.66,3.66,0,0,1,0,4.22,2.61,2.61,0,0,1-3.68,0,3.66,3.66,0,0,1,0-4.22A2.31,2.31,0,0,1,380.78,505.9Z" transform="translate(-11.21 -66.68)"/><path id="DejaVuSans-108-4" data-name="DejaVuSans-108" d="M384.78,503.9h.9v7.6h-.9Z" transform="translate(-11.21 -66.68)"/><path id="DejaVuSans-105-7" data-name="DejaVuSans-105" d="M387.56,506h.9v5.47h-.9Zm0-2.13h.9V505h-.9Z" transform="translate(-11.21 -66.68)"/><path id="DejaVuSans-100-7" data-name="DejaVuSans-100" d="M393.93,506.86v-3h.9v7.6h-.9v-.82a1.82,1.82,0,0,1-.71.72,2.13,2.13,0,0,1-1,.24,1.94,1.94,0,0,1-1.61-.79,3.75,3.75,0,0,1,0-4.16,1.94,1.94,0,0,1,1.61-.79,2.13,2.13,0,0,1,1,.24A1.7,1.7,0,0,1,393.93,506.86Zm-3.06,1.91a2.6,2.6,0,0,0,.41,1.55,1.39,1.39,0,0,0,2.24,0,2.53,2.53,0,0,0,.41-1.55,2.58,2.58,0,0,0-.41-1.56,1.4,1.4,0,0,0-2.24,0A2.65,2.65,0,0,0,390.87,508.77Z" transform="translate(-11.21 -66.68)"/><path id="DejaVuSans-97-5" data-name="DejaVuSans-97" d="M399.17,508.75a3.15,3.15,0,0,0-1.51.25.9.9,0,0,0-.42.85.94.94,0,0,0,.32.76,1.26,1.26,0,0,0,.85.28,1.51,1.51,0,0,0,1.2-.53,2.11,2.11,0,0,0,.45-1.41v-.2Zm1.79-.37v3.12h-.9v-.83a2,2,0,0,1-.76.73,2.45,2.45,0,0,1-1.13.24,1.86,1.86,0,0,1-1.33-.47,1.68,1.68,0,0,1-.5-1.26,1.63,1.63,0,0,1,.62-1.39,3,3,0,0,1,1.84-.47h1.26V508a1.16,1.16,0,0,0-.4-1,1.75,1.75,0,0,0-1.15-.34,3.91,3.91,0,0,0-.91.11,4,4,0,0,0-.86.34v-.83a6.49,6.49,0,0,1,1-.29,4.73,4.73,0,0,1,.9-.09,2.37,2.37,0,0,1,1.78.61A2.62,2.62,0,0,1,401,508.38Z" transform="translate(-11.21 -66.68)"/><path id="DejaVuSans-121-2" data-name="DejaVuSans-121" d="M405.09,512a3.21,3.21,0,0,1-.75,1.27,1.45,1.45,0,0,1-1,.3h-.72v-.75h.53a.83.83,0,0,0,.57-.18,2.23,2.23,0,0,0,.46-.83l.16-.41L402.17,506h.95l1.71,4.28,1.71-4.28h.95Z" transform="translate(-11.21 -66.68)"/></g><g id="text_14" data-name="text 14"><path id="DejaVuSans-49-6" data-name="DejaVuSans-49" d="M345.42,464.32H347v-5.56l-1.75.35v-.9l1.74-.35h1v6.46h1.61v.83h-4.2Z" transform="translate(-11.21 -66.68)"/><path id="DejaVuSans-55" d="M351.36,457.86h4.69v.42l-2.65,6.87h-1l2.49-6.46h-3.5Z" transform="translate(-11.21 -66.68)"/><path id="DejaVuSans-37-7" data-name="DejaVuSans-37" d="M364.17,461.94a.75.75,0,0,0-.66.36,2.22,2.22,0,0,0,0,2,.78.78,0,0,0,1.32,0,1.83,1.83,0,0,0,.24-1,1.78,1.78,0,0,0-.24-1A.74.74,0,0,0,364.17,461.94Zm0-.62a1.52,1.52,0,0,1,1.23.54,2.56,2.56,0,0,1,0,2.9,1.69,1.69,0,0,1-2.46,0,2.56,2.56,0,0,1,0-2.9A1.54,1.54,0,0,1,364.17,461.32Zm-5-3a.76.76,0,0,0-.67.36,2.22,2.22,0,0,0,0,2,.79.79,0,0,0,1.33,0,1.82,1.82,0,0,0,.24-1,1.77,1.77,0,0,0-.24-1A.74.74,0,0,0,359.14,458.35Zm4.4-.62h.79l-4.57,7.56H359Zm-4.4,0a1.53,1.53,0,0,1,1.22.53,2.14,2.14,0,0,1,.46,1.45,2.2,2.2,0,0,1-.45,1.46,1.57,1.57,0,0,1-1.23.53,1.52,1.52,0,0,1-1.23-.54,2.17,2.17,0,0,1-.45-1.45,2.14,2.14,0,0,1,.45-1.44A1.52,1.52,0,0,1,359.14,457.73Z" transform="translate(-11.21 -66.68)"/></g><g id="text_15" data-name="text 15"><path id="DejaVuSans-84-2" data-name="DejaVuSans-84" d="M477,419h6.17v.83h-2.59v6.46h-1v-6.46H477Z" transform="translate(-11.21 -66.68)"/><path id="DejaVuSans-114-4" data-name="DejaVuSans-114" d="M485.78,421.67a1.2,1.2,0,0,0-.33-.13,1.61,1.61,0,0,0-.39,0,1.43,1.43,0,0,0-1.17.5,2.13,2.13,0,0,0-.41,1.42v2.88h-.9v-5.47h.9v.85a1.82,1.82,0,0,1,.74-.74,2.32,2.32,0,0,1,1.1-.24h.21l.24,0Z" transform="translate(-11.21 -66.68)"/><path id="DejaVuSans-97-6" data-name="DejaVuSans-97" d="M489.21,423.55a3.15,3.15,0,0,0-1.51.25.91.91,0,0,0-.42.85,1,1,0,0,0,.31.76,1.24,1.24,0,0,0,.86.28,1.51,1.51,0,0,0,1.2-.53,2.09,2.09,0,0,0,.45-1.41v-.2Zm1.79-.37v3.12h-.9v-.83a1.86,1.86,0,0,1-.77.73,2.38,2.38,0,0,1-1.12.24,1.9,1.9,0,0,1-1.34-.47,1.66,1.66,0,0,1-.49-1.26,1.63,1.63,0,0,1,.62-1.39,3,3,0,0,1,1.84-.47h1.26v-.09a1.17,1.17,0,0,0-.41-1,1.71,1.71,0,0,0-1.14-.34,4.06,4.06,0,0,0-.92.11,3.87,3.87,0,0,0-.85.34v-.83a5.42,5.42,0,0,1,1-.28,4.07,4.07,0,0,1,.9-.1,2.34,2.34,0,0,1,1.77.62A2.61,2.61,0,0,1,491,423.18Z" transform="translate(-11.21 -66.68)"/><path id="DejaVuSans-110-5" data-name="DejaVuSans-110" d="M497.4,423v3.3h-.9V423a1.79,1.79,0,0,0-.31-1.16,1.06,1.06,0,0,0-.9-.39,1.47,1.47,0,0,0-1.15.47,1.79,1.79,0,0,0-.42,1.26v3.09h-.9v-5.47h.9v.85a2.23,2.23,0,0,1,.76-.74,2.07,2.07,0,0,1,1-.24,1.72,1.72,0,0,1,1.42.58A2.65,2.65,0,0,1,497.4,423Z" transform="translate(-11.21 -66.68)"/><path id="DejaVuSans-115-2" data-name="DejaVuSans-115" d="M502.67,421v.85a3.12,3.12,0,0,0-.79-.29,3.36,3.36,0,0,0-.85-.1,1.91,1.91,0,0,0-1,.21.66.66,0,0,0-.33.61.57.57,0,0,0,.23.49,2.84,2.84,0,0,0,1,.34l.3.07a2.89,2.89,0,0,1,1.36.58,1.34,1.34,0,0,1,.41,1,1.42,1.42,0,0,1-.61,1.21,2.76,2.76,0,0,1-1.65.44,5.92,5.92,0,0,1-.92-.08,8.71,8.71,0,0,1-1-.26v-.93a5.26,5.26,0,0,0,1,.39,3.52,3.52,0,0,0,1,.13,1.76,1.76,0,0,0,1-.22.68.68,0,0,0,.34-.61.68.68,0,0,0-.24-.56,3.08,3.08,0,0,0-1.08-.38l-.32-.07a2.44,2.44,0,0,1-1.2-.54,1.33,1.33,0,0,1-.37-1,1.42,1.42,0,0,1,.54-1.19,2.54,2.54,0,0,1,1.56-.42,5.49,5.49,0,0,1,.93.07A3.68,3.68,0,0,1,502.67,421Z" transform="translate(-11.21 -66.68)"/><path id="DejaVuSans-102-2" data-name="DejaVuSans-102" d="M507.17,418.7v.75h-.86a.94.94,0,0,0-.68.2,1,1,0,0,0-.18.7v.48h1.48v.7h-1.48v4.77h-.91v-4.77h-.86v-.7h.86v-.38a1.81,1.81,0,0,1,.43-1.33,1.85,1.85,0,0,1,1.35-.42Z" transform="translate(-11.21 -66.68)"/><path id="DejaVuSans-101-4" data-name="DejaVuSans-101" d="M512.6,423.34v.44h-4.14a2.08,2.08,0,0,0,.56,1.41,1.91,1.91,0,0,0,1.4.49,3.71,3.71,0,0,0,1-.13,4.33,4.33,0,0,0,1-.38V426a5.25,5.25,0,0,1-1,.31,4.39,4.39,0,0,1-1,.11,2.62,2.62,0,0,1-2.83-2.82,3,3,0,0,1,.72-2.13,2.53,2.53,0,0,1,2-.79,2.23,2.23,0,0,1,1.74.71A2.76,2.76,0,0,1,512.6,423.34Zm-.9-.26a1.73,1.73,0,0,0-.42-1.18,1.37,1.37,0,0,0-1.06-.44,1.69,1.69,0,0,0-1.21.43,1.8,1.8,0,0,0-.52,1.19Z" transform="translate(-11.21 -66.68)"/><path id="DejaVuSans-114-5" data-name="DejaVuSans-114" d="M517.24,421.67a1.2,1.2,0,0,0-.33-.13,1.61,1.61,0,0,0-.39,0,1.43,1.43,0,0,0-1.17.5,2.13,2.13,0,0,0-.41,1.42v2.88H514v-5.47h.9v.85a1.82,1.82,0,0,1,.74-.74,2.32,2.32,0,0,1,1.1-.24H517l.24,0Z" transform="translate(-11.21 -66.68)"/></g><g id="text_16" data-name="text 16"><path id="DejaVuSans-50" d="M428.92,397.57h3.45v.83h-4.63v-.83l1.53-1.55c.64-.66,1.05-1.08,1.22-1.27a4.77,4.77,0,0,0,.66-.9,1.65,1.65,0,0,0,.19-.72,1.22,1.22,0,0,0-.41-.95,1.51,1.51,0,0,0-1.06-.37,3.52,3.52,0,0,0-1,.16,5.74,5.74,0,0,0-1.1.49v-1a8.49,8.49,0,0,1,1.11-.37,4.19,4.19,0,0,1,1-.12,2.7,2.7,0,0,1,1.8.57,1.88,1.88,0,0,1,.68,1.51,2.27,2.27,0,0,1-.17.86,4.29,4.29,0,0,1-.61.94c-.09.1-.34.37-.78.82Z" transform="translate(-11.21 -66.68)"/><path id="DejaVuSans-37-8" data-name="DejaVuSans-37" d="M440.64,395.2a.76.76,0,0,0-.67.36,2.2,2.2,0,0,0,0,2,.75.75,0,0,0,.67.37.74.74,0,0,0,.65-.37,1.7,1.7,0,0,0,.25-1,1.72,1.72,0,0,0-.25-1A.75.75,0,0,0,440.64,395.2Zm0-.62a1.53,1.53,0,0,1,1.22.53,2.52,2.52,0,0,1,0,2.9,1.51,1.51,0,0,1-1.22.54,1.54,1.54,0,0,1-1.24-.54,2.56,2.56,0,0,1,0-2.9A1.54,1.54,0,0,1,440.64,394.58Zm-5-3a.74.74,0,0,0-.66.37,1.78,1.78,0,0,0-.24,1,1.9,1.9,0,0,0,.23,1,.77.77,0,0,0,.67.36.75.75,0,0,0,.66-.36,2.13,2.13,0,0,0,0-2A.76.76,0,0,0,435.6,391.6ZM440,391h.78l-4.56,7.57h-.78Zm-4.41,0a1.54,1.54,0,0,1,1.23.54,2.17,2.17,0,0,1,.46,1.45,2.12,2.12,0,0,1-.46,1.45,1.51,1.51,0,0,1-1.23.53,1.54,1.54,0,0,1-1.23-.53,2.56,2.56,0,0,1,0-2.9A1.53,1.53,0,0,1,435.6,391Z" transform="translate(-11.21 -66.68)"/></g><g id="text_17" data-name="text 17"><path id="DejaVuSans-87" d="M490.87,396.18h1l1.53,6.17,1.53-6.17H496l1.53,6.17,1.53-6.17h1l-1.83,7.29H497l-1.53-6.32-1.56,6.32h-1.24Z" transform="translate(-11.21 -66.68)"/><path id="DejaVuSans-111-5" data-name="DejaVuSans-111" d="M502.89,398.64a1.33,1.33,0,0,0-1.14.56,3.05,3.05,0,0,0,0,3.09,1.44,1.44,0,0,0,2.28,0,3.05,3.05,0,0,0,0-3.09A1.33,1.33,0,0,0,502.89,398.64Zm0-.77a2.33,2.33,0,0,1,1.85.77,3.64,3.64,0,0,1,0,4.21,2.6,2.6,0,0,1-3.69,0,3.69,3.69,0,0,1,0-4.21A2.33,2.33,0,0,1,502.89,397.87Z" transform="translate(-11.21 -66.68)"/><path id="DejaVuSans-114-6" data-name="DejaVuSans-114" d="M510.06,398.84a1.18,1.18,0,0,0-.33-.12,1.6,1.6,0,0,0-.39-.05,1.43,1.43,0,0,0-1.17.5,2.18,2.18,0,0,0-.41,1.42v2.88h-.9V398h.9v.85a1.82,1.82,0,0,1,.74-.74,2.22,2.22,0,0,1,1.11-.25l.2,0,.25,0Z" transform="translate(-11.21 -66.68)"/><path id="DejaVuSans-107" d="M511,395.88h.9v4.48l2.69-2.35h1.14l-2.9,2.55,3,2.91h-1.18l-2.78-2.67v2.67H511Z" transform="translate(-11.21 -66.68)"/><path id="DejaVuSans-32" d="M515.85,403.47" transform="translate(-11.21 -66.68)"/><path id="DejaVuSans-68" d="M521,397v5.67h1.19a3,3,0,0,0,2.21-.68,2.91,2.91,0,0,0,.7-2.16,2.86,2.86,0,0,0-.7-2.14,3,3,0,0,0-2.21-.69Zm-1-.81h2a4.64,4.64,0,0,1,3.11.88,4.36,4.36,0,0,1,0,5.53,4.6,4.6,0,0,1-3.11.88h-2Z" transform="translate(-11.21 -66.68)"/><path id="DejaVuSans-97-7" data-name="DejaVuSans-97" d="M530.16,400.73a3.34,3.34,0,0,0-1.51.24.91.91,0,0,0-.42.85,1,1,0,0,0,.32.76,1.21,1.21,0,0,0,.85.28,1.48,1.48,0,0,0,1.2-.53,2.09,2.09,0,0,0,.46-1.4v-.2Zm1.79-.38v3.12h-.89v-.83a2,2,0,0,1-.77.74,2.42,2.42,0,0,1-1.13.24,1.84,1.84,0,0,1-1.33-.48,1.85,1.85,0,0,1,.12-2.65,3,3,0,0,1,1.84-.47h1.27v-.09a1.2,1.2,0,0,0-.41-1,1.79,1.79,0,0,0-1.15-.33,3.44,3.44,0,0,0-.91.11,3.5,3.5,0,0,0-.86.34v-.84a6.42,6.42,0,0,1,1-.28,4.77,4.77,0,0,1,.9-.1,2.35,2.35,0,0,1,1.78.62A2.61,2.61,0,0,1,532,400.35Z" transform="translate(-11.21 -66.68)"/><path id="DejaVuSans-121-3" data-name="DejaVuSans-121" d="M536.08,404a3.27,3.27,0,0,1-.74,1.28,1.53,1.53,0,0,1-1,.29h-.72v-.75h.53a.91.91,0,0,0,.58-.17,2.52,2.52,0,0,0,.45-.83l.16-.41L533.16,398h1l1.71,4.27,1.71-4.27h1Z" transform="translate(-11.21 -66.68)"/></g><g id="text_18" data-name="text 18"><path id="DejaVuSans-49-7" data-name="DejaVuSans-49" d="M441.57,379.52h1.61V374l-1.75.36v-.9l1.74-.35h1v6.46h1.61v.83h-4.2Z" transform="translate(-11.21 -66.68)"/><path id="DejaVuSans-37-9" data-name="DejaVuSans-37" d="M454,377.14a.75.75,0,0,0-.66.36,1.73,1.73,0,0,0-.25,1,1.69,1.69,0,0,0,.25,1,.77.77,0,0,0,1.32,0,1.77,1.77,0,0,0,.24-1,1.82,1.82,0,0,0-.24-1A.75.75,0,0,0,454,377.14Zm0-.62a1.52,1.52,0,0,1,1.23.54,2.55,2.55,0,0,1,0,2.89,1.54,1.54,0,0,1-1.23.54,1.52,1.52,0,0,1-1.23-.54,2.11,2.11,0,0,1-.46-1.44,2.2,2.2,0,0,1,.46-1.46A1.54,1.54,0,0,1,454,376.52Zm-5-3a.75.75,0,0,0-.66.36,2.2,2.2,0,0,0,0,2,.79.79,0,0,0,1.33,0,1.78,1.78,0,0,0,.24-1,1.83,1.83,0,0,0-.24-1A.78.78,0,0,0,448.92,373.55Zm4.41-.63h.78l-4.56,7.57h-.78Zm-4.41,0a1.52,1.52,0,0,1,1.23.54,2.14,2.14,0,0,1,.46,1.45,2.17,2.17,0,0,1-.45,1.45,1.55,1.55,0,0,1-1.24.54,1.51,1.51,0,0,1-1.22-.54,2.52,2.52,0,0,1,0-2.9A1.51,1.51,0,0,1,448.92,372.92Z" transform="translate(-11.21 -66.68)"/></g><g id="text_19" data-name="text 19"><path id="DejaVuSans-72-3" data-name="DejaVuSans-72" d="M511.51,340.65h1v3h3.59v-3h1v7.29h-1v-3.47h-3.59v3.47h-1Z" transform="translate(-11.21 -66.68)"/><path id="DejaVuSans-111-6" data-name="DejaVuSans-111" d="M521.11,343.1a1.36,1.36,0,0,0-1.14.56,3.1,3.1,0,0,0,0,3.1,1.36,1.36,0,0,0,1.15.56,1.34,1.34,0,0,0,1.14-.57,3,3,0,0,0,0-3.08A1.34,1.34,0,0,0,521.11,343.1Zm0-.76a2.32,2.32,0,0,1,1.84.76,3.66,3.66,0,0,1,0,4.22,2.62,2.62,0,0,1-3.69,0,3.7,3.7,0,0,1,0-4.22A2.33,2.33,0,0,1,521.11,342.34Z" transform="translate(-11.21 -66.68)"/><path id="DejaVuSans-108-5" data-name="DejaVuSans-108" d="M525.11,340.34h.9v7.6h-.9Z" transform="translate(-11.21 -66.68)"/><path id="DejaVuSans-105-8" data-name="DejaVuSans-105" d="M527.89,342.47h.89v5.47h-.89Zm0-2.13h.89v1.14h-.89Z" transform="translate(-11.21 -66.68)"/><path id="DejaVuSans-100-8" data-name="DejaVuSans-100" d="M534.26,343.3v-3h.9v7.6h-.9v-.82a1.82,1.82,0,0,1-.71.72,2.13,2.13,0,0,1-1,.24,1.94,1.94,0,0,1-1.61-.79,3.75,3.75,0,0,1,0-4.16,1.94,1.94,0,0,1,1.61-.79,2.13,2.13,0,0,1,1,.24A1.82,1.82,0,0,1,534.26,343.3Zm-3.06,1.91a2.6,2.6,0,0,0,.41,1.55,1.39,1.39,0,0,0,2.24,0,3.13,3.13,0,0,0,0-3.1,1.39,1.39,0,0,0-2.24,0A2.6,2.6,0,0,0,531.2,345.21Z" transform="translate(-11.21 -66.68)"/><path id="DejaVuSans-97-8" data-name="DejaVuSans-97" d="M539.5,345.19a3.15,3.15,0,0,0-1.51.25.91.91,0,0,0-.42.85,1,1,0,0,0,.31.76,1.24,1.24,0,0,0,.86.28,1.51,1.51,0,0,0,1.2-.53,2.09,2.09,0,0,0,.45-1.41v-.2Zm1.79-.37v3.12h-.9v-.83a1.86,1.86,0,0,1-.77.73,2.38,2.38,0,0,1-1.12.24,1.9,1.9,0,0,1-1.34-.47,1.66,1.66,0,0,1-.49-1.26,1.63,1.63,0,0,1,.62-1.39,3,3,0,0,1,1.84-.47h1.26v-.09a1.17,1.17,0,0,0-.41-1,1.71,1.71,0,0,0-1.14-.34,4.06,4.06,0,0,0-.92.11,3.87,3.87,0,0,0-.85.34v-.83a5.42,5.42,0,0,1,1-.28,4.07,4.07,0,0,1,.9-.1,2.3,2.3,0,0,1,1.77.62A2.59,2.59,0,0,1,541.29,344.82Z" transform="translate(-11.21 -66.68)"/><path id="DejaVuSans-121-4" data-name="DejaVuSans-121" d="M545.41,348.45a3.22,3.22,0,0,1-.74,1.27,1.45,1.45,0,0,1-1,.3H543v-.75h.53a.85.85,0,0,0,.57-.18,2.23,2.23,0,0,0,.46-.83l.16-.41-2.21-5.38h1l1.71,4.28,1.71-4.28h1Z" transform="translate(-11.21 -66.68)"/></g><g id="text_20" data-name="text 20"><path id="DejaVuSans-55-2" data-name="DejaVuSans-55" d="M456.59,332.07h4.69v.42l-2.65,6.87h-1l2.49-6.46h-3.5Z" transform="translate(-11.21 -66.68)"/><path id="DejaVuSans-37-10" data-name="DejaVuSans-37" d="M469.4,336.15a.78.78,0,0,0-.67.36,2.22,2.22,0,0,0,0,2,.78.78,0,0,0,.67.36.75.75,0,0,0,.66-.36,2.22,2.22,0,0,0,0-2A.75.75,0,0,0,469.4,336.15Zm0-.62a1.53,1.53,0,0,1,1.23.54,2.56,2.56,0,0,1,0,2.9,1.57,1.57,0,0,1-1.23.53,1.54,1.54,0,0,1-1.23-.53,2.53,2.53,0,0,1,0-2.91A1.54,1.54,0,0,1,469.4,335.53Zm-5-3a.75.75,0,0,0-.66.36,2.2,2.2,0,0,0,0,2,.78.78,0,0,0,1.33,0,1.78,1.78,0,0,0,.24-1,1.83,1.83,0,0,0-.24-1A.78.78,0,0,0,464.36,332.56Zm4.41-.62h.78L465,339.5h-.78Zm-4.41,0a1.51,1.51,0,0,1,1.23.53,2.14,2.14,0,0,1,.46,1.45,2.17,2.17,0,0,1-.45,1.45,1.68,1.68,0,0,1-2.47,0,2.19,2.19,0,0,1-.45-1.45,2.14,2.14,0,0,1,.46-1.45A1.5,1.5,0,0,1,464.36,331.94Z" transform="translate(-11.21 -66.68)"/></g><g id="text_21" data-name="text 21"><path id="DejaVuSans-76" d="M290,189.51h1V196h3.55v.83H290Z" transform="translate(-11.21 -66.68)"/><path id="DejaVuSans-111-7" data-name="DejaVuSans-111" d="M297.5,192a1.34,1.34,0,0,0-1.14.57,2.51,2.51,0,0,0-.42,1.54,2.57,2.57,0,0,0,.41,1.55,1.36,1.36,0,0,0,1.15.56,1.34,1.34,0,0,0,1.14-.57,3,3,0,0,0,0-3.08A1.34,1.34,0,0,0,297.5,192Zm0-.76a2.32,2.32,0,0,1,1.84.76,3.66,3.66,0,0,1,0,4.22,2.62,2.62,0,0,1-3.69,0,3.7,3.7,0,0,1,0-4.22A2.33,2.33,0,0,1,297.5,191.2Z" transform="translate(-11.21 -66.68)"/><path id="DejaVuSans-99" d="M305.43,191.54v.84a3.47,3.47,0,0,0-.76-.31,2.92,2.92,0,0,0-.77-.11,1.7,1.7,0,0,0-1.36.56,2.22,2.22,0,0,0-.49,1.55,2.26,2.26,0,0,0,.49,1.56,1.69,1.69,0,0,0,1.36.55,2.91,2.91,0,0,0,.77-.1,3.52,3.52,0,0,0,.76-.32v.83a3.11,3.11,0,0,1-.78.26,3.82,3.82,0,0,1-.85.09,2.6,2.6,0,0,1-2-.77,3,3,0,0,1-.72-2.1,2.9,2.9,0,0,1,.73-2.1,2.67,2.67,0,0,1,2-.77,3.72,3.72,0,0,1,.81.09A3.39,3.39,0,0,1,305.43,191.54Z" transform="translate(-11.21 -66.68)"/><path id="DejaVuSans-97-9" data-name="DejaVuSans-97" d="M309.48,194.05a3.18,3.18,0,0,0-1.51.25.91.91,0,0,0-.42.85,1,1,0,0,0,.32.76,1.21,1.21,0,0,0,.85.28,1.51,1.51,0,0,0,1.2-.53,2.1,2.1,0,0,0,.46-1.41v-.2Zm1.79-.37v3.12h-.89V196a2.09,2.09,0,0,1-.77.74,2.56,2.56,0,0,1-1.13.23,1.83,1.83,0,0,1-1.33-.47,1.65,1.65,0,0,1-.5-1.26,1.63,1.63,0,0,1,.62-1.39,3,3,0,0,1,1.84-.47h1.27v-.09a1.2,1.2,0,0,0-.41-1,1.73,1.73,0,0,0-1.15-.34,3.91,3.91,0,0,0-.91.11,4,4,0,0,0-.86.34v-.83a5.42,5.42,0,0,1,1-.28,4.07,4.07,0,0,1,.9-.1,2.35,2.35,0,0,1,1.78.62A2.61,2.61,0,0,1,311.27,193.68Z" transform="translate(-11.21 -66.68)"/><path id="DejaVuSans-108-6" data-name="DejaVuSans-108" d="M313.12,189.2h.9v7.6h-.9Z" transform="translate(-11.21 -66.68)"/></g><g id="text_22" data-name="text 22"><path id="DejaVuSans-78" d="M227.55,392.31h1.33l3.23,6.1v-6.1h1v7.29h-1.33l-3.23-6.09v6.09h-1Z" transform="translate(-11.21 -66.68)"/><path id="DejaVuSans-97-10" data-name="DejaVuSans-97" d="M237.48,396.86a3.31,3.31,0,0,0-1.51.24.91.91,0,0,0-.42.85,1,1,0,0,0,.32.76,1.21,1.21,0,0,0,.85.28,1.48,1.48,0,0,0,1.2-.53,2.08,2.08,0,0,0,.45-1.4v-.2Zm1.79-.38v3.12h-.9v-.83a1.92,1.92,0,0,1-.76.74,2.42,2.42,0,0,1-1.13.24,1.82,1.82,0,0,1-1.33-.48,1.85,1.85,0,0,1,.12-2.65,3,3,0,0,1,1.84-.47h1.26v-.09a1.19,1.19,0,0,0-.4-1,1.81,1.81,0,0,0-1.15-.34,3.92,3.92,0,0,0-1.77.45v-.83a6.42,6.42,0,0,1,1-.28,4.77,4.77,0,0,1,.9-.1,2.36,2.36,0,0,1,1.78.62A2.61,2.61,0,0,1,239.27,396.48Z" transform="translate(-11.21 -66.68)"/><path id="DejaVuSans-116-4" data-name="DejaVuSans-116" d="M242,392.58v1.56h1.85v.69H242v3a1.36,1.36,0,0,0,.18.86,1.06,1.06,0,0,0,.75.19h.92v.75h-.92a2.13,2.13,0,0,1-1.44-.38,2,2,0,0,1-.39-1.42v-3h-.66v-.69h.66v-1.56Z" transform="translate(-11.21 -66.68)"/><path id="DejaVuSans-105-9" data-name="DejaVuSans-105" d="M245,394.14h.9v5.46H245Zm0-2.13h.9v1.13H245Z" transform="translate(-11.21 -66.68)"/><path id="DejaVuSans-111-8" data-name="DejaVuSans-111" d="M249.94,394.76a1.34,1.34,0,0,0-1.14.57,2.51,2.51,0,0,0-.42,1.54,2.55,2.55,0,0,0,.42,1.55,1.44,1.44,0,0,0,2.28,0,3.05,3.05,0,0,0,0-3.09A1.34,1.34,0,0,0,249.94,394.76Zm0-.76a2.31,2.31,0,0,1,1.84.77,3.64,3.64,0,0,1,0,4.21,2.58,2.58,0,0,1-3.68,0,3.64,3.64,0,0,1,0-4.21A2.31,2.31,0,0,1,249.94,394Z" transform="translate(-11.21 -66.68)"/><path id="DejaVuSans-110-6" data-name="DejaVuSans-110" d="M258.49,396.3v3.3h-.9v-3.27a1.87,1.87,0,0,0-.3-1.16,1.09,1.09,0,0,0-.91-.38,1.46,1.46,0,0,0-1.15.46,1.81,1.81,0,0,0-.42,1.26v3.09h-.9v-5.46h.9V395a2.14,2.14,0,0,1,.76-.74,2.07,2.07,0,0,1,1-.25,1.73,1.73,0,0,1,1.42.59A2.58,2.58,0,0,1,258.49,396.3Z" transform="translate(-11.21 -66.68)"/><path id="DejaVuSans-97-11" data-name="DejaVuSans-97" d="M262.76,396.86a3.34,3.34,0,0,0-1.51.24.91.91,0,0,0-.42.85,1,1,0,0,0,.32.76,1.24,1.24,0,0,0,.86.28,1.5,1.5,0,0,0,1.2-.53,2.08,2.08,0,0,0,.45-1.4v-.2Zm1.8-.38v3.12h-.9v-.83a1.94,1.94,0,0,1-.77.74,2.41,2.41,0,0,1-1.12.24,1.85,1.85,0,0,1-1.34-.48,1.88,1.88,0,0,1,.12-2.65,3.08,3.08,0,0,1,1.85-.47h1.26v-.09a1.2,1.2,0,0,0-.41-1,1.77,1.77,0,0,0-1.15-.34,3.5,3.5,0,0,0-.91.12,3.26,3.26,0,0,0-.85.33v-.83a6.31,6.31,0,0,1,1-.28,4.78,4.78,0,0,1,.91-.1,2.34,2.34,0,0,1,1.77.62A2.61,2.61,0,0,1,264.56,396.48Z" transform="translate(-11.21 -66.68)"/><path id="DejaVuSans-108-7" data-name="DejaVuSans-108" d="M266.41,392h.89v7.59h-.89Z" transform="translate(-11.21 -66.68)"/></g><g id="text_23" data-name="text 23"><path id="DejaVuSans-82" d="M383.81,318.65a1.49,1.49,0,0,1,.62.46,4.82,4.82,0,0,1,.6,1l1,2H385L384,320.2a2.65,2.65,0,0,0-.7-1,1.6,1.6,0,0,0-.93-.24h-1.07v3.08h-1v-7.29h2.23a2.81,2.81,0,0,1,1.86.52,2,2,0,0,1,.62,1.58,1.94,1.94,0,0,1-.32,1.14A1.56,1.56,0,0,1,383.81,318.65Zm-2.47-3.06v2.59h1.24a1.54,1.54,0,0,0,1.07-.33,1.22,1.22,0,0,0,.37-1,1.18,1.18,0,0,0-.37-1,1.54,1.54,0,0,0-1.07-.33Z" transform="translate(-11.21 -66.68)"/><path id="DejaVuSans-101-5" data-name="DejaVuSans-101" d="M391.49,319.11v.44h-4.13a2,2,0,0,0,.56,1.41,1.87,1.87,0,0,0,1.39.49,3.66,3.66,0,0,0,1-.13,4.15,4.15,0,0,0,1-.38v.85a5.72,5.72,0,0,1-1,.32,5.07,5.07,0,0,1-1,.1,2.8,2.8,0,0,1-2.08-.76,2.77,2.77,0,0,1-.76-2.06,3,3,0,0,1,.72-2.13,2.53,2.53,0,0,1,2-.79,2.25,2.25,0,0,1,1.75.71A2.81,2.81,0,0,1,391.49,319.11Zm-.9-.26a1.74,1.74,0,0,0-.41-1.18,1.4,1.4,0,0,0-1.07-.44,1.65,1.65,0,0,0-1.2.43,1.76,1.76,0,0,0-.52,1.19Z" transform="translate(-11.21 -66.68)"/><path id="DejaVuSans-103-2" data-name="DejaVuSans-103" d="M396.56,319.27a2.47,2.47,0,0,0-.4-1.51,1.45,1.45,0,0,0-2.26,0,3.05,3.05,0,0,0,0,3,1.45,1.45,0,0,0,2.26,0A2.47,2.47,0,0,0,396.56,319.27Zm.9,2.12a3,3,0,0,1-.62,2.08,2.46,2.46,0,0,1-1.9.68,5.1,5.1,0,0,1-.89-.07,4.73,4.73,0,0,1-.82-.22V323a4.15,4.15,0,0,0,.78.32,3.49,3.49,0,0,0,.79.1,1.76,1.76,0,0,0,1.32-.46,2,2,0,0,0,.44-1.4v-.44a1.82,1.82,0,0,1-.71.72,2.13,2.13,0,0,1-1,.24,2,2,0,0,1-1.62-.76,3.65,3.65,0,0,1,0-4.07,2,2,0,0,1,1.62-.77,2.13,2.13,0,0,1,1,.24,1.82,1.82,0,0,1,.71.72v-.83h.9Z" transform="translate(-11.21 -66.68)"/><path id="DejaVuSans-105-10" data-name="DejaVuSans-105" d="M399.31,316.6h.9v5.47h-.9Zm0-2.13h.9v1.14h-.9Z" transform="translate(-11.21 -66.68)"/><path id="DejaVuSans-111-9" data-name="DejaVuSans-111" d="M404.21,317.23a1.34,1.34,0,0,0-1.14.57,2.51,2.51,0,0,0-.42,1.54,2.55,2.55,0,0,0,.41,1.55,1.36,1.36,0,0,0,1.15.56,1.34,1.34,0,0,0,1.14-.57,3,3,0,0,0,0-3.08A1.34,1.34,0,0,0,404.21,317.23Zm0-.76a2.35,2.35,0,0,1,1.84.76,3.66,3.66,0,0,1,0,4.22,2.62,2.62,0,0,1-3.69,0,3.7,3.7,0,0,1,0-4.22A2.36,2.36,0,0,1,404.21,316.47Z" transform="translate(-11.21 -66.68)"/><path id="DejaVuSans-110-7" data-name="DejaVuSans-110" d="M412.75,318.77v3.3h-.89V318.8a1.85,1.85,0,0,0-.31-1.16,1.07,1.07,0,0,0-.91-.39,1.46,1.46,0,0,0-1.14.47,1.79,1.79,0,0,0-.42,1.26v3.09h-.91V316.6h.91v.85a2.14,2.14,0,0,1,.76-.74,2,2,0,0,1,1-.24,1.77,1.77,0,0,1,1.43.58A2.65,2.65,0,0,1,412.75,318.77Z" transform="translate(-11.21 -66.68)"/><path id="DejaVuSans-97-12" data-name="DejaVuSans-97" d="M417,319.32a3.28,3.28,0,0,0-1.51.25.91.91,0,0,0-.42.85,1,1,0,0,0,.32.76,1.21,1.21,0,0,0,.85.28,1.51,1.51,0,0,0,1.2-.53,2.09,2.09,0,0,0,.45-1.41v-.2Zm1.79-.37v3.12h-.9v-.83a2,2,0,0,1-.76.74,2.56,2.56,0,0,1-1.13.23,1.82,1.82,0,0,1-1.33-.47,1.65,1.65,0,0,1-.5-1.26,1.63,1.63,0,0,1,.62-1.39,3,3,0,0,1,1.84-.47h1.26v-.09a1.19,1.19,0,0,0-.4-1,1.75,1.75,0,0,0-1.15-.34,3.91,3.91,0,0,0-.91.11,4,4,0,0,0-.86.34v-.83a5.42,5.42,0,0,1,1-.28,4.07,4.07,0,0,1,.9-.1,2.35,2.35,0,0,1,1.78.62A2.61,2.61,0,0,1,418.82,319Z" transform="translate(-11.21 -66.68)"/><path id="DejaVuSans-108-8" data-name="DejaVuSans-108" d="M420.67,314.47h.9v7.6h-.9Z" transform="translate(-11.21 -66.68)"/></g></svg>